<svg class="del" xmlns="http://www.w3.org/2000/svg">
    <defs>
        <symbol id="castle" viewBox="0 0 32 32">
            <path  fill="currentColor" fill-rule="evenodd" 
                d="M21.5 1039.862v12.5h9v-12.5zm4.5 2.25c.828 0 1.5.704 1.5 1.574v1.426h-3v-1.426c0-.87.672-1.574 
                1.5-1.574zM16 1024.112l-5.107 6.5h10.214zM10.5 1031.612v2.25h1.75v6h-1v12.5H13v-3.467c0-1.675 
                1.343-3.033 3-3.033s3 1.358 3 3.033v3.467h1.75v-12.5h-1v-6h1.75v-2.25zm5.5 2c.828 0 1.5.704 1.5 
                1.574v1.426h-3v-1.426c0-.87.672-1.574 1.5-1.574zm0 5c.828 0 1.5.704 1.5 
                1.574v1.426h-3v-1.426c0-.87.672-1.574 1.5-1.574zM16 1020.362h4.5l-2 1.5 2 1.5H16zM1.5 
                1039.862v12.5h9v-12.5zm4.5 2.25c.828 0 1.5.704 1.5 1.574v1.426h-3v-1.426c0-.87.672-1.574 1.5-1.574z" 
                transform="translate(0 -1020.362)"/>
            <path  fill="currentColor" fill-rule="evenodd" 
                d="M.5 1034.612h2v.5a1.25 1.25 0 1 0 2.5 0v-.5h2v.5a1.25 1.25 0 1 0 2.5 0v-.5h2v4.5H.5zM20.5 
                1034.612h2v.5a1.25 1.25 0 1 0 2.5 0v-.5h2v.5a1.25 1.25 0 1 0 2.5 0v-.5h2v4.5h-11z" 
                transform="translate(0 -1020.362)"/>
        </symbol>
        <symbol id="book" viewBox="0 0 64 64">
            <path fill="currentColor" d="M52.5 5.5c.54999 0 1 .45001 1 
                1v10h2V6.5c0-1.65002-1.34998-3-3-3h-13.83997c.13.56.38995 1.28998.88995 2h12.95001zM53.5 
                49.5H21.5V5.5h11.95001c.5-.71002.76001-1.44.89001-2H15.5c-3.31 0-6 2.69-6 
                6v12.92999c1.70813-2.55402.20679-3.37329 2-4.64001v-2.28998h8v21H11.5v-1.28003c-1.77899-1.25458-.3056-2.11267-2-4.64001v24.92004c0 
                3.31 2.69 6 6 6H54.5c.46002 0 
                .85999-.31.97003-.76001.10999-.44-.09003-.91003-.5-1.12-3.25769-1.65149-3.25458-6.58948.00012-8.23999.32599-.18219.52026-.50781.52985-.88v-12h-2v11zm-1.66998 
                10H15.5c-2.20996 0-4-1.79004-4-4s1.79004-4 4-4H51.83002c-1.75769 2.23663-1.75763 5.76337 0 8z"/>
            <path fill="currentColor" d="M12.5 33.5s0-4.90137 5-7c-5-2.09863-5-7-5-7 0 0 0 4.90137-5 7 5 2.09863 5 7 5 7zM36.5 
                16.5s0-4.90137 5-7c-5-2.09863-5-7-5-7 0 0 0 4.90137-5 7 5 2.09863 5 7 5 7z"/>
            <path fill="currentColor" d="M49.5,16.5h2v-6c0-1.65002-1.34998-3-3-3h-6.57996c1.8573,.52246,2.18127,3.0589,.34991,
                3.84003-3.65997,1.53998-3.76996,5.02997-3.76996,5.17993-.10272,2.59338-3.91144,2.6037-4-.00006,
                0-.17993-.13-3.6499-3.76996-5.17993-1.82727-.77863-1.51099-3.31836,.34998-3.83997h-4.58002c-1.64996,0-3,
                1.34998-3,3V44.5c0,1.64996,1.35004,3,3,3,.09021-.04175,16.90582,.05396,16.98004-.02002,
                .01996-.09998-.04004-4.90997-4.98004-6.97998,5-2.10004,5-7,5-7,0,0,0,4.89996,5,7-4.94,2.07996-5,6.88-5,6.98999,
                .03003,.01001,.07001,.01001,.10999,.01001h4.89001c1.65002,0,3-1.35004,3-3v-6h-2c-3.31,0-6-2.69-6-6v-10c0-3.31,
                2.69-6,6-6Zm-15,17h-4c-1.31244-.02484-1.31445-1.97485,.00006-2-.00006,0,3.99994,0,3.99994,0,1.3125,.02484,
                1.31451,1.97479,0,2Zm3-5h-7c-1.31201-.02472-1.31482-1.97479,.00006-2-.00006,0,6.99994,0,6.99994,0,1.31152,
                .02454,1.31525,1.97473,0,2Zm3-5h-10c-1.31055-.02423-1.31604-1.97467,.00006-2-.00006,0,9.99994,0,9.99994,0,
                1.31061,.02423,1.31604,1.97461,0,2Z"/>
            <path fill="currentColor" d="M55.5,18.5h-6c-2.20557,0-4,1.79395-4,4v10c0,2.20605,1.79443,4,4,4h6c.55225,0,1-.44727,
                1-1V19.5c0-.55273-.44775-1-1-1Z"/>
        </symbol>
        <symbol id="crown" viewBox="0 0 64 64">
            <path fill="currentColor" d="M11.00042 19s0-4.90137 5-7c-5-2.09863-5-7-5-7 0 0 0 4.90137-5 7 5 2.09863 5 7 5 
                7zM52.00042 24s0-4.90137 5-7c-5-2.09863-5-7-5-7 0 0 0 4.90137-5 7 5 2.09863 5 7 5 7z"/>
            <path fill="currentColor" d="M56.45043,23.16998c-8.85718,6.00006-13.10919,3.11853-13.44995-4.1701,
                .02405-.80597-.98547-1.29926-1.61005-.78992-5.63702,4.68768-7.68683-1.71582-8.28998-6.32996,
                5.7301-1.38995,4.86182-9.76263-1.1001-9.88-5.96277,.11798-6.82916,8.49109-1.09991,9.88-.60748,
                4.62274-2.65021,11.0141-8.29004,6.32977-.62555-.50812-1.63354-.01666-1.60992,.79022-.34113,7.3028-4.60773,
                10.16113-13.45007,4.16986-.8241-.60571-1.97528,.47235-1.40991,1.34015-.00006,0,8.33997,13.89996,8.33997,
                13.89996-.88,.53003-1.48004,1.48999-1.48004,2.59003v1c0,1.29999,.84003,2.40997,2,2.82001v10.35999c-1.15997,
                .40997-2,1.52002-2,2.82001v1c0,1.64996,1.35004,3,3,3H48.00042c1.65002,0,3-1.35004,
                3-3v-1c0-1.29999-.83997-2.41003-2-2.82001v-10.35999c1.16003-.41003,2-1.52002,
                2-2.82001v-1c0-1.10004-.59998-2.06-1.47998-2.59003l8.33997-13.89996c.56195-.86743-.58142-1.94586-1.40997-1.34003Zm-29.27997,
                5.28003l4-6c.37-.56,1.28998-.56,1.65997,0l4,6c.22998,.32996,.22998,.76996,0,1.09998l-4,6c-.36206,.59119-1.29791,
                .59283-1.65997-.00006,0,.00006-4-5.99994-4-5.99994-.23004-.33002-.23004-.77002,0-1.09998Zm21.82996,30.54999c0,
                .54999-.45001,1-1,1H16.00042c-.54999,0-1-.45001-1-1v-1c0-.54999,.45001-1,1-1H48.00042c.54999,0,1,.45001,1,
                1v1Zm-26-9c0-.54999,.45001-1,1-1h1c.54999,0,1,.45001,1,1s-.45001,1-1,1h-1c-.54999,0-1-.45001-1-1Zm6,0c.10938-3.95459,
                5.89124-3.9538,6,.00006-.10938,3.95447-5.89117,3.95367-6-.00006Zm9,0c0-.54999,.45001-1,1-1h1c.54999,0,1,.45001,1,
                1s-.45001,1-1,1h-1c-.54999,0-1-.45001-1-1Zm11-8c0,.54999-.45001,1-1,1H16.00042c-.54999,0-1-.45001-1-1v-1c0-.54999,
                .45001-1,1-1H48.00042c.54999,0,1,.45001,1,1v1Z"/>
        </symbol>
        <symbol id="flag" viewBox="0 0 50 50">
            <path fill="currentColor" d="M46,3.7c-1.2,0-2.3,0.8-2.8,1.8H6.8C6.3,4.5,5.3,3.7,4,3.7c-1.7,0-3,1.4-3,3c0,
                1.7,1.3,3,3,3c1.2,0,2.3-0.8,2.8-1.8h8.8V10   h-3.9c-5.3,12.1,5.3,24.2,0,36.3c5.5-2.6,10.4-5.1,
                14.8-7.7c4.5,2.6,8.5,5.1,11.9,7.7c5.3-12.1-5.3-24.2,0-36.3h-3.9V7.9h8.8   C43.7,9,44.8,9.7,46,
                9.7c1.7,0,3-1.3,3-3C49,5.1,47.7,3.7,46,3.7z M17.2,7.9h6.9V10h-6.9V7.9z M29.3,32.9L25,30.7l-4.3,
                2.2l0.8-4.7   l-3.4-3.3l4.8-0.7l2.1-4.3l2.1,4.3l4.8,0.7l-3.4,3.3L29.3,32.9z M32.8,10h-6.9V7.9h6.9V10z"/>
        </symbol>
        <symbol id="click" viewBox="0 0 64 64">
            <path fill="currentColor" d="M52 6h6v6a1 1 0 0 0 2 0V5a1 1 0 0 0-1-1h-7a1 1 0 0 0 0 2zm-32 6V6h6a1 1 0 0 0 
                0-2h-7a1 1 0 0 0-1 1v7a1 1 0 0 0 2 0zm14-6h10a1 1 0 0 0 0-2H34a1 1 0 0 0 0 2zm24 14v10a1 1 0 0 0 2 
                0V20a1 1 0 0 0-2 0zM44 44h-9.999a1 1 0 0 0 0 2h10a1 1 0 0 0 0-2zM18 20v10a1 1 0 0 0 2 0V20a1 1 0 0 0-2 
                0zm40 18v6h-6a1 1 0 0 0 0 2h7a1 1 0 0 0 1-1v-7a1 1 0 0 0-2 0z"/>
            <path fill="currentColor" d="M49.401 15.922a1.001 1.001 0 0 0-1.268-1.268l-6.42 2.177-5.432-4.054a1 1 0 0 
                0-1.598.814l.086 6.778-5.535 3.914a1.002 1.002 0 0 0 .28 1.772l6.475 2.012L38 34.54a1.001 1.001 0 0 0 
                1.772.28l3.913-5.534 6.778.086a1 1 0 0 0 .815-1.598l-4.054-5.433 2.176-6.42z"/>
            <path fill="currentColor" d="m35.384 32.86-.994-3.196-3.278-1.018L5.294 54.465a1 1 0 0 0 0 1.414l2.828 
                2.828a1 1 0 0 0 1.414 0zm-4.634-1.023-4.95 4.95a1 1 0 0 0 1.414 1.414l4.95-4.95a1 1 0 0 0-1.414-1.414z"/>
            <circle fill="currentColor" cx="20.231" cy="39.255" r="1" transform="rotate(-45)"/>
            <circle fill="currentColor" cx="9.231" cy="36.255" r="1" transform="rotate(-45)"/>
            <circle fill="currentColor" cx="9.231" cy="54.255" r="1" transform="rotate(-45)"/>
            <circle fill="currentColor" cx="20.231" cy="51.255" r="1" transform="rotate(-45)"/>
        </symbol>
        <symbol id="closeCross" viewBox="0 0 64 64"> 
            <path fill="currentColor" d="M42.76,32,59.54,48.79a7.54,7.54,0,0,1,0,10.65l-.11.11a7.54,7.54,0,0,1-10.65,
                0L32,42.76,15.21,59.54a7.54,7.54,0,0,1-10.65,0l-.11-.11a7.54,7.54,0,0,1,0-10.65L21.24,32,4.46,
                15.21a7.54,7.54,0,0,1,0-10.65l.11-.11a7.54,7.54,0,0,1,10.65,0L32,21.24,48.79,4.46a7.54,7.54,0,0,1,
                10.65,0l.11.11a7.54,7.54,0,0,1,0,10.65Z"/>
        </symbol>
        <symbol id="fairy" viewBox="0 0 50 50">
            <path fill="currentColor" d="M31.9725,35.0265c0,0,0.731,3.6334-0.086,5.0739c0,0-0.3655,1.032-2.9024,
                0.903c0,0-3.0007,3.3389-5.7302,4.9415   c0,0-1.4023,1.0267-2.0784,1.2771c0,0,0.8013,1.3522-0.9265,
                1.7779c0,0-0.8264,0.025-1.1269-0.8514c0,0-0.6511,0.9516-0.6511-0.626   c0,0,0.7012-1.2521,
                1.1018-1.2771c0,0,0.9015-0.7763,1.0016-1.0267c0,0,0.601-1.3272,1.3773-0.3005c0,0,0.3255,0.1753,
                0.601-0.0501   c0,0,0.9766-0.7262,1.1018-1.1519c0,0,1.4273-2.7295,1.853-3.1051c0,
                0-2.9799-0.8514-4.3321-1.0517   c0,0-0.0501,1.4273-1.6527,0.9015c0,0-0.9766-0.8013,0.0501-1.853c0,
                0-0.5259-0.5259-0.1502-0.6511   c0,0,1.7529,0.0751,2.1786-0.0751c0,0,1.4023-0.4758,1.7028,
                0.0751c0,0,0,0.5509-0.1502,0.5509c0,0,0.1252,0.3506,0.4507,0.3506   c0,0,0.8013,0.1753,1.3522,
                0.025c0,0,2.2537-0.5509,2.4039-0.5259c0,0,0.601-2.3288,0.5509-2.7545c0,0-1.4524-1.853-1.5275-2.7044   
                c0,0-1.2771,0.5759-2.0033-0.025c0,0,1.0267-0.601,1.2771-1.7278c0,0,0.9015-2.9298,4.8079-3.3806c0,0,
                0.3506-0.7512,0.4257-0.7512   c0,0-0.025-1.3021-0.626-2.2787c0,0-1.0768,1.7278-1.2771,1.7278c0,
                0-0.1502,1.202-4.0817,2.3539c0,0-0.601,0.1252-1.5275-0.626   c0,0-1.3021,0.0751-1.4023-0.2755c0,
                0,0.9516-0.2254,1.1519-0.1002c0,0-0.8079-0.4629-1.0947-0.4798   c0,0-0.8434-0.506-0.4723-0.6916c0,
                0,0.5229,0.253,1.2482,0.2193c0,0-0.8265-0.2868-0.8097-0.7253c0,0,0.7759,0.388,1.0964,0.3711   
                c0,0,0.8603,0.0169,1.9567,1.2482c0,0,0.5229-0.1181,0.7253-0.4048c0,0,0.9277-1.0964,1.1133-1.1133   
                c0.1855-0.0169-1.3983-0.4506-1.5034-1.6861c0,0-6.0586,0.1193-11.8342-6.7623c0,0-2.4577-3.154-5.6527-4.3829   
                c0,0,3.4817-3.236,12.5342,2.6215c0,0,9.0115,5.8165,9.2983,5.9394c0,0,0.4932-0.2994,0.7952-0.5409   
                c0,0,0.0805-0.9259-0.3422-1.3889c0,0-0.4831-0.4227-0.5837-0.4227c0,0-3.2408-0.3825-3.4622-4.0057   
                c0,0-0.1409-0.3422-0.1208-0.5032c0,0-1.2681,1.2883-2.4155-0.6039c0,0-0.9461-2.5966,1.248-3.5628   
                c0,0-1.8316-8.8176-0.2595-9.9406c0,0,0.025,1.4723,0.524,2.171c0,0,4.0176,8.0851,4.2921,9.4575c0,0,
                1.597-1.6969,2.5702-1.647   c0,0-0.025,0.1747-0.1996,0.2495c0,0,2.2326-0.137,2.8254,0.9879c0,
                0-0.2888-0.0608-0.304,0.1064c0,0,1.0337,0.9729,0.1672,2.4019   c0,0-0.0912-0.152-0.0608-0.228c0,
                0-0.2888,0.9577-0.5625,1.0489c0,0-0.5929-1.0033-0.7145-1.0641c0,0,0.1368,1.0185-0.0304,1.1401   
                c0,0,0.1216,0.1824,0.3192,0.228c0,0-0.1824,0.1824-0.2736,0.1824c0,0,0.076,0.6081,0.2736,0.6689c0,
                0,0.9729,1.0489,0.0456,1.9915   c0,0-0.5017,1.4594-1.4138,1.4442c0,0,0.0152,0.5321,0.3192,0.6385c0,
                0,0.4498,0.1101,0.893-0.0092   c0,0,0.6306-0.1704,1.1249,0.4943c0,0,0.9715,1.4658,2.5907,1.8748c0,
                0,1.1078-1.6703,1.6021-2.4543   c0,0,0.1513-1.0527,1.4614-1.2649c0,0,0.4616-0.2121,0.6238-0.5615c0,
                0,0.2371,0.0374,0.0499,0.4741   c0,0-0.2246,0.262-0.3244,0.2994c0,0,0.3493-0.1372,0.4866-0.0499c0,
                0,0.5615-0.3743,0.7112-0.549c0,0-0.0998-0.5365,0.3119-0.4616   c0,0-0.1123-0.3369,0.1747-0.2246c0,
                0,0.1123,0.9732-0.1747,1.0356c0,0-0.0499,0.4741-0.3494,0.5989   c0,0-0.2371,0.7736-0.8359,0.8359c0,
                0-1.1728,0.0374-1.3225,0.1497c0,0-0.6623,1.5873-0.6487,2.27c0,0-0.3277,1.9251-1.3107,1.9251   
                c0,0-1.6247-0.3413-2.1299-0.6827c-0.4801,1.7654-1.0101,3.1514-2.3986,4.6342c0,0,0,2.3051,0.0779,2.7724   
                c0,0-0.3115,1.4952-0.4673,1.5731c0,0-0.0156,0.9189,0.0623,0.9812c0,0,0.2648,0.5295,0.1713,0.6697   
                C32.7506,35.1086,32.2847,35.2248,31.9725,35.0265z"/>
        </symbol>
        <symbol id="feathersCross" viewBox="0 0 512 512">
            <path fill="currentColor" d="M58.31 24.814L44.187 90.339 27.05 50.894c-3.463 13.536-3.63 28.752-2.328 42.395 7.427 74.81 70.83 162.556 154.83 236.173 15.377-15.942 30.388-32.237 44.783-48.732 6.82-7.815 13.5-15.678 20.018-23.568-59.05-73.228-104.055-148.414-115.58-214.524-4.027-11.108-15.646-14.908-25.596-17.36l11.53 19.868-31.305-22.445c-8.441-.189-17.618.604-25.092 2.113zm370.083-2.107c-2.92 13.842-5.738 27.685-15.046 41.527-.164-13.921-2.092-26.96-7.856-38.082-8.462 2.643-20.526 7.494-22.291 16.486-13.393 76.824-71.978 165.906-145.301 249.926C172.826 367.13 95.984 437.277 27.608 489.355c80.91-12.026 184.614-63.92 272.556-133.086 27.835-21.892 54.063-45.515 77.6-70.025-6.727 1.124-13.617 1.631-20.291 1.77l58.447-45.325c39.982-50.437 66.671-102.466 71.33-149.4.915-9.209 1.368-22.729-.642-34.805-2.01-12.077-6.486-21.931-13.252-26.371-8.677-5.693-24.034-9.17-39.578-9.45a98.183 98.183 0 0 0-5.385.044zM331.34 354.146a859.987 859.987 0 0 1-20.049 16.271 870.556 870.556 0 0 1-39.12 29.034c22.924 14.884 46.287 28.409 69.511 40.25a13010.71 13010.71 0 0 1 57.932 7.04c-5.536 5.312-11.915 8.882-18.942 11.292 36.526 15.689 71.873 26.592 103.694 31.322-49.14-37.427-102.652-84.185-153.026-135.209z"/>
        </symbol>
        <symbol id="mushroom" viewBox="0 0 512 512">
            <path fill="currentColor" d="M278.184 23.85c-7.308-.07-14.842 1.623-22.54 4.87-.622 8.336.112 17.717 2.513 26.449 3.557 12.938 10.511 24.183 20.761 30.386 9.331 5.647 21.937 7.9 40.162 2.512-3.313-7.037-6.408-13.858-9.328-20.219-6.409-13.962-12.187-25.902-17.685-33.611-5.498-7.71-9.568-10.346-13.883-10.387zm-40.717 15.153c-8.23 5.77-16.587 13.054-25.008 21.658-10.353 10.577-20.708 22.998-30.988 36.525 16.667 7.99 28.338 23.429 28.338 41.867 0 27.1-25.197 47.739-54.44 47.739-12.098 0-23.497-3.54-32.712-9.602-16.768 18.15-36.758 36.094-54.217 53.512-13.134 13.102-24.787 25.84-32.36 37.318-7.572 11.478-10.653 21.173-9.338 28.652 1.55 8.815 8.246 17.272 21.018 25.211 12.772 7.94 31.127 14.821 53.03 20.15 4.862 1.184 9.924 2.281 15.115 3.317a556.512 556.512 0 0 1 4.689-11.717c-12.85-3.626-23.03-9.762-29.27-18.644-4.816-6.856-6.363-15.362-4.677-23.826-43.658-38.757 37.63-90.032 56.652-49.82 9.162-3.47 18.94-6.288 29.113-8.583 24.4-5.502 51.298-7.937 78.17-8.312a566.841 566.841 0 0 1 26.77.273c35.431 1.182 69.269 5.454 95.445 10.748 13.088 2.648 24.24 5.537 32.916 8.54 4.338 1.5 8.053 3.018 11.23 4.693 3.179 1.674 5.908 3.215 8.356 6.615 21.523 29.898 4.995 67.307-23.06 75.918a228.827 228.827 0 0 1 3.4 9.521c18.19-4.32 37.743-9.87 53.717-17.548-7.212-8.34-11.586-19.363-11.586-31.303 0-15.037 6.94-28.617 17.748-37.217-5.637-6.602-12.25-13.356-19.64-20.24-14.225-13.25-30.732-26.752-46.743-40.766-22.075 26.075-61.685 27.981-79.691 13.694-22.675-19.321-22.258-55.489-1.528-80.436a67.633 67.633 0 0 1 14.264-12.89 380.021 380.021 0 0 1-5.086-9.618c-23.298 7.491-42.938 5.332-57.496-3.478-15.3-9.26-24.362-24.882-28.797-41.012a96.792 96.792 0 0 1-3.334-20.94zM170.541 112c-13.552 18.032-23.067 35.542-35.95 51.492 5.8 3.312 12.902 5.299 20.778 5.299 20.95 0 36.44-14.05 36.44-29.739 0-11.573-8.435-22.245-21.268-27.052zm170.791 17.59c-23.324 15.8-27.303 52.993-10.384 63.94 20.414 13.21 44.116 1.848 54.773-11.886-17.284-15.544-32.832-33.808-44.389-52.055zM94.392 274.71c8.271-10.582 19.145-18.998 31.813-25.7-9.8-22.51-49.318 12.963-31.812 25.7zm161.12-32.291c-8.38.042-17.535.34-25.025.763l3.232 25.254c7.108-.796 14.01-1.646 20.168-2.119zm16.5 22.65c5.992-.305 11.94-.5 17.793-.568l5.38-20.881c-7.841-.486-18.388-.799-21.88-.894zm-59.492-20.475c-7.897.803-15.634 1.843-23.121 3.141l9.22 26.344c5.561-1.121 11.354-2.15 17.278-3.1zm100.88.473l-5.066 19.656c7.178.273 14.089.779 20.635 1.53l11.662-17.989a598.712 598.712 0 0 0-27.23-3.197zm46.67 6.3l-11.767 18.151c5.595 1.428 10.53 2.875 15.324 4.953l19.69-18.209c-8.179-1.988-15.6-3.515-23.246-4.894zm-188.44.079a195.38 195.38 0 0 0-16.366 4.81l12.025 25.77a253.462 253.462 0 0 1 13.67-3.922zM403.3 262.3l-24.56 22.711c1.602 1.897 2.717 3.857 3.868 5.83l34.478-10.002c-1.94-10.183-5.378-15.24-13.787-18.539zm-264.722.768c-6.196 3.002-11.823 6.348-16.785 10.043l20.645 20.012c2.42-1.656 5.142-3.081 8.062-4.508zm337.692 5.96c-6.356 5.19-10.5 13.394-10.5 22.876 0 8.835 3.6 16.56 9.232 21.771 6.923-5.51 10.087-10.786 10.453-15.406.73-9.19-2.688-18.982-9.185-29.24zm-325.932 41.26c-30.59 68.297-41.478 96.049-28.799 155.995 3.377 15.964 100.92 23.155 152.487 21.68-1.331-11.917-2.927-31.423-2.045-51.286.708-15.96 2.876-32.22 8.812-45.73 5.937-13.51 17.363-24.953 33.442-25.662 16.577-.731 29.82 8.628 38.187 20.945 8.368 12.317 13.195 27.723 16.38 42.914 3.884 18.54 5.155 36.888 5.565 48.442 5.53-1.792 12.394-3.46 16.22-7.112 14.538-62.25 11.72-111.89-24.772-172.691-11.928-21.932-204.143-16.48-215.477 12.506zm-41.57-24.734c-4.67 7.298-6.647 13.299-2.715 19.086 3.169 4.51 10.563 9.343 21.705 12.197a1541.54 1541.54 0 0 1 3.983-9.013zm304.664 15.09l-21.95 6.367c1.271 2.506 2.474 5 3.64 7.489 7.459-1.639 14.22-6.793 18.31-13.856zM246.25 317.061c-6.284 29.944-9.3 55.793-7.916 83.795-30.594 3.96-65.724 3.13-90.535-2.533 3.118-27.371 8.504-58.314 18.649-78.861 29.318-5.2 52.538-8.855 79.802-2.4zm-37.008 13.844a360.228 360.228 0 0 0-3.439 17.506l15.984.289c.719-5.88 1.618-11.723 2.754-17.42-5.13-.515-10.369-.508-15.299-.375zm-18.716 1.48c-4.111.557-8.72-.246-12.028.583-1.742 4.044-2.443 10.062-3.691 14.882l12.799.23a368.846 368.846 0 0 1 2.92-15.695zm-19.416 33.4c-1.042 6.164-1.953 12.435-2.858 18.534 4.913.794 10.118 1.347 15.44 1.685.281-6.663.771-13.318 1.486-19.964zm32.142.583a291.763 291.763 0 0 0-1.556 19.976c6.24-.14 12.382-.53 18.138-1.162-.094-6.014.036-12.228.373-18.508zm111.776 16.902c-22.102 4.045-24.23 37.056-25.065 54.207-.865 19.481.862 38.912 2.145 50.002 22.329-1.37 44.217-2.54 64.351-6.006-.26-10.359-1.283-29.588-5.275-48.635-4.537-19.923-14.8-49.702-36.156-49.568zm24.377 45.631l2.103 17.877-17.902 2.105-2.104-17.875z"/>
        </symbol>
        <symbol id="sparkles" viewBox="0 0 512 512">
            <path fill="currentColor" d="M237.4 20.73c-6.1 42.1-26.8 64.2-63.9 64 31.6 4.5 63.8 8 63.9 64.07-.6-46.1 24.5-63.07 64.1-64.07-38-1.5-64.9-16.3-64.1-64zm127.8 11.58c-9.1 14.25-20.8 21.29-38.9 10.28 14.9 11.79 18.6 24.76 10.2 38.97 8.9-11.18 17.5-22.73 39-10.27-17.8-10.06-18.8-23.57-10.3-38.98zM59.68 41.69c-2.7 18.8-12 28.6-28.5 28.5 14.1 2 28.4 3.6 28.5 28.52-.3-20.5 10.9-28.12 28.5-28.52-16.9-.7-28.9-7.3-28.5-28.5zM431 66.28c-2.7 18.8-12 28.6-28.5 28.5 14.1 2 28.4 3.6 28.5 28.52-.3-20.5 10.9-28.12 28.5-28.52-16.9-.7-28.9-7.3-28.5-28.5zM120.3 116.4c-15.8 53.7-47.76 48-79.35 43.4C76.6 170 90.3 197.1 84.28 239.2c12.66-46 42.62-52.6 79.42-43.4-37.6-12.1-56.9-35.4-43.4-79.4zm187 5c-8.8 61.6-39.3 94-93.6 93.7 46.2 6.5 93.6 11.7 93.6 93.7-.8-67.3 35.9-92.2 93.8-93.7-55.5-2.2-94.9-23.9-93.8-93.7zm136.8 38.3c-13.1 21.6-29.5 28.8-49.7 20.1 16.3 9.7 33 19.1 20.1 49.6 10.3-25.2 27.9-28.7 49.7-20-20.3-9.7-31.6-23.9-20.1-49.7zM50.7 243.2c9.16 16.7 7.63 30.1-5.61 40 12.46-6.9 24.85-14.3 39.91 5.6-12.57-16.2-8.2-29 5.61-40-13.92 9.7-27.47 11.6-39.91-5.6zm137.2.3c11.4 26.8-.5 41.3-21.7 50.9 22.7-8.5 40.8-4.5 50.9 21.7-12.7-31.8 4.8-41.2 21.7-50.9-21 8.5-37.8.9-50.9-21.7zm228 12.6c-26.6 64.7-68.7 91.7-127.8 76.4 48.6 19.8 98.8 38.5 76.4 127.9 17.5-73.7 64.4-90.7 127.9-76.5-59.9-17.5-96.9-52-76.5-127.8zM99.94 295.5c15.66 57.8.86 98.1-47.32 118.5 43.46-11.8 87.38-25.2 118.68 47.4-26.4-59.3-3.4-95.4 47.3-118.8-50 19.2-93.1 15-118.66-47.1zm169.36 61c-21.8 20.6-43 23.6-63.2 7.3 15.5 16.3 31.6 32.4 7.2 63.3 19.8-25.6 41.2-24.1 63.3-7.3-20.2-17.4-28.6-37.5-7.3-63.3zM443.2 404c-2.7 18.8-12 28.6-28.5 28.5 14.1 2 28.4 3.6 28.5 28.5-.3-20.5 10.9-28.1 28.5-28.5-16.9-.7-28.9-7.3-28.5-28.5zm-169.7 36c-2.7 18.8-12 28.6-28.5 28.5 14.1 2 28.4 3.6 28.5 28.5-.3-20.5 10.9-28.1 28.5-28.5-16.9-.7-28.9-7.3-28.5-28.5z"/>
        </symbol>
        <symbol id="stars" viewBox="0 0 512 512">
            <path fill="currentColor" d="M143.627 36.361c-2.18 0-16.495 38.303-18.258 39.584-1.763 1.281-42.615 3.06-43.289 5.133-.673 2.073 31.33 27.523 32.004 29.596.674 2.073-10.26 41.475-8.496 42.756 1.763 1.28 35.86-21.291 38.039-21.291 2.18 0 36.276 22.572 38.039 21.29 1.763-1.28-9.17-40.682-8.496-42.755.673-2.073 32.677-27.523 32.004-29.596-.674-2.073-41.526-3.852-43.29-5.133-1.763-1.28-16.077-39.584-18.257-39.584zm224.746 0c-2.18 0-16.494 38.303-18.258 39.584-1.763 1.281-42.615 3.06-43.289 5.133-.673 2.073 31.33 27.523 32.004 29.596.674 2.073-10.26 41.475-8.496 42.756 1.763 1.28 35.86-21.291 38.039-21.291 2.18 0 36.276 22.572 38.04 21.29 1.762-1.28-9.17-40.682-8.497-42.755.674-2.073 32.677-27.523 32.004-29.596-.674-2.073-41.526-3.852-43.29-5.133-1.762-1.28-16.077-39.584-18.257-39.584zM256 39.883c-7.12 0-53.884 125.123-59.645 129.308-5.76 4.185-139.211 9.996-141.412 16.768-2.2 6.772 102.349 89.912 104.55 96.684 2.2 6.771-33.513 135.486-27.753 139.671C137.5 426.5 248.88 352.76 256 352.76c7.12 0 118.5 73.74 124.26 69.554 5.76-4.185-29.952-132.9-27.752-139.671 2.2-6.772 106.749-89.912 104.549-96.684-2.2-6.772-135.652-12.583-141.412-16.768-5.76-4.185-52.525-129.308-59.645-129.308zM77.973 243.102c-2.18 0-16.495 38.302-18.258 39.584-1.763 1.28-42.616 3.06-43.29 5.132-.673 2.073 31.333 27.523 32.007 29.596.673 2.073-10.26 41.475-8.496 42.756 1.763 1.281 35.857-21.291 38.037-21.291 2.18 0 36.275 22.572 38.039 21.29 1.763-1.28-9.17-40.682-8.496-42.755.673-2.073 32.679-27.523 32.005-29.596-.673-2.073-41.525-3.851-43.289-5.132-1.763-1.282-16.08-39.584-18.26-39.584zm356.054 0c-2.18 0-16.496 38.302-18.26 39.584-1.763 1.28-42.615 3.06-43.288 5.132-.674 2.073 31.332 27.523 32.005 29.596.674 2.073-10.26 41.475-8.496 42.756 1.764 1.281 35.86-21.291 38.04-21.291 2.179 0 36.273 22.572 38.036 21.29 1.764-1.28-9.17-40.682-8.496-42.755.674-2.073 32.68-27.523 32.006-29.596-.673-2.073-41.526-3.851-43.289-5.132-1.763-1.282-16.078-39.584-18.258-39.584zM256 369.932c-2.18 0-16.494 38.302-18.258 39.584-1.763 1.28-42.615 3.06-43.289 5.132-.673 2.073 31.33 27.525 32.004 29.598.674 2.073-10.26 41.475-8.496 42.756 1.763 1.281 35.86-21.293 38.039-21.293 2.18 0 36.276 22.574 38.04 21.293 1.762-1.281-9.17-40.683-8.497-42.756.673-2.073 32.677-27.525 32.004-29.598-.674-2.072-41.526-3.851-43.29-5.132-1.763-1.282-16.077-39.584-18.257-39.584z"/>
        </symbol>
        <symbol id="hat" viewBox="0 0 512 512"> 
            <path fill="currentColor" d="M313.203 25.94l-.133 24.67-18.12 16.743 24.67.132 16.743 18.12.133-24.67 18.12-16.743-24.67-.132-16.743-18.12zm91.58 50.12L385.47 91.41l-24.4-3.638 15.35 19.313-3.637 24.4 19.313-15.35 24.4 3.637-15.35-19.312 3.637-24.4zM39.87 80.206l-7.116 16.268 7.637 3.34 256 112 8.247 3.607-.1.227.61.266 7.214-16.492-8.243-3.607-44.113-19.298a102.607 43.83 0 0 1 52.088-6.13A102.607 43.83 0 0 1 414.7 214.22a102.607 43.83 0 0 1-102.608 43.83 102.607 43.83 0 0 1-102.608-43.83 102.607 43.83 0 0 1 8.262-17.162l-32.814-14.358c-12.552 5.49-22.514 11.71-29.192 17.96-7.646 7.16-10.802 13.782-10.802 20.134s3.156 12.975 10.802 20.133c7.646 7.158 19.596 14.274 34.81 20.3 30.43 12.047 73.71 19.835 121.542 19.835 47.832 0 91.11-7.788 121.54-19.836 15.215-6.025 27.165-13.14 34.81-20.3 7.647-7.157 10.804-13.78 10.804-20.132 0-6.352-3.157-12.975-10.803-20.133-7.646-7.16-19.596-14.275-34.81-20.3-30.43-12.048-73.71-19.836-121.54-19.836-26.422 0-51.44 2.386-73.683 6.543L48.117 83.813l-8.246-3.607zm204.903 4.31l.077 16.708-12.16 11.46 16.708-.076 11.46 12.16-.075-16.708L272.94 96.6l-16.706.075-11.46-12.16zM215.94 286.592c-.147 15.018-.44 29.74-1.038 44.308 67.544 29.705 126.598 29.746 194.383.113-.6-14.603-.894-29.364-1.043-44.42-27.33 7.925-60.396 12.467-96.15 12.467-35.756 0-68.82-4.54-96.15-12.467zm-2.004 63.467c-.555 8.977-1.254 17.925-2.13 26.877l.555.25c69.454 31.175 129.756 31.177 199.486-.006l.535-.238c-.874-8.92-1.572-17.838-2.126-26.785-66.975 27.646-129.55 27.616-196.318-.097zm200.552 45.595c-70.003 30.062-135.025 30.067-204.793.002-2.287 17.913-5.385 35.95-9.603 54.403 0 48 224 48 224 0-4.218-18.455-7.316-36.49-9.604-54.405z"/>
        </symbol>
        <symbol id="broom" viewBox="0 0 512 512">
            <path fill="currentColor" d="M445.1 22.93c-3.8.11-7.9 1.81-11.5 5.98C379.2 107.6 318.8 184.7 257.3 261.4c2.3.9 4.5 1.9 6.5 3.1 4.5 2.5 8.4 5.6 11.7 9C339 197.6 401.3 121.1 455.6 40.87c4.3-9.84 1.1-13.83-3.8-16.4-1.2-.65-2.6-1.13-4.1-1.37-.8-.13-1.7-.19-2.6-.17zM63.14 46.41c7.69 13.5 16.6 26.49 2.25 47.15 10.45-10.72 22.95-21.51 42.41-1.4-4.2-10.17-17.26-17.99-6.1-33.71-17.06 8.58-25.86 0-38.56-12.04zM267.2 94.02c-7.4 11.08-18.3 14.68-32.6 10.28 14.3 4.9 21.5 14.5 17.7 31.7 8.3-15.5 18.1-21.4 29.5-17.1-6.4-6.3-17.3-7-14.6-24.88zm181.5 46.78c-4 22.5-6 45.9-43.2 50.9 22.9.8 48.1 3.7 51.7 46.2 5-15-3-37.8 25.6-41.3-28.6-10.4-30.7-29.2-34.1-55.8zm-358.92 96c2.1 24.8-8.1 41.4-37.08 45.6 29.38 3.7 44.88 15.4 45.88 35.5 5.62-13.5-.7-30.8 28.72-36.8-22.1-5.2-34.82-19.7-37.52-44.3zm155.42 39.7l-13.4 16.6c1.5.8 3 1.7 4.5 2.6 4.4 2.8 8.7 6.1 12.3 9.8l15.2-18c-2.3-2.7-5.4-5.4-8.9-7.4-3-1.7-6.3-3-9.7-3.6zM208 304.1c-.8 0-1.5 0-2 .1-1 .2-1.5.5-1.7.7l-.5.6-.6.4c-46.9 36-117.06 70.7-173.97 104.3 14.77 4.4 29.83 9.7 44.58 15.6l36.39-30.5L88.37 432c17.03 7.6 33.43 16.2 48.03 25.6l27.3-43.8-12.2 54.2c9 6.7 17 13.8 23.8 21.1 27.2-59.1 63-100.2 67.7-154.8l.1-.6.1-.6c.6-2.3-.2-5.7-3.1-10-3-4.2-7.9-8.7-13.4-12.2-5.4-3.4-11.5-5.8-15.9-6.5-1.1-.2-2-.3-2.8-.3zm111.2.2c9.7 13.1 9.9 25.8-4.7 38.3 17.6-8.2 30.3-7.2 37.8 3.6-1.7-9.4-11.1-16.8 3-30.4-14 4.8-26.1 1.2-36.1-11.5zm56.7 90.8c11.7 17.4 20 29.5 4.1 47.8 23.4-10 29.5 7 41.2 13.8-19.9-26.8-2.6-39.3 14.1-49.5-30.5 12.8-44.4-.3-59.4-12.1z"/>
        </symbol>
        <symbol id="feather" viewBox="0 0 445.25 445.25">
            <path fill="currentColor" d="M441.709,50.352c-2.124-7.662-13.521-8.548-21.907-8.548c-15.321,0-37.926,3.511-62.018,9.631l-2.704,0.687l-11.158,35.549  l-8.598-29.896l-4.932,1.619c-11.359,3.731-22.034,7.805-31.729,12.109l-2.064,0.917l-7.975,25.407l-5.445-18.93l-5.535,3.189  c-4.95,2.852-9.484,5.783-13.477,8.71c-26.845,19.687-71.883,71.042-105.081,112.54c-13.543,16.929-28.216,36.083-40.636,53.521  c-0.468-1.63-0.979-3.236-1.57-4.789c-1.406-3.732-3.073-7.26-4.943-10.46c-1.868-3.2-3.865-6.139-5.936-8.733  c-2.063-2.6-4.154-4.915-6.181-6.918c-2.017-2.019-3.991-3.734-5.752-5.221c-1.784-1.481-3.374-2.721-4.728-3.737  c-1.335-1.023-2.454-1.814-3.203-2.376c-0.783-0.56-1.201-0.858-1.201-0.858s-0.063,0.513-0.113,1.477  c-0.029,0.486-0.047,1.082-0.024,1.764c0.005,0.692,0.034,1.491,0.107,2.356c0.236,3.502,1.057,8.342,2.266,13.688  c0.617,2.678,1.296,5.489,2.04,8.374c0.72,2.804,1.479,5.761,2.265,8.819c0.781,2.977,1.463,5.993,2.178,8.99  c0.714,3,1.281,6.006,1.842,8.993c0.543,2.988,0.964,5.964,1.348,8.922c0.299,2.958,0.646,5.901,0.792,8.81  c0.048,0.691,0.095,1.376,0.142,2.055c-0.794,1.34-1.534,2.628-2.235,3.879c-0.128-1.013-0.279-2.024-0.456-3.028  c-0.761-4.055-1.807-8.047-3.225-11.778c-1.406-3.732-3.073-7.26-4.943-10.46c-1.868-3.2-3.865-6.139-5.936-8.733  c-2.063-2.6-4.154-4.915-6.181-6.918c-2.017-2.019-3.991-3.734-5.752-5.221c-1.784-1.481-3.374-2.721-4.728-3.737  c-1.335-1.023-2.454-1.814-3.203-2.376c-0.783-0.56-1.201-0.858-1.201-0.858s-0.063,0.513-0.113,1.477  c-0.029,0.486-0.047,1.082-0.024,1.764c0.005,0.692,0.034,1.491,0.107,2.356c0.236,3.502,1.057,8.342,2.266,13.688  c0.617,2.678,1.296,5.489,2.04,8.374c0.72,2.804,1.479,5.761,2.265,8.819c0.781,2.977,1.463,5.993,2.178,8.99  c0.714,3,1.281,6.006,1.842,8.993c0.543,2.988,0.964,5.964,1.348,8.922c0.299,2.958,0.646,5.901,0.792,8.81  c0.051,0.732,0.101,1.458,0.15,2.177c0.009,0.72,0.042,1.441,0.076,2.158c0.097,1.438,0.074,2.852,0.123,4.258  c0.062,1.188,0.031,2.347,0.034,3.499L1.961,394.122c-2.535,2.536-2.067,4.958-1.563,6.176c0.792,1.913,2.658,3.148,4.754,3.148  c1.228,0,2.249-0.425,2.909-0.745l30.675-14.846c1.485-0.72,3.408-2.089,4.573-3.257l41.892-42.007  c0.466-0.004,0.931-0.012,1.408,0.003c1.362,0.027,2.734-0.04,4.143,0.034c1.406,0.048,2.82,0.026,4.258,0.123  c0.718,0.035,1.438,0.068,2.158,0.077c0.719,0.05,1.445,0.1,2.177,0.15c2.909,0.146,5.852,0.493,8.81,0.792  c2.958,0.384,5.935,0.805,8.922,1.348c2.987,0.561,5.993,1.129,8.993,1.842c2.997,0.715,6.013,1.397,8.99,2.178  c3.059,0.785,6.016,1.545,8.819,2.265c2.885,0.743,5.695,1.423,8.374,2.04c5.346,1.209,10.185,2.03,13.688,2.266  c0.865,0.072,1.664,0.102,2.356,0.107c0.682,0.024,1.278,0.005,1.764-0.024c0.965-0.05,1.477-0.113,1.477-0.113  s-0.299-0.418-0.858-1.201c-0.562-0.748-1.354-1.867-2.376-3.203c-1.016-1.354-2.256-2.944-3.737-4.728  c-1.487-1.761-3.202-3.735-5.221-5.752c-2.003-2.027-4.318-4.118-6.918-6.181c-2.594-2.071-5.532-4.068-8.733-5.936  c-3.2-1.87-6.728-3.538-10.46-4.943c-3.73-1.418-7.722-2.464-11.778-3.225c-3.443-0.609-6.951-0.902-10.426-0.96  c1.285-0.592,2.659-1.24,4.137-1.949c0.201,0.005,0.399-0.001,0.602,0.01c1.406,0.048,2.82,0.026,4.258,0.123  c0.718,0.035,1.438,0.068,2.158,0.077c0.719,0.05,1.445,0.1,2.177,0.15c2.909,0.146,5.852,0.493,8.81,0.792  c2.958,0.384,5.935,0.805,8.922,1.348c2.987,0.561,5.993,1.129,8.993,1.842c2.997,0.715,6.013,1.397,8.99,2.178  c3.059,0.785,6.016,1.545,8.819,2.265c2.885,0.743,5.695,1.423,8.374,2.04c5.346,1.209,10.185,2.03,13.688,2.266  c0.865,0.072,1.664,0.102,2.356,0.107c0.682,0.024,1.278,0.005,1.764-0.024c0.965-0.05,1.477-0.113,1.477-0.113  s-0.299-0.418-0.858-1.201c-0.562-0.748-1.354-1.867-2.376-3.203c-1.016-1.354-2.256-2.944-3.737-4.728  c-1.487-1.761-3.202-3.735-5.221-5.752c-2.003-2.027-4.318-4.118-6.918-6.181c-2.594-2.071-5.532-4.068-8.733-5.936  c-3.2-1.87-6.728-3.538-10.46-4.943c-0.588-0.224-1.193-0.422-1.793-0.627c6.178-2.739,12.94-5.642,20.37-8.695  c19.607-8.055,39.453-13.133,56.962-17.614c4.665-1.194,9.07-2.321,13.436-3.489l7.445-1.992l-15.487-19.105l40.726,12.839  l1.34-0.316c40.365-9.534,65.503-13.168,66.553-13.318c6.052-0.864,22.727-18.952,27.693-24.476l2.855-3.175l-22.607-27.888  l36.188,11.408l2.129-2.794c3.793-4.977,7.476-10.08,10.946-15.167l2.651-3.888l-27.278-21.133l38.476,2.888l1.552-2.808  C443.174,118.158,450.34,81.48,441.709,50.352z"/>
        </symbol>
        <symbol id="settings" viewBox="0 0 512 512">
            <path fill="currentColor" d="M380.006 47.875c-48.564.002-92.971 35.889-110.682 68.068l-12.379 23.383-13.224-22.918c-31.673-54.89-88.472-74.886-136.377-65.469-47.904 9.415-86.637 46.01-84.475 114.075 1.69 53.225 32.985 91.889 75.262 131.015a128.242 128.242 0 0 1 16.015-14.56l-17.332-30.096 28.569-15.727.092.159.252-.139 16.865 29.357c.523-.217 1.055-.417 1.582-.628a124.819 124.819 0 0 1 31.197-8.36V222.08h32.85v33.918a125.361 125.361 0 0 1 31.986 8.58l16.588-28.912 22.014 12.383 5.656-7.93a54.25 54.25 0 0 1-9.479-19.396l-27.172-2.963 3.266-33.172 25.836 2.54a54.43 54.43 0 0 1 13.797-20.235l-10.166-22.682 30.193-13.51 10.031 22.395a53.606 53.606 0 0 1 5.944-.381c6.468-.04 12.754 1.105 18.633 3.228l14.216-19.912 26.924 19.664-14.715 20.58a53.782 53.782 0 0 1 8.868 21.862l26.123 2.865-3.27 33.174-27.803-3.057a54.966 54.966 0 0 1-12.593 16.49l11.867 26.524-30.192 13.512-11.923-26.64a53.21 53.21 0 0 1-20.64-1.835l-17.196 23.56-19.397-14.177-7.127 12.326a127.814 127.814 0 0 1 23.906 23.904l30.098-17.332 15.725 28.569-.158.091.138.252-29.357 16.866c.218.523.418 1.055.629 1.582a124.818 124.818 0 0 1 8.36 31.197h23.218c18.074-15.828 36.451-30.563 53.695-45.088 51.649-43.98 95.683-90.716 94.447-154.988-1.976-63.356-41.62-104.098-88.183-115.745a95.72 95.72 0 0 0-21.002-2.312zM327.46 182.219c-14.248-.147-26.259 10.901-27.137 25.281-.905 14.844 10.398 27.604 25.242 28.51 14.846.907 27.607-10.38 28.512-25.225.905-14.843-10.377-27.603-25.223-28.51a28.317 28.317 0 0 0-1.394-.056zM191.92 340.344c-11.525 0-21.96 4.647-29.553 12.162 20.37 18.135 40.624 37.446 58.713 59.17 8.192-9.124 12.587-17.835 12.69-29.73-.645-16.83-9.866-31.296-25.875-38.45a41.895 41.895 0 0 0-15.975-3.152z"/>
        </symbol>
        <symbol id="pagoda" viewBox="0 0 512 512">
            <path fill="currentColor" d="M255.967 23.386c19.704 15.157 49.792 21.65 82.52 27.105 21.419 3.57 43.864 6.501 65.163 9.832-7.28 1.686-14.641 3.4-21.609 4.97-21.25 4.789-41 8.38-45.967 8.321H175.8l-.168.006c-4.61.172-24.44-3.34-45.662-8.181-7.035-1.605-14.48-3.364-21.842-5.09 21.346-3.342 43.848-6.279 65.32-9.858 32.727-5.454 62.815-11.948 82.52-27.105zm55 67.228v16h-110v-16zm3.394 34a24.977 24.977 0 0 0 4.563 4.28c3.799 2.763 8.317 4.922 13.701 7.076 10.768 4.307 24.987 8.332 41.158 12.375 18.612 4.653 39.434 9.269 60.069 13.865l-50.182 8.404H128.71l-50.54-8.424c20.606-4.59 41.396-9.2 59.98-13.845 16.172-4.043 30.39-8.068 41.159-12.375 5.384-2.154 9.902-4.313 13.7-7.076a24.977 24.977 0 0 0 4.563-4.28zm28.606 62v30h-46v-30zm-64 0v30h-46v-30zm-64 0v30h-46v-30zm131.123 48c1.246 1.65 2.68 3.113 4.156 4.422 3.592 3.184 8.04 6.026 13.383 8.965 10.686 5.877 24.947 11.954 41.178 18.041 20.082 7.531 43.024 14.894 65.33 21.42l-54.914 9.152H96.263l-54.533-9.133c22.327-6.53 45.294-13.9 65.397-21.439 16.23-6.087 30.492-12.164 41.178-18.041 5.343-2.939 9.79-5.781 13.382-8.965 1.477-1.309 2.91-2.772 4.157-4.422zm28.877 80v30h-238v-30zm3.123 48c1.246 1.65 2.68 3.113 4.156 4.422 3.592 3.184 8.04 6.026 13.383 8.965 10.686 5.877 24.947 11.954 41.178 18.041 20.102 7.539 43.07 14.909 65.396 21.44l-54.533 9.132H64.71l-54.913-9.152c22.305-6.526 45.247-13.889 65.33-21.42 16.23-6.087 30.492-12.164 41.178-18.041 5.343-2.939 9.79-5.781 13.382-8.965 1.477-1.309 2.91-2.772 4.157-4.422zm60.877 80v46h-142v-46zm-160 0v46h-46v-46zm-64 0v46h-142v-46z"/>
        </symbol>
        <symbol id="random" viewBox="0 0 512 512">
            <path fill="currentColor" d="M255.76 44.764c-6.176 0-12.353 1.384-17.137 4.152L85.87 137.276c-9.57 5.536-9.57 14.29 0 19.826l152.753 88.36c9.57 5.536 24.703 5.536 34.272 0l152.753-88.36c9.57-5.535 9.57-14.29 0-19.825l-152.753-88.36c-4.785-2.77-10.96-4.153-17.135-4.153zm1.86 12.423a31.953 18.96 0 0 1 21.194 5.536 31.953 18.96 0 0 1-45.187 26.812 31.953 18.96 0 0 1 23.992-32.347zm-119.173 70.188a31.953 18.96 0 0 1 .002 0 31.953 18.96 0 0 1 21.195 5.535 31.953 18.96 0 0 1-45.19 26.813 31.953 18.96 0 0 1 23.992-32.348zm237.903.26a31.953 18.96 0 0 1 .002 0 31.953 18.96 0 0 1 21.195 5.535 31.953 18.96 0 0 1-45.19 26.812 31.953 18.96 0 0 1 23.993-32.347zM75.67 173.84c-5.753-.155-9.664 4.336-9.664 12.28v157.696c0 11.052 7.57 24.163 17.14 29.69l146.93 84.848c9.57 5.526 17.14 1.156 17.14-9.895V290.76c0-11.052-7.57-24.16-17.14-29.688l-146.93-84.847c-2.69-1.555-5.225-2.327-7.476-2.387zm360.773.002c-2.25.06-4.783.83-7.474 2.385l-146.935 84.847c-9.57 5.527-17.14 18.638-17.14 29.69v157.7c0 11.05 7.57 15.418 17.14 9.89L428.97 373.51c9.57-5.527 17.137-18.636 17.137-29.688v-157.7c0-7.942-3.91-12.432-9.664-12.278zM89.297 195.77a31.236 18.008 58.094 0 1 33.818 41.183 31.236 18.008 58.094 1 1-45-25.98 31.236 18.008 58.094 0 1 11.182-15.203zm333.52 0A18.008 31.236 31.906 0 1 434 210.973a18.008 31.236 31.906 0 1-45 25.98 18.008 31.236 31.906 0 1 33.818-41.183zm-165.198 2.314a31.953 18.96 0 0 1 21.194 5.535 31.953 18.96 0 0 1-45.187 26.812 31.953 18.96 0 0 1 23.992-32.348zM89.296 256.77a31.236 18.008 58.094 0 1 33.818 41.183 31.236 18.008 58.094 1 1-45-25.98 31.236 18.008 58.094 0 1 11.182-15.202zm112 3.664a31.236 18.008 58.094 0 1 33.818 41.183 31.236 18.008 58.094 1 1-45-25.98 31.236 18.008 58.094 0 1 11.182-15.203zm109.52 0A18.008 31.236 31.906 0 1 322 275.637a18.008 31.236 31.906 0 1-45 25.98 18.008 31.236 31.906 0 1 33.818-41.183zM366.82 289.1a18.008 31.236 31.906 0 1 .002 0 18.008 31.236 31.906 0 1 11.18 15.203 18.008 31.236 31.906 0 1-45 25.98A18.008 31.236 31.906 0 1 366.82 289.1zM89.297 318.48a31.236 18.008 58.094 0 1 33.818 41.184 31.236 18.008 58.094 1 1-45-25.98 31.236 18.008 58.094 0 1 11.182-15.204zm333.52 0A18.008 31.236 31.906 0 1 434 333.684a18.008 31.236 31.906 0 1-45 25.98 18.008 31.236 31.906 0 1 33.818-41.184zm-221.52 2.954a31.236 18.008 58.094 0 1 33.818 41.183 31.236 18.008 58.094 1 1-45-25.98 31.236 18.008 58.094 0 1 11.182-15.203zm0 61.71a31.236 18.008 58.094 0 1 33.818 41.182 31.236 18.008 58.094 1 1-45-25.98 31.236 18.008 58.094 0 1 11.182-15.203zm109.52 0A18.008 31.236 31.906 0 1 322 398.345a18.008 31.236 31.906 0 1-45 25.98 18.008 31.236 31.906 0 1 33.818-41.183z"/>
        </symbol>
        <symbol id="deleteScroll" viewBox="0 0 512 512">
            <path fill="currentColor" d="M 103.432 17.844 c -1.118 0.005 -2.234 0.032 -3.348 0.08 c -2.547 0.11 -5.083 0.334 -7.604 0.678 c -20.167 2.747 -39.158 13.667 -52.324 33.67 c -24.613 37.4 2.194 98.025 56.625 98.025 c 0.536 0 1.058 -0.012 1.583 -0.022 v 0.704 h 60.565 c -10.758 31.994 -30.298 66.596 -52.448 101.43 c -2.162 3.4 -4.254 6.878 -6.29 10.406 l 34.878 35.733 l -56.263 9.423 c -32.728 85.966 -27.42 182.074 48.277 182.074 v -0.002 l 9.31 0.066 c 23.83 -0.57 46.732 -4.298 61.325 -12.887 c 4.174 -2.458 7.63 -5.237 10.467 -8.42 h -32.446 c -20.33 5.95 -40.8 -6.94 -47.396 -25.922 c -8.956 -25.77 7.52 -52.36 31.867 -60.452 c 5.803 -1.93 11.723 -2.834 17.565 -2.834 v -0.406 h 178.33 c -0.57 -44.403 16.35 -90.125 49.184 -126 l 30.711 -47.188 c -9.3333 8 -9 9 -49 25 c -14 5 -22 6 -71 0 c -20 -6 -38 -9 -57 -47 c -7 -14 -8 -14 -5 -68 C 272 37 222.11 35.29 149.34 28.496 c -14.888 -6.763 -30.547 -10.723 -45.908 -10.652 z m 0.464 18.703 c 13.137 0.043 27.407 3.804 41.247 10.63 l 0.033 -0.07 c 4.667 4.735 8.542 9.737 11.68 14.985 H 82.92 l 10.574 14.78 c 10.608 14.83 19.803 31.99 21.09 42.024 c 0.643 5.017 -0.11 7.167 -1.814 8.836 c -1.705 1.67 -6.228 3.875 -15.99 3.875 c -40.587 0 -56.878 -44.952 -41.012 -69.06 C 66.238 46.64 79.582 39.22 95.002 37.12 c 2.89 -0.395 5.863 -0.583 8.894 -0.573 z M 118.5 80.78 h 46.28 c 4.275 15.734 3.656 33.07 -0.544 51.51 H 131.52 c 1.9 -5.027 2.268 -10.574 1.6 -15.77 c -1.527 -11.913 -7.405 -24.065 -14.62 -35.74 z m 101.553 317.095 c 6.44 6.84 11.192 15.31 13.37 24.914 c 3.797 16.736 3.092 31.208 -1.767 43.204 c -4.526 11.175 -12.576 19.79 -22.29 26 h 237.19 c 14.448 0 24.887 -5.678 32.2 -14.318 c 7.312 -8.64 11.2 -20.514 10.705 -32.352 c -0.186 -4.473 -0.978 -8.913 -2.407 -13.18 l -69.91 -8.205 l 42.017 -20.528 c -8.32 -3.442 -18.64 -5.537 -31.375 -5.537 H 220.053 z m -42.668 0.506 c -1.152 -0.003 -2.306 0.048 -3.457 0.153 c -2.633 0.242 -5.256 0.775 -7.824 1.63 c -15.11 5.02 -25.338 21.54 -20.11 36.583 c 3.673 10.57 15.347 17.71 25.654 13.938 l 1.555 -0.57 h 43.354 c 0.946 -6.36 0.754 -13.882 -1.358 -23.192 c -3.71 -16.358 -20.543 -28.483 -37.815 -28.54 z"/>
            <path stroke="currentColor" stroke-width="2.5" stroke-linecap="round" stroke-linejoin="round" transform="scale(10 10) translate(24 0)" d="M7 7.00006L17 17.0001M7 17.0001L17 7.00006" />        
        </symbol>
        <symbol id="delete" viewBox="0 0 24 24">
            <path fill="currentColor" d="M22,5H17V2a1,1,0,0,0-1-1H8A1,1,0,0,0,7,2V5H2A1,1,0,0,0,2,7H3.117L5.008,22.124A1,1,0,0,0,6,23H18a1,1,0,0,0,.992-.876L20.883,7H22a1,1,0,0,0,0-2ZM9,3h6V5H9Zm8.117,18H6.883L5.133,7H18.867Z"/>
        </symbol>
    </defs>
    <view id="castle-view" viewBox="0 0 32 32"/>
    <view id="book-view" viewBox="50 0 64 64"/>
    <view id="crown-view" viewBox="0 50 64 64"/>
    <view id="flag-view" viewBox="50 50 50 50"/>
    <view id="click-view" viewBox="100 50 64 64"/>
    <use width="50" height="50" transform="translate(0 0)" href="#castle"/>
    <use width="50" height="50" transform="translate(0 50)" href="#book"/>
    <use width="50" height="50" transform="translate(0 100)" href="#crown"/>
    <use width="50" height="50" transform="translate(0 150)" href="#flag"/>
    <use width="50" height="50" transform="translate(50 0)" href="#click"/>
    <use width="50" height="50" transform="translate(50 50)" href="#closeCross"/>
    <use width="50" height="50" transform="translate(50 100)" href="#fairy"/>
    <use width="50" height="50" transform="translate(50 150)" href="#feathersCross"/>
    <use width="50" height="50" transform="translate(100 0)" href="#mushroom"/>
    <use width="50" height="50" transform="translate(100 50)" href="#sparkles"/>
    <use width="50" height="50" transform="translate(100 100)" href="#stars"/>
    <use width="50" height="50" transform="translate(100 150)" href="#hat"/>
    <use width="50" height="50" transform="translate(150 0)" href="#broom"/>
    <use width="50" height="50" transform="translate(150 50)" href="#feather"/>
    <use width="50" height="50" transform="translate(150 100)" href="#settings"/>
    <use width="50" height="50" transform="translate(150 150)" href="#pagoda"/>
    <use width="50" height="50" transform="translate(200 0)" href="#random"/>
    <use width="50" height="50" transform="translate(200 50)" href="#delete"/>
    <use width="50" height="50" transform="translate(200 100)" href="#deleteScroll"/>
</svg>