<svg class="del" xmlns="http://www.w3.org/2000/svg">
    <defs>
        <symbol id="castle" viewBox="0 0 32 32">
            <path  fill="currentColor" fill-rule="evenodd" 
                d="M21.5 1039.862v12.5h9v-12.5zm4.5 2.25c.828 0 1.5.704 1.5 1.574v1.426h-3v-1.426c0-.87.672-1.574 
                1.5-1.574zM16 1024.112l-5.107 6.5h10.214zM10.5 1031.612v2.25h1.75v6h-1v12.5H13v-3.467c0-1.675 
                1.343-3.033 3-3.033s3 1.358 3 3.033v3.467h1.75v-12.5h-1v-6h1.75v-2.25zm5.5 2c.828 0 1.5.704 1.5 
                1.574v1.426h-3v-1.426c0-.87.672-1.574 1.5-1.574zm0 5c.828 0 1.5.704 1.5 
                1.574v1.426h-3v-1.426c0-.87.672-1.574 1.5-1.574zM16 1020.362h4.5l-2 1.5 2 1.5H16zM1.5 
                1039.862v12.5h9v-12.5zm4.5 2.25c.828 0 1.5.704 1.5 1.574v1.426h-3v-1.426c0-.87.672-1.574 1.5-1.574z" 
                transform="translate(0 -1020.362)"/>
            <path  fill="currentColor" fill-rule="evenodd" 
                d="M.5 1034.612h2v.5a1.25 1.25 0 1 0 2.5 0v-.5h2v.5a1.25 1.25 0 1 0 2.5 0v-.5h2v4.5H.5zM20.5 
                1034.612h2v.5a1.25 1.25 0 1 0 2.5 0v-.5h2v.5a1.25 1.25 0 1 0 2.5 0v-.5h2v4.5h-11z" 
                transform="translate(0 -1020.362)"/>
        </symbol>
        <symbol id="book" viewBox="0 0 64 64">
            <path fill="currentColor" d="M52.5 5.5c.54999 0 1 .45001 1 
                1v10h2V6.5c0-1.65002-1.34998-3-3-3h-13.83997c.13.56.38995 1.28998.88995 2h12.95001zM53.5 
                49.5H21.5V5.5h11.95001c.5-.71002.76001-1.44.89001-2H15.5c-3.31 0-6 2.69-6 
                6v12.92999c1.70813-2.55402.20679-3.37329 2-4.64001v-2.28998h8v21H11.5v-1.28003c-1.77899-1.25458-.3056-2.11267-2-4.64001v24.92004c0 
                3.31 2.69 6 6 6H54.5c.46002 0 
                .85999-.31.97003-.76001.10999-.44-.09003-.91003-.5-1.12-3.25769-1.65149-3.25458-6.58948.00012-8.23999.32599-.18219.52026-.50781.52985-.88v-12h-2v11zm-1.66998 
                10H15.5c-2.20996 0-4-1.79004-4-4s1.79004-4 4-4H51.83002c-1.75769 2.23663-1.75763 5.76337 0 8z"/>
            <path fill="currentColor" d="M12.5 33.5s0-4.90137 5-7c-5-2.09863-5-7-5-7 0 0 0 4.90137-5 7 5 2.09863 5 7 5 7zM36.5 
                16.5s0-4.90137 5-7c-5-2.09863-5-7-5-7 0 0 0 4.90137-5 7 5 2.09863 5 7 5 7z"/>
            <path fill="currentColor" d="M49.5,16.5h2v-6c0-1.65002-1.34998-3-3-3h-6.57996c1.8573,.52246,2.18127,3.0589,.34991,
                3.84003-3.65997,1.53998-3.76996,5.02997-3.76996,5.17993-.10272,2.59338-3.91144,2.6037-4-.00006,
                0-.17993-.13-3.6499-3.76996-5.17993-1.82727-.77863-1.51099-3.31836,.34998-3.83997h-4.58002c-1.64996,0-3,
                1.34998-3,3V44.5c0,1.64996,1.35004,3,3,3,.09021-.04175,16.90582,.05396,16.98004-.02002,
                .01996-.09998-.04004-4.90997-4.98004-6.97998,5-2.10004,5-7,5-7,0,0,0,4.89996,5,7-4.94,2.07996-5,6.88-5,6.98999,
                .03003,.01001,.07001,.01001,.10999,.01001h4.89001c1.65002,0,3-1.35004,3-3v-6h-2c-3.31,0-6-2.69-6-6v-10c0-3.31,
                2.69-6,6-6Zm-15,17h-4c-1.31244-.02484-1.31445-1.97485,.00006-2-.00006,0,3.99994,0,3.99994,0,1.3125,.02484,
                1.31451,1.97479,0,2Zm3-5h-7c-1.31201-.02472-1.31482-1.97479,.00006-2-.00006,0,6.99994,0,6.99994,0,1.31152,
                .02454,1.31525,1.97473,0,2Zm3-5h-10c-1.31055-.02423-1.31604-1.97467,.00006-2-.00006,0,9.99994,0,9.99994,0,
                1.31061,.02423,1.31604,1.97461,0,2Z"/>
            <path fill="currentColor" d="M55.5,18.5h-6c-2.20557,0-4,1.79395-4,4v10c0,2.20605,1.79443,4,4,4h6c.55225,0,1-.44727,
                1-1V19.5c0-.55273-.44775-1-1-1Z"/>
        </symbol>
        <symbol id="crown" viewBox="0 0 64 64">
            <path fill="currentColor" d="M11.00042 19s0-4.90137 5-7c-5-2.09863-5-7-5-7 0 0 0 4.90137-5 7 5 2.09863 5 7 5 
                7zM52.00042 24s0-4.90137 5-7c-5-2.09863-5-7-5-7 0 0 0 4.90137-5 7 5 2.09863 5 7 5 7z"/>
            <path fill="currentColor" d="M56.45043,23.16998c-8.85718,6.00006-13.10919,3.11853-13.44995-4.1701,
                .02405-.80597-.98547-1.29926-1.61005-.78992-5.63702,4.68768-7.68683-1.71582-8.28998-6.32996,
                5.7301-1.38995,4.86182-9.76263-1.1001-9.88-5.96277,.11798-6.82916,8.49109-1.09991,9.88-.60748,
                4.62274-2.65021,11.0141-8.29004,6.32977-.62555-.50812-1.63354-.01666-1.60992,.79022-.34113,7.3028-4.60773,
                10.16113-13.45007,4.16986-.8241-.60571-1.97528,.47235-1.40991,1.34015-.00006,0,8.33997,13.89996,8.33997,
                13.89996-.88,.53003-1.48004,1.48999-1.48004,2.59003v1c0,1.29999,.84003,2.40997,2,2.82001v10.35999c-1.15997,
                .40997-2,1.52002-2,2.82001v1c0,1.64996,1.35004,3,3,3H48.00042c1.65002,0,3-1.35004,
                3-3v-1c0-1.29999-.83997-2.41003-2-2.82001v-10.35999c1.16003-.41003,2-1.52002,
                2-2.82001v-1c0-1.10004-.59998-2.06-1.47998-2.59003l8.33997-13.89996c.56195-.86743-.58142-1.94586-1.40997-1.34003Zm-29.27997,
                5.28003l4-6c.37-.56,1.28998-.56,1.65997,0l4,6c.22998,.32996,.22998,.76996,0,1.09998l-4,6c-.36206,.59119-1.29791,
                .59283-1.65997-.00006,0,.00006-4-5.99994-4-5.99994-.23004-.33002-.23004-.77002,0-1.09998Zm21.82996,30.54999c0,
                .54999-.45001,1-1,1H16.00042c-.54999,0-1-.45001-1-1v-1c0-.54999,.45001-1,1-1H48.00042c.54999,0,1,.45001,1,
                1v1Zm-26-9c0-.54999,.45001-1,1-1h1c.54999,0,1,.45001,1,1s-.45001,1-1,1h-1c-.54999,0-1-.45001-1-1Zm6,0c.10938-3.95459,
                5.89124-3.9538,6,.00006-.10938,3.95447-5.89117,3.95367-6-.00006Zm9,0c0-.54999,.45001-1,1-1h1c.54999,0,1,.45001,1,
                1s-.45001,1-1,1h-1c-.54999,0-1-.45001-1-1Zm11-8c0,.54999-.45001,1-1,1H16.00042c-.54999,0-1-.45001-1-1v-1c0-.54999,
                .45001-1,1-1H48.00042c.54999,0,1,.45001,1,1v1Z"/>
        </symbol>
        <symbol id="flag" viewBox="0 0 50 50">
            <path fill="currentColor" d="M46,3.7c-1.2,0-2.3,0.8-2.8,1.8H6.8C6.3,4.5,5.3,3.7,4,3.7c-1.7,0-3,1.4-3,3c0,
                1.7,1.3,3,3,3c1.2,0,2.3-0.8,2.8-1.8h8.8V10   h-3.9c-5.3,12.1,5.3,24.2,0,36.3c5.5-2.6,10.4-5.1,
                14.8-7.7c4.5,2.6,8.5,5.1,11.9,7.7c5.3-12.1-5.3-24.2,0-36.3h-3.9V7.9h8.8   C43.7,9,44.8,9.7,46,
                9.7c1.7,0,3-1.3,3-3C49,5.1,47.7,3.7,46,3.7z M17.2,7.9h6.9V10h-6.9V7.9z M29.3,32.9L25,30.7l-4.3,
                2.2l0.8-4.7   l-3.4-3.3l4.8-0.7l2.1-4.3l2.1,4.3l4.8,0.7l-3.4,3.3L29.3,32.9z M32.8,10h-6.9V7.9h6.9V10z"/>
        </symbol>
        <symbol id="click" viewBox="0 0 64 64">
            <path fill="currentColor" d="M52 6h6v6a1 1 0 0 0 2 0V5a1 1 0 0 0-1-1h-7a1 1 0 0 0 0 2zm-32 6V6h6a1 1 0 0 0 
                0-2h-7a1 1 0 0 0-1 1v7a1 1 0 0 0 2 0zm14-6h10a1 1 0 0 0 0-2H34a1 1 0 0 0 0 2zm24 14v10a1 1 0 0 0 2 
                0V20a1 1 0 0 0-2 0zM44 44h-9.999a1 1 0 0 0 0 2h10a1 1 0 0 0 0-2zM18 20v10a1 1 0 0 0 2 0V20a1 1 0 0 0-2 
                0zm40 18v6h-6a1 1 0 0 0 0 2h7a1 1 0 0 0 1-1v-7a1 1 0 0 0-2 0z"/>
            <path fill="currentColor" d="M49.401 15.922a1.001 1.001 0 0 0-1.268-1.268l-6.42 2.177-5.432-4.054a1 1 0 0 
                0-1.598.814l.086 6.778-5.535 3.914a1.002 1.002 0 0 0 .28 1.772l6.475 2.012L38 34.54a1.001 1.001 0 0 0 
                1.772.28l3.913-5.534 6.778.086a1 1 0 0 0 .815-1.598l-4.054-5.433 2.176-6.42z"/>
            <path fill="currentColor" d="m35.384 32.86-.994-3.196-3.278-1.018L5.294 54.465a1 1 0 0 0 0 1.414l2.828 
                2.828a1 1 0 0 0 1.414 0zm-4.634-1.023-4.95 4.95a1 1 0 0 0 1.414 1.414l4.95-4.95a1 1 0 0 0-1.414-1.414z"/>
            <circle fill="currentColor" cx="20.231" cy="39.255" r="1" transform="rotate(-45)"/>
            <circle fill="currentColor" cx="9.231" cy="36.255" r="1" transform="rotate(-45)"/>
            <circle fill="currentColor" cx="9.231" cy="54.255" r="1" transform="rotate(-45)"/>
            <circle fill="currentColor" cx="20.231" cy="51.255" r="1" transform="rotate(-45)"/>
        </symbol>
        <symbol id="closeCross" viewBox="0 0 64 64"> 
            <path fill="currentColor" d="M42.76,32,59.54,48.79a7.54,7.54,0,0,1,0,10.65l-.11.11a7.54,7.54,0,0,1-10.65,
                0L32,42.76,15.21,59.54a7.54,7.54,0,0,1-10.65,0l-.11-.11a7.54,7.54,0,0,1,0-10.65L21.24,32,4.46,
                15.21a7.54,7.54,0,0,1,0-10.65l.11-.11a7.54,7.54,0,0,1,10.65,0L32,21.24,48.79,4.46a7.54,7.54,0,0,1,
                10.65,0l.11.11a7.54,7.54,0,0,1,0,10.65Z"/>
        </symbol>
        <symbol id="fairy" viewBox="0 0 50 50">
            <path fill="currentColor" d="M31.9725,35.0265c0,0,0.731,3.6334-0.086,5.0739c0,0-0.3655,1.032-2.9024,
                0.903c0,0-3.0007,3.3389-5.7302,4.9415   c0,0-1.4023,1.0267-2.0784,1.2771c0,0,0.8013,1.3522-0.9265,
                1.7779c0,0-0.8264,0.025-1.1269-0.8514c0,0-0.6511,0.9516-0.6511-0.626   c0,0,0.7012-1.2521,
                1.1018-1.2771c0,0,0.9015-0.7763,1.0016-1.0267c0,0,0.601-1.3272,1.3773-0.3005c0,0,0.3255,0.1753,
                0.601-0.0501   c0,0,0.9766-0.7262,1.1018-1.1519c0,0,1.4273-2.7295,1.853-3.1051c0,
                0-2.9799-0.8514-4.3321-1.0517   c0,0-0.0501,1.4273-1.6527,0.9015c0,0-0.9766-0.8013,0.0501-1.853c0,
                0-0.5259-0.5259-0.1502-0.6511   c0,0,1.7529,0.0751,2.1786-0.0751c0,0,1.4023-0.4758,1.7028,
                0.0751c0,0,0,0.5509-0.1502,0.5509c0,0,0.1252,0.3506,0.4507,0.3506   c0,0,0.8013,0.1753,1.3522,
                0.025c0,0,2.2537-0.5509,2.4039-0.5259c0,0,0.601-2.3288,0.5509-2.7545c0,0-1.4524-1.853-1.5275-2.7044   
                c0,0-1.2771,0.5759-2.0033-0.025c0,0,1.0267-0.601,1.2771-1.7278c0,0,0.9015-2.9298,4.8079-3.3806c0,0,
                0.3506-0.7512,0.4257-0.7512   c0,0-0.025-1.3021-0.626-2.2787c0,0-1.0768,1.7278-1.2771,1.7278c0,
                0-0.1502,1.202-4.0817,2.3539c0,0-0.601,0.1252-1.5275-0.626   c0,0-1.3021,0.0751-1.4023-0.2755c0,
                0,0.9516-0.2254,1.1519-0.1002c0,0-0.8079-0.4629-1.0947-0.4798   c0,0-0.8434-0.506-0.4723-0.6916c0,
                0,0.5229,0.253,1.2482,0.2193c0,0-0.8265-0.2868-0.8097-0.7253c0,0,0.7759,0.388,1.0964,0.3711   
                c0,0,0.8603,0.0169,1.9567,1.2482c0,0,0.5229-0.1181,0.7253-0.4048c0,0,0.9277-1.0964,1.1133-1.1133   
                c0.1855-0.0169-1.3983-0.4506-1.5034-1.6861c0,0-6.0586,0.1193-11.8342-6.7623c0,0-2.4577-3.154-5.6527-4.3829   
                c0,0,3.4817-3.236,12.5342,2.6215c0,0,9.0115,5.8165,9.2983,5.9394c0,0,0.4932-0.2994,0.7952-0.5409   
                c0,0,0.0805-0.9259-0.3422-1.3889c0,0-0.4831-0.4227-0.5837-0.4227c0,0-3.2408-0.3825-3.4622-4.0057   
                c0,0-0.1409-0.3422-0.1208-0.5032c0,0-1.2681,1.2883-2.4155-0.6039c0,0-0.9461-2.5966,1.248-3.5628   
                c0,0-1.8316-8.8176-0.2595-9.9406c0,0,0.025,1.4723,0.524,2.171c0,0,4.0176,8.0851,4.2921,9.4575c0,0,
                1.597-1.6969,2.5702-1.647   c0,0-0.025,0.1747-0.1996,0.2495c0,0,2.2326-0.137,2.8254,0.9879c0,
                0-0.2888-0.0608-0.304,0.1064c0,0,1.0337,0.9729,0.1672,2.4019   c0,0-0.0912-0.152-0.0608-0.228c0,
                0-0.2888,0.9577-0.5625,1.0489c0,0-0.5929-1.0033-0.7145-1.0641c0,0,0.1368,1.0185-0.0304,1.1401   
                c0,0,0.1216,0.1824,0.3192,0.228c0,0-0.1824,0.1824-0.2736,0.1824c0,0,0.076,0.6081,0.2736,0.6689c0,
                0,0.9729,1.0489,0.0456,1.9915   c0,0-0.5017,1.4594-1.4138,1.4442c0,0,0.0152,0.5321,0.3192,0.6385c0,
                0,0.4498,0.1101,0.893-0.0092   c0,0,0.6306-0.1704,1.1249,0.4943c0,0,0.9715,1.4658,2.5907,1.8748c0,
                0,1.1078-1.6703,1.6021-2.4543   c0,0,0.1513-1.0527,1.4614-1.2649c0,0,0.4616-0.2121,0.6238-0.5615c0,
                0,0.2371,0.0374,0.0499,0.4741   c0,0-0.2246,0.262-0.3244,0.2994c0,0,0.3493-0.1372,0.4866-0.0499c0,
                0,0.5615-0.3743,0.7112-0.549c0,0-0.0998-0.5365,0.3119-0.4616   c0,0-0.1123-0.3369,0.1747-0.2246c0,
                0,0.1123,0.9732-0.1747,1.0356c0,0-0.0499,0.4741-0.3494,0.5989   c0,0-0.2371,0.7736-0.8359,0.8359c0,
                0-1.1728,0.0374-1.3225,0.1497c0,0-0.6623,1.5873-0.6487,2.27c0,0-0.3277,1.9251-1.3107,1.9251   
                c0,0-1.6247-0.3413-2.1299-0.6827c-0.4801,1.7654-1.0101,3.1514-2.3986,4.6342c0,0,0,2.3051,0.0779,2.7724   
                c0,0-0.3115,1.4952-0.4673,1.5731c0,0-0.0156,0.9189,0.0623,0.9812c0,0,0.2648,0.5295,0.1713,0.6697   
                C32.7506,35.1086,32.2847,35.2248,31.9725,35.0265z"/>
        </symbol>
        <symbol id="feathersCross" viewBox="0 0 512 512">
            <path fill="currentColor" d="M58.31 24.814L44.187 90.339 27.05 50.894c-3.463 13.536-3.63 28.752-2.328 42.395 7.427 74.81 70.83 162.556 154.83 236.173 15.377-15.942 30.388-32.237 44.783-48.732 6.82-7.815 13.5-15.678 20.018-23.568-59.05-73.228-104.055-148.414-115.58-214.524-4.027-11.108-15.646-14.908-25.596-17.36l11.53 19.868-31.305-22.445c-8.441-.189-17.618.604-25.092 2.113zm370.083-2.107c-2.92 13.842-5.738 27.685-15.046 41.527-.164-13.921-2.092-26.96-7.856-38.082-8.462 2.643-20.526 7.494-22.291 16.486-13.393 76.824-71.978 165.906-145.301 249.926C172.826 367.13 95.984 437.277 27.608 489.355c80.91-12.026 184.614-63.92 272.556-133.086 27.835-21.892 54.063-45.515 77.6-70.025-6.727 1.124-13.617 1.631-20.291 1.77l58.447-45.325c39.982-50.437 66.671-102.466 71.33-149.4.915-9.209 1.368-22.729-.642-34.805-2.01-12.077-6.486-21.931-13.252-26.371-8.677-5.693-24.034-9.17-39.578-9.45a98.183 98.183 0 0 0-5.385.044zM331.34 354.146a859.987 859.987 0 0 1-20.049 16.271 870.556 870.556 0 0 1-39.12 29.034c22.924 14.884 46.287 28.409 69.511 40.25a13010.71 13010.71 0 0 1 57.932 7.04c-5.536 5.312-11.915 8.882-18.942 11.292 36.526 15.689 71.873 26.592 103.694 31.322-49.14-37.427-102.652-84.185-153.026-135.209z"/>
        </symbol>
        <symbol id="mushroom" viewBox="0 0 512 512">
            <path fill="currentColor" d="M278.184 23.85c-7.308-.07-14.842 1.623-22.54 4.87-.622 8.336.112 17.717 2.513 26.449 3.557 12.938 10.511 24.183 20.761 30.386 9.331 5.647 21.937 7.9 40.162 2.512-3.313-7.037-6.408-13.858-9.328-20.219-6.409-13.962-12.187-25.902-17.685-33.611-5.498-7.71-9.568-10.346-13.883-10.387zm-40.717 15.153c-8.23 5.77-16.587 13.054-25.008 21.658-10.353 10.577-20.708 22.998-30.988 36.525 16.667 7.99 28.338 23.429 28.338 41.867 0 27.1-25.197 47.739-54.44 47.739-12.098 0-23.497-3.54-32.712-9.602-16.768 18.15-36.758 36.094-54.217 53.512-13.134 13.102-24.787 25.84-32.36 37.318-7.572 11.478-10.653 21.173-9.338 28.652 1.55 8.815 8.246 17.272 21.018 25.211 12.772 7.94 31.127 14.821 53.03 20.15 4.862 1.184 9.924 2.281 15.115 3.317a556.512 556.512 0 0 1 4.689-11.717c-12.85-3.626-23.03-9.762-29.27-18.644-4.816-6.856-6.363-15.362-4.677-23.826-43.658-38.757 37.63-90.032 56.652-49.82 9.162-3.47 18.94-6.288 29.113-8.583 24.4-5.502 51.298-7.937 78.17-8.312a566.841 566.841 0 0 1 26.77.273c35.431 1.182 69.269 5.454 95.445 10.748 13.088 2.648 24.24 5.537 32.916 8.54 4.338 1.5 8.053 3.018 11.23 4.693 3.179 1.674 5.908 3.215 8.356 6.615 21.523 29.898 4.995 67.307-23.06 75.918a228.827 228.827 0 0 1 3.4 9.521c18.19-4.32 37.743-9.87 53.717-17.548-7.212-8.34-11.586-19.363-11.586-31.303 0-15.037 6.94-28.617 17.748-37.217-5.637-6.602-12.25-13.356-19.64-20.24-14.225-13.25-30.732-26.752-46.743-40.766-22.075 26.075-61.685 27.981-79.691 13.694-22.675-19.321-22.258-55.489-1.528-80.436a67.633 67.633 0 0 1 14.264-12.89 380.021 380.021 0 0 1-5.086-9.618c-23.298 7.491-42.938 5.332-57.496-3.478-15.3-9.26-24.362-24.882-28.797-41.012a96.792 96.792 0 0 1-3.334-20.94zM170.541 112c-13.552 18.032-23.067 35.542-35.95 51.492 5.8 3.312 12.902 5.299 20.778 5.299 20.95 0 36.44-14.05 36.44-29.739 0-11.573-8.435-22.245-21.268-27.052zm170.791 17.59c-23.324 15.8-27.303 52.993-10.384 63.94 20.414 13.21 44.116 1.848 54.773-11.886-17.284-15.544-32.832-33.808-44.389-52.055zM94.392 274.71c8.271-10.582 19.145-18.998 31.813-25.7-9.8-22.51-49.318 12.963-31.812 25.7zm161.12-32.291c-8.38.042-17.535.34-25.025.763l3.232 25.254c7.108-.796 14.01-1.646 20.168-2.119zm16.5 22.65c5.992-.305 11.94-.5 17.793-.568l5.38-20.881c-7.841-.486-18.388-.799-21.88-.894zm-59.492-20.475c-7.897.803-15.634 1.843-23.121 3.141l9.22 26.344c5.561-1.121 11.354-2.15 17.278-3.1zm100.88.473l-5.066 19.656c7.178.273 14.089.779 20.635 1.53l11.662-17.989a598.712 598.712 0 0 0-27.23-3.197zm46.67 6.3l-11.767 18.151c5.595 1.428 10.53 2.875 15.324 4.953l19.69-18.209c-8.179-1.988-15.6-3.515-23.246-4.894zm-188.44.079a195.38 195.38 0 0 0-16.366 4.81l12.025 25.77a253.462 253.462 0 0 1 13.67-3.922zM403.3 262.3l-24.56 22.711c1.602 1.897 2.717 3.857 3.868 5.83l34.478-10.002c-1.94-10.183-5.378-15.24-13.787-18.539zm-264.722.768c-6.196 3.002-11.823 6.348-16.785 10.043l20.645 20.012c2.42-1.656 5.142-3.081 8.062-4.508zm337.692 5.96c-6.356 5.19-10.5 13.394-10.5 22.876 0 8.835 3.6 16.56 9.232 21.771 6.923-5.51 10.087-10.786 10.453-15.406.73-9.19-2.688-18.982-9.185-29.24zm-325.932 41.26c-30.59 68.297-41.478 96.049-28.799 155.995 3.377 15.964 100.92 23.155 152.487 21.68-1.331-11.917-2.927-31.423-2.045-51.286.708-15.96 2.876-32.22 8.812-45.73 5.937-13.51 17.363-24.953 33.442-25.662 16.577-.731 29.82 8.628 38.187 20.945 8.368 12.317 13.195 27.723 16.38 42.914 3.884 18.54 5.155 36.888 5.565 48.442 5.53-1.792 12.394-3.46 16.22-7.112 14.538-62.25 11.72-111.89-24.772-172.691-11.928-21.932-204.143-16.48-215.477 12.506zm-41.57-24.734c-4.67 7.298-6.647 13.299-2.715 19.086 3.169 4.51 10.563 9.343 21.705 12.197a1541.54 1541.54 0 0 1 3.983-9.013zm304.664 15.09l-21.95 6.367c1.271 2.506 2.474 5 3.64 7.489 7.459-1.639 14.22-6.793 18.31-13.856zM246.25 317.061c-6.284 29.944-9.3 55.793-7.916 83.795-30.594 3.96-65.724 3.13-90.535-2.533 3.118-27.371 8.504-58.314 18.649-78.861 29.318-5.2 52.538-8.855 79.802-2.4zm-37.008 13.844a360.228 360.228 0 0 0-3.439 17.506l15.984.289c.719-5.88 1.618-11.723 2.754-17.42-5.13-.515-10.369-.508-15.299-.375zm-18.716 1.48c-4.111.557-8.72-.246-12.028.583-1.742 4.044-2.443 10.062-3.691 14.882l12.799.23a368.846 368.846 0 0 1 2.92-15.695zm-19.416 33.4c-1.042 6.164-1.953 12.435-2.858 18.534 4.913.794 10.118 1.347 15.44 1.685.281-6.663.771-13.318 1.486-19.964zm32.142.583a291.763 291.763 0 0 0-1.556 19.976c6.24-.14 12.382-.53 18.138-1.162-.094-6.014.036-12.228.373-18.508zm111.776 16.902c-22.102 4.045-24.23 37.056-25.065 54.207-.865 19.481.862 38.912 2.145 50.002 22.329-1.37 44.217-2.54 64.351-6.006-.26-10.359-1.283-29.588-5.275-48.635-4.537-19.923-14.8-49.702-36.156-49.568zm24.377 45.631l2.103 17.877-17.902 2.105-2.104-17.875z"/>
        </symbol>
        <symbol id="sparkles" viewBox="0 0 512 512">
            <path fill="currentColor" d="M237.4 20.73c-6.1 42.1-26.8 64.2-63.9 64 31.6 4.5 63.8 8 63.9 64.07-.6-46.1 24.5-63.07 64.1-64.07-38-1.5-64.9-16.3-64.1-64zm127.8 11.58c-9.1 14.25-20.8 21.29-38.9 10.28 14.9 11.79 18.6 24.76 10.2 38.97 8.9-11.18 17.5-22.73 39-10.27-17.8-10.06-18.8-23.57-10.3-38.98zM59.68 41.69c-2.7 18.8-12 28.6-28.5 28.5 14.1 2 28.4 3.6 28.5 28.52-.3-20.5 10.9-28.12 28.5-28.52-16.9-.7-28.9-7.3-28.5-28.5zM431 66.28c-2.7 18.8-12 28.6-28.5 28.5 14.1 2 28.4 3.6 28.5 28.52-.3-20.5 10.9-28.12 28.5-28.52-16.9-.7-28.9-7.3-28.5-28.5zM120.3 116.4c-15.8 53.7-47.76 48-79.35 43.4C76.6 170 90.3 197.1 84.28 239.2c12.66-46 42.62-52.6 79.42-43.4-37.6-12.1-56.9-35.4-43.4-79.4zm187 5c-8.8 61.6-39.3 94-93.6 93.7 46.2 6.5 93.6 11.7 93.6 93.7-.8-67.3 35.9-92.2 93.8-93.7-55.5-2.2-94.9-23.9-93.8-93.7zm136.8 38.3c-13.1 21.6-29.5 28.8-49.7 20.1 16.3 9.7 33 19.1 20.1 49.6 10.3-25.2 27.9-28.7 49.7-20-20.3-9.7-31.6-23.9-20.1-49.7zM50.7 243.2c9.16 16.7 7.63 30.1-5.61 40 12.46-6.9 24.85-14.3 39.91 5.6-12.57-16.2-8.2-29 5.61-40-13.92 9.7-27.47 11.6-39.91-5.6zm137.2.3c11.4 26.8-.5 41.3-21.7 50.9 22.7-8.5 40.8-4.5 50.9 21.7-12.7-31.8 4.8-41.2 21.7-50.9-21 8.5-37.8.9-50.9-21.7zm228 12.6c-26.6 64.7-68.7 91.7-127.8 76.4 48.6 19.8 98.8 38.5 76.4 127.9 17.5-73.7 64.4-90.7 127.9-76.5-59.9-17.5-96.9-52-76.5-127.8zM99.94 295.5c15.66 57.8.86 98.1-47.32 118.5 43.46-11.8 87.38-25.2 118.68 47.4-26.4-59.3-3.4-95.4 47.3-118.8-50 19.2-93.1 15-118.66-47.1zm169.36 61c-21.8 20.6-43 23.6-63.2 7.3 15.5 16.3 31.6 32.4 7.2 63.3 19.8-25.6 41.2-24.1 63.3-7.3-20.2-17.4-28.6-37.5-7.3-63.3zM443.2 404c-2.7 18.8-12 28.6-28.5 28.5 14.1 2 28.4 3.6 28.5 28.5-.3-20.5 10.9-28.1 28.5-28.5-16.9-.7-28.9-7.3-28.5-28.5zm-169.7 36c-2.7 18.8-12 28.6-28.5 28.5 14.1 2 28.4 3.6 28.5 28.5-.3-20.5 10.9-28.1 28.5-28.5-16.9-.7-28.9-7.3-28.5-28.5z"/>
        </symbol>
        <symbol id="stars" viewBox="0 0 512 512">
            <path fill="currentColor" d="M143.627 36.361c-2.18 0-16.495 38.303-18.258 39.584-1.763 1.281-42.615 3.06-43.289 5.133-.673 2.073 31.33 27.523 32.004 29.596.674 2.073-10.26 41.475-8.496 42.756 1.763 1.28 35.86-21.291 38.039-21.291 2.18 0 36.276 22.572 38.039 21.29 1.763-1.28-9.17-40.682-8.496-42.755.673-2.073 32.677-27.523 32.004-29.596-.674-2.073-41.526-3.852-43.29-5.133-1.763-1.28-16.077-39.584-18.257-39.584zm224.746 0c-2.18 0-16.494 38.303-18.258 39.584-1.763 1.281-42.615 3.06-43.289 5.133-.673 2.073 31.33 27.523 32.004 29.596.674 2.073-10.26 41.475-8.496 42.756 1.763 1.28 35.86-21.291 38.039-21.291 2.18 0 36.276 22.572 38.04 21.29 1.762-1.28-9.17-40.682-8.497-42.755.674-2.073 32.677-27.523 32.004-29.596-.674-2.073-41.526-3.852-43.29-5.133-1.762-1.28-16.077-39.584-18.257-39.584zM256 39.883c-7.12 0-53.884 125.123-59.645 129.308-5.76 4.185-139.211 9.996-141.412 16.768-2.2 6.772 102.349 89.912 104.55 96.684 2.2 6.771-33.513 135.486-27.753 139.671C137.5 426.5 248.88 352.76 256 352.76c7.12 0 118.5 73.74 124.26 69.554 5.76-4.185-29.952-132.9-27.752-139.671 2.2-6.772 106.749-89.912 104.549-96.684-2.2-6.772-135.652-12.583-141.412-16.768-5.76-4.185-52.525-129.308-59.645-129.308zM77.973 243.102c-2.18 0-16.495 38.302-18.258 39.584-1.763 1.28-42.616 3.06-43.29 5.132-.673 2.073 31.333 27.523 32.007 29.596.673 2.073-10.26 41.475-8.496 42.756 1.763 1.281 35.857-21.291 38.037-21.291 2.18 0 36.275 22.572 38.039 21.29 1.763-1.28-9.17-40.682-8.496-42.755.673-2.073 32.679-27.523 32.005-29.596-.673-2.073-41.525-3.851-43.289-5.132-1.763-1.282-16.08-39.584-18.26-39.584zm356.054 0c-2.18 0-16.496 38.302-18.26 39.584-1.763 1.28-42.615 3.06-43.288 5.132-.674 2.073 31.332 27.523 32.005 29.596.674 2.073-10.26 41.475-8.496 42.756 1.764 1.281 35.86-21.291 38.04-21.291 2.179 0 36.273 22.572 38.036 21.29 1.764-1.28-9.17-40.682-8.496-42.755.674-2.073 32.68-27.523 32.006-29.596-.673-2.073-41.526-3.851-43.289-5.132-1.763-1.282-16.078-39.584-18.258-39.584zM256 369.932c-2.18 0-16.494 38.302-18.258 39.584-1.763 1.28-42.615 3.06-43.289 5.132-.673 2.073 31.33 27.525 32.004 29.598.674 2.073-10.26 41.475-8.496 42.756 1.763 1.281 35.86-21.293 38.039-21.293 2.18 0 36.276 22.574 38.04 21.293 1.762-1.281-9.17-40.683-8.497-42.756.673-2.073 32.677-27.525 32.004-29.598-.674-2.072-41.526-3.851-43.29-5.132-1.763-1.282-16.077-39.584-18.257-39.584z"/>
        </symbol>
    </defs>
    <view id="castle-view" viewBox="0 0 32 32"/>
    <view id="book-view" viewBox="50 0 64 64"/>
    <view id="crown-view" viewBox="0 50 64 64"/>
    <view id="flag-view" viewBox="50 50 50 50"/>
    <view id="click-view" viewBox="100 50 64 64"/>
    <use width="50" height="50" transform="translate(0 0)" href="#castle"/>
    <use width="50" height="50" transform="translate(50 0)" href="#book"/>
    <use width="50" height="50" transform="translate(0 50)" href="#crown"/>
    <use width="50" height="50" transform="translate(50 50)" href="#flag"/>
    <use width="50" height="50" transform="translate(100 50)" href="#click"/>
    <use width="50" height="50" transform="translate(100 100)" href="#closeCross"/>
    <use width="50" height="50" transform="translate(50 100)" href="#fairy"/>
    <use width="50" height="50" transform="translate(0 100)" href="#feathersCross"/>
    <use width="50" height="50" transform="translate(100 0)" href="#mushroom"/>
    <use width="50" height="50" transform="translate(0 150)" href="#sparkles"/>
    <use width="50" height="50" transform="translate(50 150)" href="#stars"/>
</svg>