<svg class="del" xmlns="http://www.w3.org/2000/svg">
    <defs>
        <symbol id="closeCross" viewBox="0 0 64 64"> 
            <path fill="currentColor" d="M42.76,32,59.54,48.79a7.54,7.54,0,0,1,0,10.65l-.11.11a7.54,7.54,0,0,1-10.65,
                0L32,42.76,15.21,59.54a7.54,7.54,0,0,1-10.65,0l-.11-.11a7.54,7.54,0,0,1,0-10.65L21.24,32,4.46,
                15.21a7.54,7.54,0,0,1,0-10.65l.11-.11a7.54,7.54,0,0,1,10.65,0L32,21.24,48.79,4.46a7.54,7.54,0,0,1,
                10.65,0l.11.11a7.54,7.54,0,0,1,0,10.65Z"/>
        </symbol>
        <symbol id="fairy" viewBox="0 0 50 50">
            <path fill="currentColor" d="M31.9725,35.0265c0,0,0.731,3.6334-0.086,5.0739c0,0-0.3655,1.032-2.9024,
                0.903c0,0-3.0007,3.3389-5.7302,4.9415   c0,0-1.4023,1.0267-2.0784,1.2771c0,0,0.8013,1.3522-0.9265,
                1.7779c0,0-0.8264,0.025-1.1269-0.8514c0,0-0.6511,0.9516-0.6511-0.626   c0,0,0.7012-1.2521,
                1.1018-1.2771c0,0,0.9015-0.7763,1.0016-1.0267c0,0,0.601-1.3272,1.3773-0.3005c0,0,0.3255,0.1753,
                0.601-0.0501   c0,0,0.9766-0.7262,1.1018-1.1519c0,0,1.4273-2.7295,1.853-3.1051c0,
                0-2.9799-0.8514-4.3321-1.0517   c0,0-0.0501,1.4273-1.6527,0.9015c0,0-0.9766-0.8013,0.0501-1.853c0,
                0-0.5259-0.5259-0.1502-0.6511   c0,0,1.7529,0.0751,2.1786-0.0751c0,0,1.4023-0.4758,1.7028,
                0.0751c0,0,0,0.5509-0.1502,0.5509c0,0,0.1252,0.3506,0.4507,0.3506   c0,0,0.8013,0.1753,1.3522,
                0.025c0,0,2.2537-0.5509,2.4039-0.5259c0,0,0.601-2.3288,0.5509-2.7545c0,0-1.4524-1.853-1.5275-2.7044   
                c0,0-1.2771,0.5759-2.0033-0.025c0,0,1.0267-0.601,1.2771-1.7278c0,0,0.9015-2.9298,4.8079-3.3806c0,0,
                0.3506-0.7512,0.4257-0.7512   c0,0-0.025-1.3021-0.626-2.2787c0,0-1.0768,1.7278-1.2771,1.7278c0,
                0-0.1502,1.202-4.0817,2.3539c0,0-0.601,0.1252-1.5275-0.626   c0,0-1.3021,0.0751-1.4023-0.2755c0,
                0,0.9516-0.2254,1.1519-0.1002c0,0-0.8079-0.4629-1.0947-0.4798   c0,0-0.8434-0.506-0.4723-0.6916c0,
                0,0.5229,0.253,1.2482,0.2193c0,0-0.8265-0.2868-0.8097-0.7253c0,0,0.7759,0.388,1.0964,0.3711   
                c0,0,0.8603,0.0169,1.9567,1.2482c0,0,0.5229-0.1181,0.7253-0.4048c0,0,0.9277-1.0964,1.1133-1.1133   
                c0.1855-0.0169-1.3983-0.4506-1.5034-1.6861c0,0-6.0586,0.1193-11.8342-6.7623c0,0-2.4577-3.154-5.6527-4.3829   
                c0,0,3.4817-3.236,12.5342,2.6215c0,0,9.0115,5.8165,9.2983,5.9394c0,0,0.4932-0.2994,0.7952-0.5409   
                c0,0,0.0805-0.9259-0.3422-1.3889c0,0-0.4831-0.4227-0.5837-0.4227c0,0-3.2408-0.3825-3.4622-4.0057   
                c0,0-0.1409-0.3422-0.1208-0.5032c0,0-1.2681,1.2883-2.4155-0.6039c0,0-0.9461-2.5966,1.248-3.5628   
                c0,0-1.8316-8.8176-0.2595-9.9406c0,0,0.025,1.4723,0.524,2.171c0,0,4.0176,8.0851,4.2921,9.4575c0,0,
                1.597-1.6969,2.5702-1.647   c0,0-0.025,0.1747-0.1996,0.2495c0,0,2.2326-0.137,2.8254,0.9879c0,
                0-0.2888-0.0608-0.304,0.1064c0,0,1.0337,0.9729,0.1672,2.4019   c0,0-0.0912-0.152-0.0608-0.228c0,
                0-0.2888,0.9577-0.5625,1.0489c0,0-0.5929-1.0033-0.7145-1.0641c0,0,0.1368,1.0185-0.0304,1.1401   
                c0,0,0.1216,0.1824,0.3192,0.228c0,0-0.1824,0.1824-0.2736,0.1824c0,0,0.076,0.6081,0.2736,0.6689c0,
                0,0.9729,1.0489,0.0456,1.9915   c0,0-0.5017,1.4594-1.4138,1.4442c0,0,0.0152,0.5321,0.3192,0.6385c0,
                0,0.4498,0.1101,0.893-0.0092   c0,0,0.6306-0.1704,1.1249,0.4943c0,0,0.9715,1.4658,2.5907,1.8748c0,
                0,1.1078-1.6703,1.6021-2.4543   c0,0,0.1513-1.0527,1.4614-1.2649c0,0,0.4616-0.2121,0.6238-0.5615c0,
                0,0.2371,0.0374,0.0499,0.4741   c0,0-0.2246,0.262-0.3244,0.2994c0,0,0.3493-0.1372,0.4866-0.0499c0,
                0,0.5615-0.3743,0.7112-0.549c0,0-0.0998-0.5365,0.3119-0.4616   c0,0-0.1123-0.3369,0.1747-0.2246c0,
                0,0.1123,0.9732-0.1747,1.0356c0,0-0.0499,0.4741-0.3494,0.5989   c0,0-0.2371,0.7736-0.8359,0.8359c0,
                0-1.1728,0.0374-1.3225,0.1497c0,0-0.6623,1.5873-0.6487,2.27c0,0-0.3277,1.9251-1.3107,1.9251   
                c0,0-1.6247-0.3413-2.1299-0.6827c-0.4801,1.7654-1.0101,3.1514-2.3986,4.6342c0,0,0,2.3051,0.0779,2.7724   
                c0,0-0.3115,1.4952-0.4673,1.5731c0,0-0.0156,0.9189,0.0623,0.9812c0,0,0.2648,0.5295,0.1713,0.6697   
                C32.7506,35.1086,32.2847,35.2248,31.9725,35.0265z"/>
        </symbol>
        <symbol id="feathersCross" viewBox="0 0 512 512">
            <path fill="currentColor" d="M58.31 24.814L44.187 90.339 27.05 50.894c-3.463 13.536-3.63 28.752-2.328 42.395 7.427 74.81 70.83 162.556 154.83 236.173 15.377-15.942 30.388-32.237 44.783-48.732 6.82-7.815 13.5-15.678 20.018-23.568-59.05-73.228-104.055-148.414-115.58-214.524-4.027-11.108-15.646-14.908-25.596-17.36l11.53 19.868-31.305-22.445c-8.441-.189-17.618.604-25.092 2.113zm370.083-2.107c-2.92 13.842-5.738 27.685-15.046 41.527-.164-13.921-2.092-26.96-7.856-38.082-8.462 2.643-20.526 7.494-22.291 16.486-13.393 76.824-71.978 165.906-145.301 249.926C172.826 367.13 95.984 437.277 27.608 489.355c80.91-12.026 184.614-63.92 272.556-133.086 27.835-21.892 54.063-45.515 77.6-70.025-6.727 1.124-13.617 1.631-20.291 1.77l58.447-45.325c39.982-50.437 66.671-102.466 71.33-149.4.915-9.209 1.368-22.729-.642-34.805-2.01-12.077-6.486-21.931-13.252-26.371-8.677-5.693-24.034-9.17-39.578-9.45a98.183 98.183 0 0 0-5.385.044zM331.34 354.146a859.987 859.987 0 0 1-20.049 16.271 870.556 870.556 0 0 1-39.12 29.034c22.924 14.884 46.287 28.409 69.511 40.25a13010.71 13010.71 0 0 1 57.932 7.04c-5.536 5.312-11.915 8.882-18.942 11.292 36.526 15.689 71.873 26.592 103.694 31.322-49.14-37.427-102.652-84.185-153.026-135.209z"/>
        </symbol>
        <symbol id="sparkles" viewBox="0 0 512 512">
            <path fill="currentColor" d="M237.4 20.73c-6.1 42.1-26.8 64.2-63.9 64 31.6 4.5 63.8 8 63.9 64.07-.6-46.1 24.5-63.07 64.1-64.07-38-1.5-64.9-16.3-64.1-64zm127.8 11.58c-9.1 14.25-20.8 21.29-38.9 10.28 14.9 11.79 18.6 24.76 10.2 38.97 8.9-11.18 17.5-22.73 39-10.27-17.8-10.06-18.8-23.57-10.3-38.98zM59.68 41.69c-2.7 18.8-12 28.6-28.5 28.5 14.1 2 28.4 3.6 28.5 28.52-.3-20.5 10.9-28.12 28.5-28.52-16.9-.7-28.9-7.3-28.5-28.5zM431 66.28c-2.7 18.8-12 28.6-28.5 28.5 14.1 2 28.4 3.6 28.5 28.52-.3-20.5 10.9-28.12 28.5-28.52-16.9-.7-28.9-7.3-28.5-28.5zM120.3 116.4c-15.8 53.7-47.76 48-79.35 43.4C76.6 170 90.3 197.1 84.28 239.2c12.66-46 42.62-52.6 79.42-43.4-37.6-12.1-56.9-35.4-43.4-79.4zm187 5c-8.8 61.6-39.3 94-93.6 93.7 46.2 6.5 93.6 11.7 93.6 93.7-.8-67.3 35.9-92.2 93.8-93.7-55.5-2.2-94.9-23.9-93.8-93.7zm136.8 38.3c-13.1 21.6-29.5 28.8-49.7 20.1 16.3 9.7 33 19.1 20.1 49.6 10.3-25.2 27.9-28.7 49.7-20-20.3-9.7-31.6-23.9-20.1-49.7zM50.7 243.2c9.16 16.7 7.63 30.1-5.61 40 12.46-6.9 24.85-14.3 39.91 5.6-12.57-16.2-8.2-29 5.61-40-13.92 9.7-27.47 11.6-39.91-5.6zm137.2.3c11.4 26.8-.5 41.3-21.7 50.9 22.7-8.5 40.8-4.5 50.9 21.7-12.7-31.8 4.8-41.2 21.7-50.9-21 8.5-37.8.9-50.9-21.7zm228 12.6c-26.6 64.7-68.7 91.7-127.8 76.4 48.6 19.8 98.8 38.5 76.4 127.9 17.5-73.7 64.4-90.7 127.9-76.5-59.9-17.5-96.9-52-76.5-127.8zM99.94 295.5c15.66 57.8.86 98.1-47.32 118.5 43.46-11.8 87.38-25.2 118.68 47.4-26.4-59.3-3.4-95.4 47.3-118.8-50 19.2-93.1 15-118.66-47.1zm169.36 61c-21.8 20.6-43 23.6-63.2 7.3 15.5 16.3 31.6 32.4 7.2 63.3 19.8-25.6 41.2-24.1 63.3-7.3-20.2-17.4-28.6-37.5-7.3-63.3zM443.2 404c-2.7 18.8-12 28.6-28.5 28.5 14.1 2 28.4 3.6 28.5 28.5-.3-20.5 10.9-28.1 28.5-28.5-16.9-.7-28.9-7.3-28.5-28.5zm-169.7 36c-2.7 18.8-12 28.6-28.5 28.5 14.1 2 28.4 3.6 28.5 28.5-.3-20.5 10.9-28.1 28.5-28.5-16.9-.7-28.9-7.3-28.5-28.5z"/>
        </symbol>
        <symbol id="stars" viewBox="0 0 512 512">
            <path fill="currentColor" d="M143.627 36.361c-2.18 0-16.495 38.303-18.258 39.584-1.763 1.281-42.615 3.06-43.289 5.133-.673 2.073 31.33 27.523 32.004 29.596.674 2.073-10.26 41.475-8.496 42.756 1.763 1.28 35.86-21.291 38.039-21.291 2.18 0 36.276 22.572 38.039 21.29 1.763-1.28-9.17-40.682-8.496-42.755.673-2.073 32.677-27.523 32.004-29.596-.674-2.073-41.526-3.852-43.29-5.133-1.763-1.28-16.077-39.584-18.257-39.584zm224.746 0c-2.18 0-16.494 38.303-18.258 39.584-1.763 1.281-42.615 3.06-43.289 5.133-.673 2.073 31.33 27.523 32.004 29.596.674 2.073-10.26 41.475-8.496 42.756 1.763 1.28 35.86-21.291 38.039-21.291 2.18 0 36.276 22.572 38.04 21.29 1.762-1.28-9.17-40.682-8.497-42.755.674-2.073 32.677-27.523 32.004-29.596-.674-2.073-41.526-3.852-43.29-5.133-1.762-1.28-16.077-39.584-18.257-39.584zM256 39.883c-7.12 0-53.884 125.123-59.645 129.308-5.76 4.185-139.211 9.996-141.412 16.768-2.2 6.772 102.349 89.912 104.55 96.684 2.2 6.771-33.513 135.486-27.753 139.671C137.5 426.5 248.88 352.76 256 352.76c7.12 0 118.5 73.74 124.26 69.554 5.76-4.185-29.952-132.9-27.752-139.671 2.2-6.772 106.749-89.912 104.549-96.684-2.2-6.772-135.652-12.583-141.412-16.768-5.76-4.185-52.525-129.308-59.645-129.308zM77.973 243.102c-2.18 0-16.495 38.302-18.258 39.584-1.763 1.28-42.616 3.06-43.29 5.132-.673 2.073 31.333 27.523 32.007 29.596.673 2.073-10.26 41.475-8.496 42.756 1.763 1.281 35.857-21.291 38.037-21.291 2.18 0 36.275 22.572 38.039 21.29 1.763-1.28-9.17-40.682-8.496-42.755.673-2.073 32.679-27.523 32.005-29.596-.673-2.073-41.525-3.851-43.289-5.132-1.763-1.282-16.08-39.584-18.26-39.584zm356.054 0c-2.18 0-16.496 38.302-18.26 39.584-1.763 1.28-42.615 3.06-43.288 5.132-.674 2.073 31.332 27.523 32.005 29.596.674 2.073-10.26 41.475-8.496 42.756 1.764 1.281 35.86-21.291 38.04-21.291 2.179 0 36.273 22.572 38.036 21.29 1.764-1.28-9.17-40.682-8.496-42.755.674-2.073 32.68-27.523 32.006-29.596-.673-2.073-41.526-3.851-43.289-5.132-1.763-1.282-16.078-39.584-18.258-39.584zM256 369.932c-2.18 0-16.494 38.302-18.258 39.584-1.763 1.28-42.615 3.06-43.289 5.132-.673 2.073 31.33 27.525 32.004 29.598.674 2.073-10.26 41.475-8.496 42.756 1.763 1.281 35.86-21.293 38.039-21.293 2.18 0 36.276 22.574 38.04 21.293 1.762-1.281-9.17-40.683-8.497-42.756.673-2.073 32.677-27.525 32.004-29.598-.674-2.072-41.526-3.851-43.29-5.132-1.763-1.282-16.077-39.584-18.257-39.584z"/>
        </symbol>
        <symbol id="hat" viewBox="0 0 512 512"> 
            <path fill="currentColor" d="M313.203 25.94l-.133 24.67-18.12 16.743 24.67.132 16.743 18.12.133-24.67 18.12-16.743-24.67-.132-16.743-18.12zm91.58 50.12L385.47 91.41l-24.4-3.638 15.35 19.313-3.637 24.4 19.313-15.35 24.4 3.637-15.35-19.312 3.637-24.4zM39.87 80.206l-7.116 16.268 7.637 3.34 256 112 8.247 3.607-.1.227.61.266 7.214-16.492-8.243-3.607-44.113-19.298a102.607 43.83 0 0 1 52.088-6.13A102.607 43.83 0 0 1 414.7 214.22a102.607 43.83 0 0 1-102.608 43.83 102.607 43.83 0 0 1-102.608-43.83 102.607 43.83 0 0 1 8.262-17.162l-32.814-14.358c-12.552 5.49-22.514 11.71-29.192 17.96-7.646 7.16-10.802 13.782-10.802 20.134s3.156 12.975 10.802 20.133c7.646 7.158 19.596 14.274 34.81 20.3 30.43 12.047 73.71 19.835 121.542 19.835 47.832 0 91.11-7.788 121.54-19.836 15.215-6.025 27.165-13.14 34.81-20.3 7.647-7.157 10.804-13.78 10.804-20.132 0-6.352-3.157-12.975-10.803-20.133-7.646-7.16-19.596-14.275-34.81-20.3-30.43-12.048-73.71-19.836-121.54-19.836-26.422 0-51.44 2.386-73.683 6.543L48.117 83.813l-8.246-3.607zm204.903 4.31l.077 16.708-12.16 11.46 16.708-.076 11.46 12.16-.075-16.708L272.94 96.6l-16.706.075-11.46-12.16zM215.94 286.592c-.147 15.018-.44 29.74-1.038 44.308 67.544 29.705 126.598 29.746 194.383.113-.6-14.603-.894-29.364-1.043-44.42-27.33 7.925-60.396 12.467-96.15 12.467-35.756 0-68.82-4.54-96.15-12.467zm-2.004 63.467c-.555 8.977-1.254 17.925-2.13 26.877l.555.25c69.454 31.175 129.756 31.177 199.486-.006l.535-.238c-.874-8.92-1.572-17.838-2.126-26.785-66.975 27.646-129.55 27.616-196.318-.097zm200.552 45.595c-70.003 30.062-135.025 30.067-204.793.002-2.287 17.913-5.385 35.95-9.603 54.403 0 48 224 48 224 0-4.218-18.455-7.316-36.49-9.604-54.405z"/>
        </symbol>
        <symbol id="broom" viewBox="0 0 512 512">
            <path fill="currentColor" d="M445.1 22.93c-3.8.11-7.9 1.81-11.5 5.98C379.2 107.6 318.8 184.7 257.3 261.4c2.3.9 4.5 1.9 6.5 3.1 4.5 2.5 8.4 5.6 11.7 9C339 197.6 401.3 121.1 455.6 40.87c4.3-9.84 1.1-13.83-3.8-16.4-1.2-.65-2.6-1.13-4.1-1.37-.8-.13-1.7-.19-2.6-.17zM63.14 46.41c7.69 13.5 16.6 26.49 2.25 47.15 10.45-10.72 22.95-21.51 42.41-1.4-4.2-10.17-17.26-17.99-6.1-33.71-17.06 8.58-25.86 0-38.56-12.04zM267.2 94.02c-7.4 11.08-18.3 14.68-32.6 10.28 14.3 4.9 21.5 14.5 17.7 31.7 8.3-15.5 18.1-21.4 29.5-17.1-6.4-6.3-17.3-7-14.6-24.88zm181.5 46.78c-4 22.5-6 45.9-43.2 50.9 22.9.8 48.1 3.7 51.7 46.2 5-15-3-37.8 25.6-41.3-28.6-10.4-30.7-29.2-34.1-55.8zm-358.92 96c2.1 24.8-8.1 41.4-37.08 45.6 29.38 3.7 44.88 15.4 45.88 35.5 5.62-13.5-.7-30.8 28.72-36.8-22.1-5.2-34.82-19.7-37.52-44.3zm155.42 39.7l-13.4 16.6c1.5.8 3 1.7 4.5 2.6 4.4 2.8 8.7 6.1 12.3 9.8l15.2-18c-2.3-2.7-5.4-5.4-8.9-7.4-3-1.7-6.3-3-9.7-3.6zM208 304.1c-.8 0-1.5 0-2 .1-1 .2-1.5.5-1.7.7l-.5.6-.6.4c-46.9 36-117.06 70.7-173.97 104.3 14.77 4.4 29.83 9.7 44.58 15.6l36.39-30.5L88.37 432c17.03 7.6 33.43 16.2 48.03 25.6l27.3-43.8-12.2 54.2c9 6.7 17 13.8 23.8 21.1 27.2-59.1 63-100.2 67.7-154.8l.1-.6.1-.6c.6-2.3-.2-5.7-3.1-10-3-4.2-7.9-8.7-13.4-12.2-5.4-3.4-11.5-5.8-15.9-6.5-1.1-.2-2-.3-2.8-.3zm111.2.2c9.7 13.1 9.9 25.8-4.7 38.3 17.6-8.2 30.3-7.2 37.8 3.6-1.7-9.4-11.1-16.8 3-30.4-14 4.8-26.1 1.2-36.1-11.5zm56.7 90.8c11.7 17.4 20 29.5 4.1 47.8 23.4-10 29.5 7 41.2 13.8-19.9-26.8-2.6-39.3 14.1-49.5-30.5 12.8-44.4-.3-59.4-12.1z"/>
        </symbol>
        <symbol id="random" viewBox="0 0 512 512">
            <path fill="currentColor" d="M255.76 44.764c-6.176 0-12.353 1.384-17.137 4.152L85.87 137.276c-9.57 5.536-9.57 14.29 0 19.826l152.753 88.36c9.57 5.536 24.703 5.536 34.272 0l152.753-88.36c9.57-5.535 9.57-14.29 0-19.825l-152.753-88.36c-4.785-2.77-10.96-4.153-17.135-4.153zm1.86 12.423a31.953 18.96 0 0 1 21.194 5.536 31.953 18.96 0 0 1-45.187 26.812 31.953 18.96 0 0 1 23.992-32.347zm-119.173 70.188a31.953 18.96 0 0 1 .002 0 31.953 18.96 0 0 1 21.195 5.535 31.953 18.96 0 0 1-45.19 26.813 31.953 18.96 0 0 1 23.992-32.348zm237.903.26a31.953 18.96 0 0 1 .002 0 31.953 18.96 0 0 1 21.195 5.535 31.953 18.96 0 0 1-45.19 26.812 31.953 18.96 0 0 1 23.993-32.347zM75.67 173.84c-5.753-.155-9.664 4.336-9.664 12.28v157.696c0 11.052 7.57 24.163 17.14 29.69l146.93 84.848c9.57 5.526 17.14 1.156 17.14-9.895V290.76c0-11.052-7.57-24.16-17.14-29.688l-146.93-84.847c-2.69-1.555-5.225-2.327-7.476-2.387zm360.773.002c-2.25.06-4.783.83-7.474 2.385l-146.935 84.847c-9.57 5.527-17.14 18.638-17.14 29.69v157.7c0 11.05 7.57 15.418 17.14 9.89L428.97 373.51c9.57-5.527 17.137-18.636 17.137-29.688v-157.7c0-7.942-3.91-12.432-9.664-12.278zM89.297 195.77a31.236 18.008 58.094 0 1 33.818 41.183 31.236 18.008 58.094 1 1-45-25.98 31.236 18.008 58.094 0 1 11.182-15.203zm333.52 0A18.008 31.236 31.906 0 1 434 210.973a18.008 31.236 31.906 0 1-45 25.98 18.008 31.236 31.906 0 1 33.818-41.183zm-165.198 2.314a31.953 18.96 0 0 1 21.194 5.535 31.953 18.96 0 0 1-45.187 26.812 31.953 18.96 0 0 1 23.992-32.348zM89.296 256.77a31.236 18.008 58.094 0 1 33.818 41.183 31.236 18.008 58.094 1 1-45-25.98 31.236 18.008 58.094 0 1 11.182-15.202zm112 3.664a31.236 18.008 58.094 0 1 33.818 41.183 31.236 18.008 58.094 1 1-45-25.98 31.236 18.008 58.094 0 1 11.182-15.203zm109.52 0A18.008 31.236 31.906 0 1 322 275.637a18.008 31.236 31.906 0 1-45 25.98 18.008 31.236 31.906 0 1 33.818-41.183zM366.82 289.1a18.008 31.236 31.906 0 1 .002 0 18.008 31.236 31.906 0 1 11.18 15.203 18.008 31.236 31.906 0 1-45 25.98A18.008 31.236 31.906 0 1 366.82 289.1zM89.297 318.48a31.236 18.008 58.094 0 1 33.818 41.184 31.236 18.008 58.094 1 1-45-25.98 31.236 18.008 58.094 0 1 11.182-15.204zm333.52 0A18.008 31.236 31.906 0 1 434 333.684a18.008 31.236 31.906 0 1-45 25.98 18.008 31.236 31.906 0 1 33.818-41.184zm-221.52 2.954a31.236 18.008 58.094 0 1 33.818 41.183 31.236 18.008 58.094 1 1-45-25.98 31.236 18.008 58.094 0 1 11.182-15.203zm0 61.71a31.236 18.008 58.094 0 1 33.818 41.182 31.236 18.008 58.094 1 1-45-25.98 31.236 18.008 58.094 0 1 11.182-15.203zm109.52 0A18.008 31.236 31.906 0 1 322 398.345a18.008 31.236 31.906 0 1-45 25.98 18.008 31.236 31.906 0 1 33.818-41.183z"/>
        </symbol>
        <symbol id="deleteScroll" viewBox="0 0 512 512">
            <path fill="currentColor" d="M 103.432 17.844 c -1.118 0.005 -2.234 0.032 -3.348 0.08 c -2.547 0.11 -5.083 0.334 -7.604 0.678 c -20.167 2.747 -39.158 13.667 -52.324 33.67 c -24.613 37.4 2.194 98.025 56.625 98.025 c 0.536 0 1.058 -0.012 1.583 -0.022 v 0.704 h 60.565 c -10.758 31.994 -30.298 66.596 -52.448 101.43 c -2.162 3.4 -4.254 6.878 -6.29 10.406 l 34.878 35.733 l -56.263 9.423 c -32.728 85.966 -27.42 182.074 48.277 182.074 v -0.002 l 9.31 0.066 c 23.83 -0.57 46.732 -4.298 61.325 -12.887 c 4.174 -2.458 7.63 -5.237 10.467 -8.42 h -32.446 c -20.33 5.95 -40.8 -6.94 -47.396 -25.922 c -8.956 -25.77 7.52 -52.36 31.867 -60.452 c 5.803 -1.93 11.723 -2.834 17.565 -2.834 v -0.406 h 178.33 c -0.57 -44.403 16.35 -90.125 49.184 -126 l 30.711 -47.188 c -9.3333 8 -9 9 -49 25 c -14 5 -22 6 -71 0 c -20 -6 -38 -9 -57 -47 c -7 -14 -8 -14 -5 -68 C 272 37 222.11 35.29 149.34 28.496 c -14.888 -6.763 -30.547 -10.723 -45.908 -10.652 z m 0.464 18.703 c 13.137 0.043 27.407 3.804 41.247 10.63 l 0.033 -0.07 c 4.667 4.735 8.542 9.737 11.68 14.985 H 82.92 l 10.574 14.78 c 10.608 14.83 19.803 31.99 21.09 42.024 c 0.643 5.017 -0.11 7.167 -1.814 8.836 c -1.705 1.67 -6.228 3.875 -15.99 3.875 c -40.587 0 -56.878 -44.952 -41.012 -69.06 C 66.238 46.64 79.582 39.22 95.002 37.12 c 2.89 -0.395 5.863 -0.583 8.894 -0.573 z M 118.5 80.78 h 46.28 c 4.275 15.734 3.656 33.07 -0.544 51.51 H 131.52 c 1.9 -5.027 2.268 -10.574 1.6 -15.77 c -1.527 -11.913 -7.405 -24.065 -14.62 -35.74 z m 101.553 317.095 c 6.44 6.84 11.192 15.31 13.37 24.914 c 3.797 16.736 3.092 31.208 -1.767 43.204 c -4.526 11.175 -12.576 19.79 -22.29 26 h 237.19 c 14.448 0 24.887 -5.678 32.2 -14.318 c 7.312 -8.64 11.2 -20.514 10.705 -32.352 c -0.186 -4.473 -0.978 -8.913 -2.407 -13.18 l -69.91 -8.205 l 42.017 -20.528 c -8.32 -3.442 -18.64 -5.537 -31.375 -5.537 H 220.053 z m -42.668 0.506 c -1.152 -0.003 -2.306 0.048 -3.457 0.153 c -2.633 0.242 -5.256 0.775 -7.824 1.63 c -15.11 5.02 -25.338 21.54 -20.11 36.583 c 3.673 10.57 15.347 17.71 25.654 13.938 l 1.555 -0.57 h 43.354 c 0.946 -6.36 0.754 -13.882 -1.358 -23.192 c -3.71 -16.358 -20.543 -28.483 -37.815 -28.54 z"/>
            <path stroke="currentColor" stroke-width="2.5" stroke-linecap="round" stroke-linejoin="round" transform="scale(10 10) translate(24 0)" d="M7 7.00006L17 17.0001M7 17.0001L17 7.00006" />        
        </symbol>
        <symbol id="delete" viewBox="0 0 24 24">
            <path fill="currentColor" d="M22,5H17V2a1,1,0,0,0-1-1H8A1,1,0,0,0,7,2V5H2A1,1,0,0,0,2,7H3.117L5.008,22.124A1,1,0,0,0,6,23H18a1,1,0,0,0,.992-.876L20.883,7H22a1,1,0,0,0,0-2ZM9,3h6V5H9Zm8.117,18H6.883L5.133,7H18.867Z"/>
        </symbol>
    </defs>
    
    <use width="50" height="50" transform="translate(0 0)" href="#closeCross"/>
    <use width="50" height="50" transform="translate(0 500)" href="#fairy"/>
    <use width="50" height="50" transform="translate(0 100)" href="#feathersCross"/>
    <use width="50" height="50" transform="translate(50 0)" href="#sparkles"/>
    <use width="50" height="50" transform="translate(50 50)" href="#stars"/>
    <use width="50" height="50" transform="translate(50 100)" href="#hat"/>
    <use width="50" height="50" transform="translate(100 0)" href="#broom"/>
    <use width="50" height="50" transform="translate(100 50)" href="#pagoda"/>
    <use width="50" height="50" transform="translate(100 100)" href="#random"/>
    <use width="50" height="50" transform="translate(150 0)" href="#delete"/>
    <use width="50" height="50" transform="translate(150 50)" href="#deleteScroll"/>
</svg>