<svg class="del" xmlns="http://www.w3.org/2000/svg">
    <defs>
        <symbol id="castle" viewBox="0 0 32 32">
            <path  fill="currentColor" fill-rule="evenodd" 
                d="M21.5 1039.862v12.5h9v-12.5zm4.5 2.25c.828 0 1.5.704 1.5 1.574v1.426h-3v-1.426c0-.87.672-1.574 
                1.5-1.574zM16 1024.112l-5.107 6.5h10.214zM10.5 1031.612v2.25h1.75v6h-1v12.5H13v-3.467c0-1.675 
                1.343-3.033 3-3.033s3 1.358 3 3.033v3.467h1.75v-12.5h-1v-6h1.75v-2.25zm5.5 2c.828 0 1.5.704 1.5 
                1.574v1.426h-3v-1.426c0-.87.672-1.574 1.5-1.574zm0 5c.828 0 1.5.704 1.5 
                1.574v1.426h-3v-1.426c0-.87.672-1.574 1.5-1.574zM16 1020.362h4.5l-2 1.5 2 1.5H16zM1.5 
                1039.862v12.5h9v-12.5zm4.5 2.25c.828 0 1.5.704 1.5 1.574v1.426h-3v-1.426c0-.87.672-1.574 1.5-1.574z" 
                transform="translate(0 -1020.362)"/>
            <path  fill="currentColor" fill-rule="evenodd" 
                d="M.5 1034.612h2v.5a1.25 1.25 0 1 0 2.5 0v-.5h2v.5a1.25 1.25 0 1 0 2.5 0v-.5h2v4.5H.5zM20.5 
                1034.612h2v.5a1.25 1.25 0 1 0 2.5 0v-.5h2v.5a1.25 1.25 0 1 0 2.5 0v-.5h2v4.5h-11z" 
                transform="translate(0 -1020.362)"/>
        </symbol>
        <symbol id="book" viewBox="0 0 64 64">
            <path fill="currentColor" d="M52.5 5.5c.54999 0 1 .45001 1 
                1v10h2V6.5c0-1.65002-1.34998-3-3-3h-13.83997c.13.56.38995 1.28998.88995 2h12.95001zM53.5 
                49.5H21.5V5.5h11.95001c.5-.71002.76001-1.44.89001-2H15.5c-3.31 0-6 2.69-6 
                6v12.92999c1.70813-2.55402.20679-3.37329 2-4.64001v-2.28998h8v21H11.5v-1.28003c-1.77899-1.25458-.3056-2.11267-2-4.64001v24.92004c0 
                3.31 2.69 6 6 6H54.5c.46002 0 
                .85999-.31.97003-.76001.10999-.44-.09003-.91003-.5-1.12-3.25769-1.65149-3.25458-6.58948.00012-8.23999.32599-.18219.52026-.50781.52985-.88v-12h-2v11zm-1.66998 
                10H15.5c-2.20996 0-4-1.79004-4-4s1.79004-4 4-4H51.83002c-1.75769 2.23663-1.75763 5.76337 0 8z"/>
            <path fill="currentColor" d="M12.5 33.5s0-4.90137 5-7c-5-2.09863-5-7-5-7 0 0 0 4.90137-5 7 5 2.09863 5 7 5 7zM36.5 
                16.5s0-4.90137 5-7c-5-2.09863-5-7-5-7 0 0 0 4.90137-5 7 5 2.09863 5 7 5 7z"/>
            <path fill="currentColor" d="M49.5,16.5h2v-6c0-1.65002-1.34998-3-3-3h-6.57996c1.8573,.52246,2.18127,3.0589,.34991,
                3.84003-3.65997,1.53998-3.76996,5.02997-3.76996,5.17993-.10272,2.59338-3.91144,2.6037-4-.00006,
                0-.17993-.13-3.6499-3.76996-5.17993-1.82727-.77863-1.51099-3.31836,.34998-3.83997h-4.58002c-1.64996,0-3,
                1.34998-3,3V44.5c0,1.64996,1.35004,3,3,3,.09021-.04175,16.90582,.05396,16.98004-.02002,
                .01996-.09998-.04004-4.90997-4.98004-6.97998,5-2.10004,5-7,5-7,0,0,0,4.89996,5,7-4.94,2.07996-5,6.88-5,6.98999,
                .03003,.01001,.07001,.01001,.10999,.01001h4.89001c1.65002,0,3-1.35004,3-3v-6h-2c-3.31,0-6-2.69-6-6v-10c0-3.31,
                2.69-6,6-6Zm-15,17h-4c-1.31244-.02484-1.31445-1.97485,.00006-2-.00006,0,3.99994,0,3.99994,0,1.3125,.02484,
                1.31451,1.97479,0,2Zm3-5h-7c-1.31201-.02472-1.31482-1.97479,.00006-2-.00006,0,6.99994,0,6.99994,0,1.31152,
                .02454,1.31525,1.97473,0,2Zm3-5h-10c-1.31055-.02423-1.31604-1.97467,.00006-2-.00006,0,9.99994,0,9.99994,0,
                1.31061,.02423,1.31604,1.97461,0,2Z"/>
            <path fill="currentColor" d="M55.5,18.5h-6c-2.20557,0-4,1.79395-4,4v10c0,2.20605,1.79443,4,4,4h6c.55225,0,1-.44727,
                1-1V19.5c0-.55273-.44775-1-1-1Z"/>
        </symbol>
        <symbol id="crown" viewBox="0 0 64 64">
            <path fill="currentColor" d="M11.00042 19s0-4.90137 5-7c-5-2.09863-5-7-5-7 0 0 0 4.90137-5 7 5 2.09863 5 7 5 
                7zM52.00042 24s0-4.90137 5-7c-5-2.09863-5-7-5-7 0 0 0 4.90137-5 7 5 2.09863 5 7 5 7z"/>
            <path fill="currentColor" d="M56.45043,23.16998c-8.85718,6.00006-13.10919,3.11853-13.44995-4.1701,
                .02405-.80597-.98547-1.29926-1.61005-.78992-5.63702,4.68768-7.68683-1.71582-8.28998-6.32996,
                5.7301-1.38995,4.86182-9.76263-1.1001-9.88-5.96277,.11798-6.82916,8.49109-1.09991,9.88-.60748,
                4.62274-2.65021,11.0141-8.29004,6.32977-.62555-.50812-1.63354-.01666-1.60992,.79022-.34113,7.3028-4.60773,
                10.16113-13.45007,4.16986-.8241-.60571-1.97528,.47235-1.40991,1.34015-.00006,0,8.33997,13.89996,8.33997,
                13.89996-.88,.53003-1.48004,1.48999-1.48004,2.59003v1c0,1.29999,.84003,2.40997,2,2.82001v10.35999c-1.15997,
                .40997-2,1.52002-2,2.82001v1c0,1.64996,1.35004,3,3,3H48.00042c1.65002,0,3-1.35004,
                3-3v-1c0-1.29999-.83997-2.41003-2-2.82001v-10.35999c1.16003-.41003,2-1.52002,
                2-2.82001v-1c0-1.10004-.59998-2.06-1.47998-2.59003l8.33997-13.89996c.56195-.86743-.58142-1.94586-1.40997-1.34003Zm-29.27997,
                5.28003l4-6c.37-.56,1.28998-.56,1.65997,0l4,6c.22998,.32996,.22998,.76996,0,1.09998l-4,6c-.36206,.59119-1.29791,
                .59283-1.65997-.00006,0,.00006-4-5.99994-4-5.99994-.23004-.33002-.23004-.77002,0-1.09998Zm21.82996,30.54999c0,
                .54999-.45001,1-1,1H16.00042c-.54999,0-1-.45001-1-1v-1c0-.54999,.45001-1,1-1H48.00042c.54999,0,1,.45001,1,
                1v1Zm-26-9c0-.54999,.45001-1,1-1h1c.54999,0,1,.45001,1,1s-.45001,1-1,1h-1c-.54999,0-1-.45001-1-1Zm6,0c.10938-3.95459,
                5.89124-3.9538,6,.00006-.10938,3.95447-5.89117,3.95367-6-.00006Zm9,0c0-.54999,.45001-1,1-1h1c.54999,0,1,.45001,1,
                1s-.45001,1-1,1h-1c-.54999,0-1-.45001-1-1Zm11-8c0,.54999-.45001,1-1,1H16.00042c-.54999,0-1-.45001-1-1v-1c0-.54999,
                .45001-1,1-1H48.00042c.54999,0,1,.45001,1,1v1Z"/>
        </symbol>
        <symbol id="flag" viewBox="0 0 50 50">
            <path fill="currentColor" d="M46,3.7c-1.2,0-2.3,0.8-2.8,1.8H6.8C6.3,4.5,5.3,3.7,4,3.7c-1.7,0-3,1.4-3,3c0,1.7,1.3,3,3,3c1.2,0,2.3-0.8,2.8-1.8h8.8V10   h-3.9c-5.3,12.1,5.3,24.2,0,36.3c5.5-2.6,10.4-5.1,14.8-7.7c4.5,2.6,8.5,5.1,11.9,7.7c5.3-12.1-5.3-24.2,0-36.3h-3.9V7.9h8.8   C43.7,9,44.8,9.7,46,9.7c1.7,0,3-1.3,3-3C49,5.1,47.7,3.7,46,3.7z M17.2,7.9h6.9V10h-6.9V7.9z M29.3,32.9L25,30.7l-4.3,2.2l0.8-4.7   l-3.4-3.3l4.8-0.7l2.1-4.3l2.1,4.3l4.8,0.7l-3.4,3.3L29.3,32.9z M32.8,10h-6.9V7.9h6.9V10z"/>
        </symbol>
    </defs>
    <view id="castle-view" viewBox="0 0 32 32"/>
    <view id="book-view" viewBox="50 0 64 64"/>
    <view id="crown-view" viewBox="0 50 64 64"/>
    <view id="crown-view" viewBox="50 50 50 50"/>
    <use width="50" height="50" transform="translate(0 0)" href="#castle"/>
    <use width="50" height="50" transform="translate(50 0)" href="#book"/>
    <use width="50" height="50" transform="translate(0 50)" href="#crown"/>
    <use width="50" height="50" transform="translate(50 50)" href="#flag"/>
</svg>