<svg class="del" xmlns="http://www.w3.org/2000/svg">
    <defs>
        <symbol id="castle" viewBox="0 0 32 32">
            <path  fill="currentColor" fill-rule="evenodd" 
                d="M21.5 1039.862v12.5h9v-12.5zm4.5 2.25c.828 0 1.5.704 1.5 1.574v1.426h-3v-1.426c0-.87.672-1.574 
                1.5-1.574zM16 1024.112l-5.107 6.5h10.214zM10.5 1031.612v2.25h1.75v6h-1v12.5H13v-3.467c0-1.675 
                1.343-3.033 3-3.033s3 1.358 3 3.033v3.467h1.75v-12.5h-1v-6h1.75v-2.25zm5.5 2c.828 0 1.5.704 1.5 
                1.574v1.426h-3v-1.426c0-.87.672-1.574 1.5-1.574zm0 5c.828 0 1.5.704 1.5 
                1.574v1.426h-3v-1.426c0-.87.672-1.574 1.5-1.574zM16 1020.362h4.5l-2 1.5 2 1.5H16zM1.5 
                1039.862v12.5h9v-12.5zm4.5 2.25c.828 0 1.5.704 1.5 1.574v1.426h-3v-1.426c0-.87.672-1.574 1.5-1.574z" 
                transform="translate(0 -1020.362)"/>
            <path  fill="currentColor" fill-rule="evenodd" 
                d="M.5 1034.612h2v.5a1.25 1.25 0 1 0 2.5 0v-.5h2v.5a1.25 1.25 0 1 0 2.5 0v-.5h2v4.5H.5zM20.5 
                1034.612h2v.5a1.25 1.25 0 1 0 2.5 0v-.5h2v.5a1.25 1.25 0 1 0 2.5 0v-.5h2v4.5h-11z" 
                transform="translate(0 -1020.362)"/>
        </symbol>
        <symbol id="book" viewBox="0 0 64 64">
            <path fill="currentColor" d="M52.5 5.5c.54999 0 1 .45001 1 
                1v10h2V6.5c0-1.65002-1.34998-3-3-3h-13.83997c.13.56.38995 1.28998.88995 2h12.95001zM53.5 
                49.5H21.5V5.5h11.95001c.5-.71002.76001-1.44.89001-2H15.5c-3.31 0-6 2.69-6 
                6v12.92999c1.70813-2.55402.20679-3.37329 2-4.64001v-2.28998h8v21H11.5v-1.28003c-1.77899-1.25458-.3056-2.11267-2-4.64001v24.92004c0 
                3.31 2.69 6 6 6H54.5c.46002 0 
                .85999-.31.97003-.76001.10999-.44-.09003-.91003-.5-1.12-3.25769-1.65149-3.25458-6.58948.00012-8.23999.32599-.18219.52026-.50781.52985-.88v-12h-2v11zm-1.66998 
                10H15.5c-2.20996 0-4-1.79004-4-4s1.79004-4 4-4H51.83002c-1.75769 2.23663-1.75763 5.76337 0 8z"/>
            <path fill="currentColor" d="M12.5 33.5s0-4.90137 5-7c-5-2.09863-5-7-5-7 0 0 0 4.90137-5 7 5 2.09863 5 7 5 7zM36.5 
                16.5s0-4.90137 5-7c-5-2.09863-5-7-5-7 0 0 0 4.90137-5 7 5 2.09863 5 7 5 7z"/>
            <path fill="currentColor" d="M49.5,16.5h2v-6c0-1.65002-1.34998-3-3-3h-6.57996c1.8573,.52246,2.18127,3.0589,.34991,
                3.84003-3.65997,1.53998-3.76996,5.02997-3.76996,5.17993-.10272,2.59338-3.91144,2.6037-4-.00006,
                0-.17993-.13-3.6499-3.76996-5.17993-1.82727-.77863-1.51099-3.31836,.34998-3.83997h-4.58002c-1.64996,0-3,
                1.34998-3,3V44.5c0,1.64996,1.35004,3,3,3,.09021-.04175,16.90582,.05396,16.98004-.02002,
                .01996-.09998-.04004-4.90997-4.98004-6.97998,5-2.10004,5-7,5-7,0,0,0,4.89996,5,7-4.94,2.07996-5,6.88-5,6.98999,
                .03003,.01001,.07001,.01001,.10999,.01001h4.89001c1.65002,0,3-1.35004,3-3v-6h-2c-3.31,0-6-2.69-6-6v-10c0-3.31,
                2.69-6,6-6Zm-15,17h-4c-1.31244-.02484-1.31445-1.97485,.00006-2-.00006,0,3.99994,0,3.99994,0,1.3125,.02484,
                1.31451,1.97479,0,2Zm3-5h-7c-1.31201-.02472-1.31482-1.97479,.00006-2-.00006,0,6.99994,0,6.99994,0,1.31152,
                .02454,1.31525,1.97473,0,2Zm3-5h-10c-1.31055-.02423-1.31604-1.97467,.00006-2-.00006,0,9.99994,0,9.99994,0,
                1.31061,.02423,1.31604,1.97461,0,2Z"/>
            <path fill="currentColor" d="M55.5,18.5h-6c-2.20557,0-4,1.79395-4,4v10c0,2.20605,1.79443,4,4,4h6c.55225,0,1-.44727,
                1-1V19.5c0-.55273-.44775-1-1-1Z"/>
        </symbol>
        <symbol id="crown" viewBox="0 0 64 64">
            <path fill="currentColor" d="M11.00042 19s0-4.90137 5-7c-5-2.09863-5-7-5-7 0 0 0 4.90137-5 7 5 2.09863 5 7 5 
                7zM52.00042 24s0-4.90137 5-7c-5-2.09863-5-7-5-7 0 0 0 4.90137-5 7 5 2.09863 5 7 5 7z"/>
            <path fill="currentColor" d="M56.45043,23.16998c-8.85718,6.00006-13.10919,3.11853-13.44995-4.1701,
                .02405-.80597-.98547-1.29926-1.61005-.78992-5.63702,4.68768-7.68683-1.71582-8.28998-6.32996,
                5.7301-1.38995,4.86182-9.76263-1.1001-9.88-5.96277,.11798-6.82916,8.49109-1.09991,9.88-.60748,
                4.62274-2.65021,11.0141-8.29004,6.32977-.62555-.50812-1.63354-.01666-1.60992,.79022-.34113,7.3028-4.60773,
                10.16113-13.45007,4.16986-.8241-.60571-1.97528,.47235-1.40991,1.34015-.00006,0,8.33997,13.89996,8.33997,
                13.89996-.88,.53003-1.48004,1.48999-1.48004,2.59003v1c0,1.29999,.84003,2.40997,2,2.82001v10.35999c-1.15997,
                .40997-2,1.52002-2,2.82001v1c0,1.64996,1.35004,3,3,3H48.00042c1.65002,0,3-1.35004,
                3-3v-1c0-1.29999-.83997-2.41003-2-2.82001v-10.35999c1.16003-.41003,2-1.52002,
                2-2.82001v-1c0-1.10004-.59998-2.06-1.47998-2.59003l8.33997-13.89996c.56195-.86743-.58142-1.94586-1.40997-1.34003Zm-29.27997,
                5.28003l4-6c.37-.56,1.28998-.56,1.65997,0l4,6c.22998,.32996,.22998,.76996,0,1.09998l-4,6c-.36206,.59119-1.29791,
                .59283-1.65997-.00006,0,.00006-4-5.99994-4-5.99994-.23004-.33002-.23004-.77002,0-1.09998Zm21.82996,30.54999c0,
                .54999-.45001,1-1,1H16.00042c-.54999,0-1-.45001-1-1v-1c0-.54999,.45001-1,1-1H48.00042c.54999,0,1,.45001,1,
                1v1Zm-26-9c0-.54999,.45001-1,1-1h1c.54999,0,1,.45001,1,1s-.45001,1-1,1h-1c-.54999,0-1-.45001-1-1Zm6,0c.10938-3.95459,
                5.89124-3.9538,6,.00006-.10938,3.95447-5.89117,3.95367-6-.00006Zm9,0c0-.54999,.45001-1,1-1h1c.54999,0,1,.45001,1,
                1s-.45001,1-1,1h-1c-.54999,0-1-.45001-1-1Zm11-8c0,.54999-.45001,1-1,1H16.00042c-.54999,0-1-.45001-1-1v-1c0-.54999,
                .45001-1,1-1H48.00042c.54999,0,1,.45001,1,1v1Z"/>
        </symbol>
        <symbol id="flag" viewBox="0 0 50 50">
            <path fill="currentColor" d="M46,3.7c-1.2,0-2.3,0.8-2.8,1.8H6.8C6.3,4.5,5.3,3.7,4,3.7c-1.7,0-3,1.4-3,3c0,
                1.7,1.3,3,3,3c1.2,0,2.3-0.8,2.8-1.8h8.8V10   h-3.9c-5.3,12.1,5.3,24.2,0,36.3c5.5-2.6,10.4-5.1,
                14.8-7.7c4.5,2.6,8.5,5.1,11.9,7.7c5.3-12.1-5.3-24.2,0-36.3h-3.9V7.9h8.8   C43.7,9,44.8,9.7,46,
                9.7c1.7,0,3-1.3,3-3C49,5.1,47.7,3.7,46,3.7z M17.2,7.9h6.9V10h-6.9V7.9z M29.3,32.9L25,30.7l-4.3,
                2.2l0.8-4.7   l-3.4-3.3l4.8-0.7l2.1-4.3l2.1,4.3l4.8,0.7l-3.4,3.3L29.3,32.9z M32.8,10h-6.9V7.9h6.9V10z"/>
        </symbol>
        <symbol id="click" viewBox="0 0 64 64">
            <path fill="currentColor" d="M52 6h6v6a1 1 0 0 0 2 0V5a1 1 0 0 0-1-1h-7a1 1 0 0 0 0 2zm-32 6V6h6a1 1 0 0 0 
                0-2h-7a1 1 0 0 0-1 1v7a1 1 0 0 0 2 0zm14-6h10a1 1 0 0 0 0-2H34a1 1 0 0 0 0 2zm24 14v10a1 1 0 0 0 2 
                0V20a1 1 0 0 0-2 0zM44 44h-9.999a1 1 0 0 0 0 2h10a1 1 0 0 0 0-2zM18 20v10a1 1 0 0 0 2 0V20a1 1 0 0 0-2 
                0zm40 18v6h-6a1 1 0 0 0 0 2h7a1 1 0 0 0 1-1v-7a1 1 0 0 0-2 0z"/>
            <path fill="currentColor" d="M49.401 15.922a1.001 1.001 0 0 0-1.268-1.268l-6.42 2.177-5.432-4.054a1 1 0 0 
                0-1.598.814l.086 6.778-5.535 3.914a1.002 1.002 0 0 0 .28 1.772l6.475 2.012L38 34.54a1.001 1.001 0 0 0 
                1.772.28l3.913-5.534 6.778.086a1 1 0 0 0 .815-1.598l-4.054-5.433 2.176-6.42z"/>
            <path fill="currentColor" d="m35.384 32.86-.994-3.196-3.278-1.018L5.294 54.465a1 1 0 0 0 0 1.414l2.828 
                2.828a1 1 0 0 0 1.414 0zm-4.634-1.023-4.95 4.95a1 1 0 0 0 1.414 1.414l4.95-4.95a1 1 0 0 0-1.414-1.414z"/>
            <circle fill="currentColor" cx="20.231" cy="39.255" r="1" transform="rotate(-45)"/>
            <circle fill="currentColor" cx="9.231" cy="36.255" r="1" transform="rotate(-45)"/>
            <circle fill="currentColor" cx="9.231" cy="54.255" r="1" transform="rotate(-45)"/>
            <circle fill="currentColor" cx="20.231" cy="51.255" r="1" transform="rotate(-45)"/>
        </symbol>
        <symbol id="closeCross" viewBox="0 0 64 64"> 
            <path fill="currentColor" d="M42.76,32,59.54,48.79a7.54,7.54,0,0,1,0,10.65l-.11.11a7.54,7.54,0,0,1-10.65,
                0L32,42.76,15.21,59.54a7.54,7.54,0,0,1-10.65,0l-.11-.11a7.54,7.54,0,0,1,0-10.65L21.24,32,4.46,
                15.21a7.54,7.54,0,0,1,0-10.65l.11-.11a7.54,7.54,0,0,1,10.65,0L32,21.24,48.79,4.46a7.54,7.54,0,0,1,
                10.65,0l.11.11a7.54,7.54,0,0,1,0,10.65Z"/>
        </symbol>
        <symbol id="fairy" viewBox="0 0 50 50">
            <path fill="currentColor" d="M31.9725,35.0265c0,0,0.731,3.6334-0.086,5.0739c0,0-0.3655,1.032-2.9024,
                0.903c0,0-3.0007,3.3389-5.7302,4.9415   c0,0-1.4023,1.0267-2.0784,1.2771c0,0,0.8013,1.3522-0.9265,
                1.7779c0,0-0.8264,0.025-1.1269-0.8514c0,0-0.6511,0.9516-0.6511-0.626   c0,0,0.7012-1.2521,
                1.1018-1.2771c0,0,0.9015-0.7763,1.0016-1.0267c0,0,0.601-1.3272,1.3773-0.3005c0,0,0.3255,0.1753,
                0.601-0.0501   c0,0,0.9766-0.7262,1.1018-1.1519c0,0,1.4273-2.7295,1.853-3.1051c0,
                0-2.9799-0.8514-4.3321-1.0517   c0,0-0.0501,1.4273-1.6527,0.9015c0,0-0.9766-0.8013,0.0501-1.853c0,
                0-0.5259-0.5259-0.1502-0.6511   c0,0,1.7529,0.0751,2.1786-0.0751c0,0,1.4023-0.4758,1.7028,
                0.0751c0,0,0,0.5509-0.1502,0.5509c0,0,0.1252,0.3506,0.4507,0.3506   c0,0,0.8013,0.1753,1.3522,
                0.025c0,0,2.2537-0.5509,2.4039-0.5259c0,0,0.601-2.3288,0.5509-2.7545c0,0-1.4524-1.853-1.5275-2.7044   
                c0,0-1.2771,0.5759-2.0033-0.025c0,0,1.0267-0.601,1.2771-1.7278c0,0,0.9015-2.9298,4.8079-3.3806c0,0,
                0.3506-0.7512,0.4257-0.7512   c0,0-0.025-1.3021-0.626-2.2787c0,0-1.0768,1.7278-1.2771,1.7278c0,
                0-0.1502,1.202-4.0817,2.3539c0,0-0.601,0.1252-1.5275-0.626   c0,0-1.3021,0.0751-1.4023-0.2755c0,
                0,0.9516-0.2254,1.1519-0.1002c0,0-0.8079-0.4629-1.0947-0.4798   c0,0-0.8434-0.506-0.4723-0.6916c0,
                0,0.5229,0.253,1.2482,0.2193c0,0-0.8265-0.2868-0.8097-0.7253c0,0,0.7759,0.388,1.0964,0.3711   
                c0,0,0.8603,0.0169,1.9567,1.2482c0,0,0.5229-0.1181,0.7253-0.4048c0,0,0.9277-1.0964,1.1133-1.1133   
                c0.1855-0.0169-1.3983-0.4506-1.5034-1.6861c0,0-6.0586,0.1193-11.8342-6.7623c0,0-2.4577-3.154-5.6527-4.3829   
                c0,0,3.4817-3.236,12.5342,2.6215c0,0,9.0115,5.8165,9.2983,5.9394c0,0,0.4932-0.2994,0.7952-0.5409   
                c0,0,0.0805-0.9259-0.3422-1.3889c0,0-0.4831-0.4227-0.5837-0.4227c0,0-3.2408-0.3825-3.4622-4.0057   
                c0,0-0.1409-0.3422-0.1208-0.5032c0,0-1.2681,1.2883-2.4155-0.6039c0,0-0.9461-2.5966,1.248-3.5628   
                c0,0-1.8316-8.8176-0.2595-9.9406c0,0,0.025,1.4723,0.524,2.171c0,0,4.0176,8.0851,4.2921,9.4575c0,0,
                1.597-1.6969,2.5702-1.647   c0,0-0.025,0.1747-0.1996,0.2495c0,0,2.2326-0.137,2.8254,0.9879c0,
                0-0.2888-0.0608-0.304,0.1064c0,0,1.0337,0.9729,0.1672,2.4019   c0,0-0.0912-0.152-0.0608-0.228c0,
                0-0.2888,0.9577-0.5625,1.0489c0,0-0.5929-1.0033-0.7145-1.0641c0,0,0.1368,1.0185-0.0304,1.1401   
                c0,0,0.1216,0.1824,0.3192,0.228c0,0-0.1824,0.1824-0.2736,0.1824c0,0,0.076,0.6081,0.2736,0.6689c0,
                0,0.9729,1.0489,0.0456,1.9915   c0,0-0.5017,1.4594-1.4138,1.4442c0,0,0.0152,0.5321,0.3192,0.6385c0,
                0,0.4498,0.1101,0.893-0.0092   c0,0,0.6306-0.1704,1.1249,0.4943c0,0,0.9715,1.4658,2.5907,1.8748c0,
                0,1.1078-1.6703,1.6021-2.4543   c0,0,0.1513-1.0527,1.4614-1.2649c0,0,0.4616-0.2121,0.6238-0.5615c0,
                0,0.2371,0.0374,0.0499,0.4741   c0,0-0.2246,0.262-0.3244,0.2994c0,0,0.3493-0.1372,0.4866-0.0499c0,
                0,0.5615-0.3743,0.7112-0.549c0,0-0.0998-0.5365,0.3119-0.4616   c0,0-0.1123-0.3369,0.1747-0.2246c0,
                0,0.1123,0.9732-0.1747,1.0356c0,0-0.0499,0.4741-0.3494,0.5989   c0,0-0.2371,0.7736-0.8359,0.8359c0,
                0-1.1728,0.0374-1.3225,0.1497c0,0-0.6623,1.5873-0.6487,2.27c0,0-0.3277,1.9251-1.3107,1.9251   
                c0,0-1.6247-0.3413-2.1299-0.6827c-0.4801,1.7654-1.0101,3.1514-2.3986,4.6342c0,0,0,2.3051,0.0779,2.7724   
                c0,0-0.3115,1.4952-0.4673,1.5731c0,0-0.0156,0.9189,0.0623,0.9812c0,0,0.2648,0.5295,0.1713,0.6697   
                C32.7506,35.1086,32.2847,35.2248,31.9725,35.0265z"/>
        </symbol>
        <symbol id="feathersCross" viewBox="0 0 512 512">
            <path fill="currentColor" d="M58.31 24.814L44.187 90.339 27.05 50.894c-3.463 13.536-3.63 28.752-2.328 42.395 7.427 74.81 70.83 162.556 154.83 236.173 15.377-15.942 30.388-32.237 44.783-48.732 6.82-7.815 13.5-15.678 20.018-23.568-59.05-73.228-104.055-148.414-115.58-214.524-4.027-11.108-15.646-14.908-25.596-17.36l11.53 19.868-31.305-22.445c-8.441-.189-17.618.604-25.092 2.113zm370.083-2.107c-2.92 13.842-5.738 27.685-15.046 41.527-.164-13.921-2.092-26.96-7.856-38.082-8.462 2.643-20.526 7.494-22.291 16.486-13.393 76.824-71.978 165.906-145.301 249.926C172.826 367.13 95.984 437.277 27.608 489.355c80.91-12.026 184.614-63.92 272.556-133.086 27.835-21.892 54.063-45.515 77.6-70.025-6.727 1.124-13.617 1.631-20.291 1.77l58.447-45.325c39.982-50.437 66.671-102.466 71.33-149.4.915-9.209 1.368-22.729-.642-34.805-2.01-12.077-6.486-21.931-13.252-26.371-8.677-5.693-24.034-9.17-39.578-9.45a98.183 98.183 0 0 0-5.385.044zM331.34 354.146a859.987 859.987 0 0 1-20.049 16.271 870.556 870.556 0 0 1-39.12 29.034c22.924 14.884 46.287 28.409 69.511 40.25a13010.71 13010.71 0 0 1 57.932 7.04c-5.536 5.312-11.915 8.882-18.942 11.292 36.526 15.689 71.873 26.592 103.694 31.322-49.14-37.427-102.652-84.185-153.026-135.209z"/>
        </symbol>
        <symbol id="mushroom" viewBox="0 0 512 512">
            <path fill="currentColor" d="M278.184 23.85c-7.308-.07-14.842 1.623-22.54 4.87-.622 8.336.112 17.717 2.513 26.449 3.557 12.938 10.511 24.183 20.761 30.386 9.331 5.647 21.937 7.9 40.162 2.512-3.313-7.037-6.408-13.858-9.328-20.219-6.409-13.962-12.187-25.902-17.685-33.611-5.498-7.71-9.568-10.346-13.883-10.387zm-40.717 15.153c-8.23 5.77-16.587 13.054-25.008 21.658-10.353 10.577-20.708 22.998-30.988 36.525 16.667 7.99 28.338 23.429 28.338 41.867 0 27.1-25.197 47.739-54.44 47.739-12.098 0-23.497-3.54-32.712-9.602-16.768 18.15-36.758 36.094-54.217 53.512-13.134 13.102-24.787 25.84-32.36 37.318-7.572 11.478-10.653 21.173-9.338 28.652 1.55 8.815 8.246 17.272 21.018 25.211 12.772 7.94 31.127 14.821 53.03 20.15 4.862 1.184 9.924 2.281 15.115 3.317a556.512 556.512 0 0 1 4.689-11.717c-12.85-3.626-23.03-9.762-29.27-18.644-4.816-6.856-6.363-15.362-4.677-23.826-43.658-38.757 37.63-90.032 56.652-49.82 9.162-3.47 18.94-6.288 29.113-8.583 24.4-5.502 51.298-7.937 78.17-8.312a566.841 566.841 0 0 1 26.77.273c35.431 1.182 69.269 5.454 95.445 10.748 13.088 2.648 24.24 5.537 32.916 8.54 4.338 1.5 8.053 3.018 11.23 4.693 3.179 1.674 5.908 3.215 8.356 6.615 21.523 29.898 4.995 67.307-23.06 75.918a228.827 228.827 0 0 1 3.4 9.521c18.19-4.32 37.743-9.87 53.717-17.548-7.212-8.34-11.586-19.363-11.586-31.303 0-15.037 6.94-28.617 17.748-37.217-5.637-6.602-12.25-13.356-19.64-20.24-14.225-13.25-30.732-26.752-46.743-40.766-22.075 26.075-61.685 27.981-79.691 13.694-22.675-19.321-22.258-55.489-1.528-80.436a67.633 67.633 0 0 1 14.264-12.89 380.021 380.021 0 0 1-5.086-9.618c-23.298 7.491-42.938 5.332-57.496-3.478-15.3-9.26-24.362-24.882-28.797-41.012a96.792 96.792 0 0 1-3.334-20.94zM170.541 112c-13.552 18.032-23.067 35.542-35.95 51.492 5.8 3.312 12.902 5.299 20.778 5.299 20.95 0 36.44-14.05 36.44-29.739 0-11.573-8.435-22.245-21.268-27.052zm170.791 17.59c-23.324 15.8-27.303 52.993-10.384 63.94 20.414 13.21 44.116 1.848 54.773-11.886-17.284-15.544-32.832-33.808-44.389-52.055zM94.392 274.71c8.271-10.582 19.145-18.998 31.813-25.7-9.8-22.51-49.318 12.963-31.812 25.7zm161.12-32.291c-8.38.042-17.535.34-25.025.763l3.232 25.254c7.108-.796 14.01-1.646 20.168-2.119zm16.5 22.65c5.992-.305 11.94-.5 17.793-.568l5.38-20.881c-7.841-.486-18.388-.799-21.88-.894zm-59.492-20.475c-7.897.803-15.634 1.843-23.121 3.141l9.22 26.344c5.561-1.121 11.354-2.15 17.278-3.1zm100.88.473l-5.066 19.656c7.178.273 14.089.779 20.635 1.53l11.662-17.989a598.712 598.712 0 0 0-27.23-3.197zm46.67 6.3l-11.767 18.151c5.595 1.428 10.53 2.875 15.324 4.953l19.69-18.209c-8.179-1.988-15.6-3.515-23.246-4.894zm-188.44.079a195.38 195.38 0 0 0-16.366 4.81l12.025 25.77a253.462 253.462 0 0 1 13.67-3.922zM403.3 262.3l-24.56 22.711c1.602 1.897 2.717 3.857 3.868 5.83l34.478-10.002c-1.94-10.183-5.378-15.24-13.787-18.539zm-264.722.768c-6.196 3.002-11.823 6.348-16.785 10.043l20.645 20.012c2.42-1.656 5.142-3.081 8.062-4.508zm337.692 5.96c-6.356 5.19-10.5 13.394-10.5 22.876 0 8.835 3.6 16.56 9.232 21.771 6.923-5.51 10.087-10.786 10.453-15.406.73-9.19-2.688-18.982-9.185-29.24zm-325.932 41.26c-30.59 68.297-41.478 96.049-28.799 155.995 3.377 15.964 100.92 23.155 152.487 21.68-1.331-11.917-2.927-31.423-2.045-51.286.708-15.96 2.876-32.22 8.812-45.73 5.937-13.51 17.363-24.953 33.442-25.662 16.577-.731 29.82 8.628 38.187 20.945 8.368 12.317 13.195 27.723 16.38 42.914 3.884 18.54 5.155 36.888 5.565 48.442 5.53-1.792 12.394-3.46 16.22-7.112 14.538-62.25 11.72-111.89-24.772-172.691-11.928-21.932-204.143-16.48-215.477 12.506zm-41.57-24.734c-4.67 7.298-6.647 13.299-2.715 19.086 3.169 4.51 10.563 9.343 21.705 12.197a1541.54 1541.54 0 0 1 3.983-9.013zm304.664 15.09l-21.95 6.367c1.271 2.506 2.474 5 3.64 7.489 7.459-1.639 14.22-6.793 18.31-13.856zM246.25 317.061c-6.284 29.944-9.3 55.793-7.916 83.795-30.594 3.96-65.724 3.13-90.535-2.533 3.118-27.371 8.504-58.314 18.649-78.861 29.318-5.2 52.538-8.855 79.802-2.4zm-37.008 13.844a360.228 360.228 0 0 0-3.439 17.506l15.984.289c.719-5.88 1.618-11.723 2.754-17.42-5.13-.515-10.369-.508-15.299-.375zm-18.716 1.48c-4.111.557-8.72-.246-12.028.583-1.742 4.044-2.443 10.062-3.691 14.882l12.799.23a368.846 368.846 0 0 1 2.92-15.695zm-19.416 33.4c-1.042 6.164-1.953 12.435-2.858 18.534 4.913.794 10.118 1.347 15.44 1.685.281-6.663.771-13.318 1.486-19.964zm32.142.583a291.763 291.763 0 0 0-1.556 19.976c6.24-.14 12.382-.53 18.138-1.162-.094-6.014.036-12.228.373-18.508zm111.776 16.902c-22.102 4.045-24.23 37.056-25.065 54.207-.865 19.481.862 38.912 2.145 50.002 22.329-1.37 44.217-2.54 64.351-6.006-.26-10.359-1.283-29.588-5.275-48.635-4.537-19.923-14.8-49.702-36.156-49.568zm24.377 45.631l2.103 17.877-17.902 2.105-2.104-17.875z"/>
        </symbol>
        <symbol id="sparkles" viewBox="0 0 512 512">
            <path fill="currentColor" d="M237.4 20.73c-6.1 42.1-26.8 64.2-63.9 64 31.6 4.5 63.8 8 63.9 64.07-.6-46.1 24.5-63.07 64.1-64.07-38-1.5-64.9-16.3-64.1-64zm127.8 11.58c-9.1 14.25-20.8 21.29-38.9 10.28 14.9 11.79 18.6 24.76 10.2 38.97 8.9-11.18 17.5-22.73 39-10.27-17.8-10.06-18.8-23.57-10.3-38.98zM59.68 41.69c-2.7 18.8-12 28.6-28.5 28.5 14.1 2 28.4 3.6 28.5 28.52-.3-20.5 10.9-28.12 28.5-28.52-16.9-.7-28.9-7.3-28.5-28.5zM431 66.28c-2.7 18.8-12 28.6-28.5 28.5 14.1 2 28.4 3.6 28.5 28.52-.3-20.5 10.9-28.12 28.5-28.52-16.9-.7-28.9-7.3-28.5-28.5zM120.3 116.4c-15.8 53.7-47.76 48-79.35 43.4C76.6 170 90.3 197.1 84.28 239.2c12.66-46 42.62-52.6 79.42-43.4-37.6-12.1-56.9-35.4-43.4-79.4zm187 5c-8.8 61.6-39.3 94-93.6 93.7 46.2 6.5 93.6 11.7 93.6 93.7-.8-67.3 35.9-92.2 93.8-93.7-55.5-2.2-94.9-23.9-93.8-93.7zm136.8 38.3c-13.1 21.6-29.5 28.8-49.7 20.1 16.3 9.7 33 19.1 20.1 49.6 10.3-25.2 27.9-28.7 49.7-20-20.3-9.7-31.6-23.9-20.1-49.7zM50.7 243.2c9.16 16.7 7.63 30.1-5.61 40 12.46-6.9 24.85-14.3 39.91 5.6-12.57-16.2-8.2-29 5.61-40-13.92 9.7-27.47 11.6-39.91-5.6zm137.2.3c11.4 26.8-.5 41.3-21.7 50.9 22.7-8.5 40.8-4.5 50.9 21.7-12.7-31.8 4.8-41.2 21.7-50.9-21 8.5-37.8.9-50.9-21.7zm228 12.6c-26.6 64.7-68.7 91.7-127.8 76.4 48.6 19.8 98.8 38.5 76.4 127.9 17.5-73.7 64.4-90.7 127.9-76.5-59.9-17.5-96.9-52-76.5-127.8zM99.94 295.5c15.66 57.8.86 98.1-47.32 118.5 43.46-11.8 87.38-25.2 118.68 47.4-26.4-59.3-3.4-95.4 47.3-118.8-50 19.2-93.1 15-118.66-47.1zm169.36 61c-21.8 20.6-43 23.6-63.2 7.3 15.5 16.3 31.6 32.4 7.2 63.3 19.8-25.6 41.2-24.1 63.3-7.3-20.2-17.4-28.6-37.5-7.3-63.3zM443.2 404c-2.7 18.8-12 28.6-28.5 28.5 14.1 2 28.4 3.6 28.5 28.5-.3-20.5 10.9-28.1 28.5-28.5-16.9-.7-28.9-7.3-28.5-28.5zm-169.7 36c-2.7 18.8-12 28.6-28.5 28.5 14.1 2 28.4 3.6 28.5 28.5-.3-20.5 10.9-28.1 28.5-28.5-16.9-.7-28.9-7.3-28.5-28.5z"/>
        </symbol>
        <symbol id="stars" viewBox="0 0 512 512">
            <path fill="currentColor" d="M143.627 36.361c-2.18 0-16.495 38.303-18.258 39.584-1.763 1.281-42.615 3.06-43.289 5.133-.673 2.073 31.33 27.523 32.004 29.596.674 2.073-10.26 41.475-8.496 42.756 1.763 1.28 35.86-21.291 38.039-21.291 2.18 0 36.276 22.572 38.039 21.29 1.763-1.28-9.17-40.682-8.496-42.755.673-2.073 32.677-27.523 32.004-29.596-.674-2.073-41.526-3.852-43.29-5.133-1.763-1.28-16.077-39.584-18.257-39.584zm224.746 0c-2.18 0-16.494 38.303-18.258 39.584-1.763 1.281-42.615 3.06-43.289 5.133-.673 2.073 31.33 27.523 32.004 29.596.674 2.073-10.26 41.475-8.496 42.756 1.763 1.28 35.86-21.291 38.039-21.291 2.18 0 36.276 22.572 38.04 21.29 1.762-1.28-9.17-40.682-8.497-42.755.674-2.073 32.677-27.523 32.004-29.596-.674-2.073-41.526-3.852-43.29-5.133-1.762-1.28-16.077-39.584-18.257-39.584zM256 39.883c-7.12 0-53.884 125.123-59.645 129.308-5.76 4.185-139.211 9.996-141.412 16.768-2.2 6.772 102.349 89.912 104.55 96.684 2.2 6.771-33.513 135.486-27.753 139.671C137.5 426.5 248.88 352.76 256 352.76c7.12 0 118.5 73.74 124.26 69.554 5.76-4.185-29.952-132.9-27.752-139.671 2.2-6.772 106.749-89.912 104.549-96.684-2.2-6.772-135.652-12.583-141.412-16.768-5.76-4.185-52.525-129.308-59.645-129.308zM77.973 243.102c-2.18 0-16.495 38.302-18.258 39.584-1.763 1.28-42.616 3.06-43.29 5.132-.673 2.073 31.333 27.523 32.007 29.596.673 2.073-10.26 41.475-8.496 42.756 1.763 1.281 35.857-21.291 38.037-21.291 2.18 0 36.275 22.572 38.039 21.29 1.763-1.28-9.17-40.682-8.496-42.755.673-2.073 32.679-27.523 32.005-29.596-.673-2.073-41.525-3.851-43.289-5.132-1.763-1.282-16.08-39.584-18.26-39.584zm356.054 0c-2.18 0-16.496 38.302-18.26 39.584-1.763 1.28-42.615 3.06-43.288 5.132-.674 2.073 31.332 27.523 32.005 29.596.674 2.073-10.26 41.475-8.496 42.756 1.764 1.281 35.86-21.291 38.04-21.291 2.179 0 36.273 22.572 38.036 21.29 1.764-1.28-9.17-40.682-8.496-42.755.674-2.073 32.68-27.523 32.006-29.596-.673-2.073-41.526-3.851-43.289-5.132-1.763-1.282-16.078-39.584-18.258-39.584zM256 369.932c-2.18 0-16.494 38.302-18.258 39.584-1.763 1.28-42.615 3.06-43.289 5.132-.673 2.073 31.33 27.525 32.004 29.598.674 2.073-10.26 41.475-8.496 42.756 1.763 1.281 35.86-21.293 38.039-21.293 2.18 0 36.276 22.574 38.04 21.293 1.762-1.281-9.17-40.683-8.497-42.756.673-2.073 32.677-27.525 32.004-29.598-.674-2.072-41.526-3.851-43.29-5.132-1.763-1.282-16.077-39.584-18.257-39.584z"/>
        </symbol>
        <symbol id="hat" viewBox="0 0 512 512"> 
            <path fill="currentColor" d="M313.203 25.94l-.133 24.67-18.12 16.743 24.67.132 16.743 18.12.133-24.67 18.12-16.743-24.67-.132-16.743-18.12zm91.58 50.12L385.47 91.41l-24.4-3.638 15.35 19.313-3.637 24.4 19.313-15.35 24.4 3.637-15.35-19.312 3.637-24.4zM39.87 80.206l-7.116 16.268 7.637 3.34 256 112 8.247 3.607-.1.227.61.266 7.214-16.492-8.243-3.607-44.113-19.298a102.607 43.83 0 0 1 52.088-6.13A102.607 43.83 0 0 1 414.7 214.22a102.607 43.83 0 0 1-102.608 43.83 102.607 43.83 0 0 1-102.608-43.83 102.607 43.83 0 0 1 8.262-17.162l-32.814-14.358c-12.552 5.49-22.514 11.71-29.192 17.96-7.646 7.16-10.802 13.782-10.802 20.134s3.156 12.975 10.802 20.133c7.646 7.158 19.596 14.274 34.81 20.3 30.43 12.047 73.71 19.835 121.542 19.835 47.832 0 91.11-7.788 121.54-19.836 15.215-6.025 27.165-13.14 34.81-20.3 7.647-7.157 10.804-13.78 10.804-20.132 0-6.352-3.157-12.975-10.803-20.133-7.646-7.16-19.596-14.275-34.81-20.3-30.43-12.048-73.71-19.836-121.54-19.836-26.422 0-51.44 2.386-73.683 6.543L48.117 83.813l-8.246-3.607zm204.903 4.31l.077 16.708-12.16 11.46 16.708-.076 11.46 12.16-.075-16.708L272.94 96.6l-16.706.075-11.46-12.16zM215.94 286.592c-.147 15.018-.44 29.74-1.038 44.308 67.544 29.705 126.598 29.746 194.383.113-.6-14.603-.894-29.364-1.043-44.42-27.33 7.925-60.396 12.467-96.15 12.467-35.756 0-68.82-4.54-96.15-12.467zm-2.004 63.467c-.555 8.977-1.254 17.925-2.13 26.877l.555.25c69.454 31.175 129.756 31.177 199.486-.006l.535-.238c-.874-8.92-1.572-17.838-2.126-26.785-66.975 27.646-129.55 27.616-196.318-.097zm200.552 45.595c-70.003 30.062-135.025 30.067-204.793.002-2.287 17.913-5.385 35.95-9.603 54.403 0 48 224 48 224 0-4.218-18.455-7.316-36.49-9.604-54.405z"/>
        </symbol>
        <symbol id="broom" viewBox="0 0 512 512">
            <path fill="currentColor" d="M445.1 22.93c-3.8.11-7.9 1.81-11.5 5.98C379.2 107.6 318.8 184.7 257.3 261.4c2.3.9 4.5 1.9 6.5 3.1 4.5 2.5 8.4 5.6 11.7 9C339 197.6 401.3 121.1 455.6 40.87c4.3-9.84 1.1-13.83-3.8-16.4-1.2-.65-2.6-1.13-4.1-1.37-.8-.13-1.7-.19-2.6-.17zM63.14 46.41c7.69 13.5 16.6 26.49 2.25 47.15 10.45-10.72 22.95-21.51 42.41-1.4-4.2-10.17-17.26-17.99-6.1-33.71-17.06 8.58-25.86 0-38.56-12.04zM267.2 94.02c-7.4 11.08-18.3 14.68-32.6 10.28 14.3 4.9 21.5 14.5 17.7 31.7 8.3-15.5 18.1-21.4 29.5-17.1-6.4-6.3-17.3-7-14.6-24.88zm181.5 46.78c-4 22.5-6 45.9-43.2 50.9 22.9.8 48.1 3.7 51.7 46.2 5-15-3-37.8 25.6-41.3-28.6-10.4-30.7-29.2-34.1-55.8zm-358.92 96c2.1 24.8-8.1 41.4-37.08 45.6 29.38 3.7 44.88 15.4 45.88 35.5 5.62-13.5-.7-30.8 28.72-36.8-22.1-5.2-34.82-19.7-37.52-44.3zm155.42 39.7l-13.4 16.6c1.5.8 3 1.7 4.5 2.6 4.4 2.8 8.7 6.1 12.3 9.8l15.2-18c-2.3-2.7-5.4-5.4-8.9-7.4-3-1.7-6.3-3-9.7-3.6zM208 304.1c-.8 0-1.5 0-2 .1-1 .2-1.5.5-1.7.7l-.5.6-.6.4c-46.9 36-117.06 70.7-173.97 104.3 14.77 4.4 29.83 9.7 44.58 15.6l36.39-30.5L88.37 432c17.03 7.6 33.43 16.2 48.03 25.6l27.3-43.8-12.2 54.2c9 6.7 17 13.8 23.8 21.1 27.2-59.1 63-100.2 67.7-154.8l.1-.6.1-.6c.6-2.3-.2-5.7-3.1-10-3-4.2-7.9-8.7-13.4-12.2-5.4-3.4-11.5-5.8-15.9-6.5-1.1-.2-2-.3-2.8-.3zm111.2.2c9.7 13.1 9.9 25.8-4.7 38.3 17.6-8.2 30.3-7.2 37.8 3.6-1.7-9.4-11.1-16.8 3-30.4-14 4.8-26.1 1.2-36.1-11.5zm56.7 90.8c11.7 17.4 20 29.5 4.1 47.8 23.4-10 29.5 7 41.2 13.8-19.9-26.8-2.6-39.3 14.1-49.5-30.5 12.8-44.4-.3-59.4-12.1z"/>
        </symbol>
        <symbol id="feather" viewBox="0 0 445.25 445.25">
            <path fill="currentColor" d="M441.709,50.352c-2.124-7.662-13.521-8.548-21.907-8.548c-15.321,0-37.926,3.511-62.018,9.631l-2.704,0.687l-11.158,35.549  l-8.598-29.896l-4.932,1.619c-11.359,3.731-22.034,7.805-31.729,12.109l-2.064,0.917l-7.975,25.407l-5.445-18.93l-5.535,3.189  c-4.95,2.852-9.484,5.783-13.477,8.71c-26.845,19.687-71.883,71.042-105.081,112.54c-13.543,16.929-28.216,36.083-40.636,53.521  c-0.468-1.63-0.979-3.236-1.57-4.789c-1.406-3.732-3.073-7.26-4.943-10.46c-1.868-3.2-3.865-6.139-5.936-8.733  c-2.063-2.6-4.154-4.915-6.181-6.918c-2.017-2.019-3.991-3.734-5.752-5.221c-1.784-1.481-3.374-2.721-4.728-3.737  c-1.335-1.023-2.454-1.814-3.203-2.376c-0.783-0.56-1.201-0.858-1.201-0.858s-0.063,0.513-0.113,1.477  c-0.029,0.486-0.047,1.082-0.024,1.764c0.005,0.692,0.034,1.491,0.107,2.356c0.236,3.502,1.057,8.342,2.266,13.688  c0.617,2.678,1.296,5.489,2.04,8.374c0.72,2.804,1.479,5.761,2.265,8.819c0.781,2.977,1.463,5.993,2.178,8.99  c0.714,3,1.281,6.006,1.842,8.993c0.543,2.988,0.964,5.964,1.348,8.922c0.299,2.958,0.646,5.901,0.792,8.81  c0.048,0.691,0.095,1.376,0.142,2.055c-0.794,1.34-1.534,2.628-2.235,3.879c-0.128-1.013-0.279-2.024-0.456-3.028  c-0.761-4.055-1.807-8.047-3.225-11.778c-1.406-3.732-3.073-7.26-4.943-10.46c-1.868-3.2-3.865-6.139-5.936-8.733  c-2.063-2.6-4.154-4.915-6.181-6.918c-2.017-2.019-3.991-3.734-5.752-5.221c-1.784-1.481-3.374-2.721-4.728-3.737  c-1.335-1.023-2.454-1.814-3.203-2.376c-0.783-0.56-1.201-0.858-1.201-0.858s-0.063,0.513-0.113,1.477  c-0.029,0.486-0.047,1.082-0.024,1.764c0.005,0.692,0.034,1.491,0.107,2.356c0.236,3.502,1.057,8.342,2.266,13.688  c0.617,2.678,1.296,5.489,2.04,8.374c0.72,2.804,1.479,5.761,2.265,8.819c0.781,2.977,1.463,5.993,2.178,8.99  c0.714,3,1.281,6.006,1.842,8.993c0.543,2.988,0.964,5.964,1.348,8.922c0.299,2.958,0.646,5.901,0.792,8.81  c0.051,0.732,0.101,1.458,0.15,2.177c0.009,0.72,0.042,1.441,0.076,2.158c0.097,1.438,0.074,2.852,0.123,4.258  c0.062,1.188,0.031,2.347,0.034,3.499L1.961,394.122c-2.535,2.536-2.067,4.958-1.563,6.176c0.792,1.913,2.658,3.148,4.754,3.148  c1.228,0,2.249-0.425,2.909-0.745l30.675-14.846c1.485-0.72,3.408-2.089,4.573-3.257l41.892-42.007  c0.466-0.004,0.931-0.012,1.408,0.003c1.362,0.027,2.734-0.04,4.143,0.034c1.406,0.048,2.82,0.026,4.258,0.123  c0.718,0.035,1.438,0.068,2.158,0.077c0.719,0.05,1.445,0.1,2.177,0.15c2.909,0.146,5.852,0.493,8.81,0.792  c2.958,0.384,5.935,0.805,8.922,1.348c2.987,0.561,5.993,1.129,8.993,1.842c2.997,0.715,6.013,1.397,8.99,2.178  c3.059,0.785,6.016,1.545,8.819,2.265c2.885,0.743,5.695,1.423,8.374,2.04c5.346,1.209,10.185,2.03,13.688,2.266  c0.865,0.072,1.664,0.102,2.356,0.107c0.682,0.024,1.278,0.005,1.764-0.024c0.965-0.05,1.477-0.113,1.477-0.113  s-0.299-0.418-0.858-1.201c-0.562-0.748-1.354-1.867-2.376-3.203c-1.016-1.354-2.256-2.944-3.737-4.728  c-1.487-1.761-3.202-3.735-5.221-5.752c-2.003-2.027-4.318-4.118-6.918-6.181c-2.594-2.071-5.532-4.068-8.733-5.936  c-3.2-1.87-6.728-3.538-10.46-4.943c-3.73-1.418-7.722-2.464-11.778-3.225c-3.443-0.609-6.951-0.902-10.426-0.96  c1.285-0.592,2.659-1.24,4.137-1.949c0.201,0.005,0.399-0.001,0.602,0.01c1.406,0.048,2.82,0.026,4.258,0.123  c0.718,0.035,1.438,0.068,2.158,0.077c0.719,0.05,1.445,0.1,2.177,0.15c2.909,0.146,5.852,0.493,8.81,0.792  c2.958,0.384,5.935,0.805,8.922,1.348c2.987,0.561,5.993,1.129,8.993,1.842c2.997,0.715,6.013,1.397,8.99,2.178  c3.059,0.785,6.016,1.545,8.819,2.265c2.885,0.743,5.695,1.423,8.374,2.04c5.346,1.209,10.185,2.03,13.688,2.266  c0.865,0.072,1.664,0.102,2.356,0.107c0.682,0.024,1.278,0.005,1.764-0.024c0.965-0.05,1.477-0.113,1.477-0.113  s-0.299-0.418-0.858-1.201c-0.562-0.748-1.354-1.867-2.376-3.203c-1.016-1.354-2.256-2.944-3.737-4.728  c-1.487-1.761-3.202-3.735-5.221-5.752c-2.003-2.027-4.318-4.118-6.918-6.181c-2.594-2.071-5.532-4.068-8.733-5.936  c-3.2-1.87-6.728-3.538-10.46-4.943c-0.588-0.224-1.193-0.422-1.793-0.627c6.178-2.739,12.94-5.642,20.37-8.695  c19.607-8.055,39.453-13.133,56.962-17.614c4.665-1.194,9.07-2.321,13.436-3.489l7.445-1.992l-15.487-19.105l40.726,12.839  l1.34-0.316c40.365-9.534,65.503-13.168,66.553-13.318c6.052-0.864,22.727-18.952,27.693-24.476l2.855-3.175l-22.607-27.888  l36.188,11.408l2.129-2.794c3.793-4.977,7.476-10.08,10.946-15.167l2.651-3.888l-27.278-21.133l38.476,2.888l1.552-2.808  C443.174,118.158,450.34,81.48,441.709,50.352z"/>
        </symbol>
        <symbol id="heartSettings" viewBox="0 0 512 512">
            <path fill="currentColor" d="M380.006 47.875c-48.564.002-92.971 35.889-110.682 68.068l-12.379 23.383-13.224-22.918c-31.673-54.89-88.472-74.886-136.377-65.469-47.904 9.415-86.637 46.01-84.475 114.075 1.69 53.225 32.985 91.889 75.262 131.015a128.242 128.242 0 0 1 16.015-14.56l-17.332-30.096 28.569-15.727.092.159.252-.139 16.865 29.357c.523-.217 1.055-.417 1.582-.628a124.819 124.819 0 0 1 31.197-8.36V222.08h32.85v33.918a125.361 125.361 0 0 1 31.986 8.58l16.588-28.912 22.014 12.383 5.656-7.93a54.25 54.25 0 0 1-9.479-19.396l-27.172-2.963 3.266-33.172 25.836 2.54a54.43 54.43 0 0 1 13.797-20.235l-10.166-22.682 30.193-13.51 10.031 22.395a53.606 53.606 0 0 1 5.944-.381c6.468-.04 12.754 1.105 18.633 3.228l14.216-19.912 26.924 19.664-14.715 20.58a53.782 53.782 0 0 1 8.868 21.862l26.123 2.865-3.27 33.174-27.803-3.057a54.966 54.966 0 0 1-12.593 16.49l11.867 26.524-30.192 13.512-11.923-26.64a53.21 53.21 0 0 1-20.64-1.835l-17.196 23.56-19.397-14.177-7.127 12.326a127.814 127.814 0 0 1 23.906 23.904l30.098-17.332 15.725 28.569-.158.091.138.252-29.357 16.866c.218.523.418 1.055.629 1.582a124.818 124.818 0 0 1 8.36 31.197h23.218c18.074-15.828 36.451-30.563 53.695-45.088 51.649-43.98 95.683-90.716 94.447-154.988-1.976-63.356-41.62-104.098-88.183-115.745a95.72 95.72 0 0 0-21.002-2.312zM327.46 182.219c-14.248-.147-26.259 10.901-27.137 25.281-.905 14.844 10.398 27.604 25.242 28.51 14.846.907 27.607-10.38 28.512-25.225.905-14.843-10.377-27.603-25.223-28.51a28.317 28.317 0 0 0-1.394-.056zM191.92 340.344c-11.525 0-21.96 4.647-29.553 12.162 20.37 18.135 40.624 37.446 58.713 59.17 8.192-9.124 12.587-17.835 12.69-29.73-.645-16.83-9.866-31.296-25.875-38.45a41.895 41.895 0 0 0-15.975-3.152z"/>
        </symbol>
        <symbol id="pagoda" viewBox="0 0 512 512">
            <path fill="currentColor" d="M255.967 23.386c19.704 15.157 49.792 21.65 82.52 27.105 21.419 3.57 43.864 6.501 65.163 9.832-7.28 1.686-14.641 3.4-21.609 4.97-21.25 4.789-41 8.38-45.967 8.321H175.8l-.168.006c-4.61.172-24.44-3.34-45.662-8.181-7.035-1.605-14.48-3.364-21.842-5.09 21.346-3.342 43.848-6.279 65.32-9.858 32.727-5.454 62.815-11.948 82.52-27.105zm55 67.228v16h-110v-16zm3.394 34a24.977 24.977 0 0 0 4.563 4.28c3.799 2.763 8.317 4.922 13.701 7.076 10.768 4.307 24.987 8.332 41.158 12.375 18.612 4.653 39.434 9.269 60.069 13.865l-50.182 8.404H128.71l-50.54-8.424c20.606-4.59 41.396-9.2 59.98-13.845 16.172-4.043 30.39-8.068 41.159-12.375 5.384-2.154 9.902-4.313 13.7-7.076a24.977 24.977 0 0 0 4.563-4.28zm28.606 62v30h-46v-30zm-64 0v30h-46v-30zm-64 0v30h-46v-30zm131.123 48c1.246 1.65 2.68 3.113 4.156 4.422 3.592 3.184 8.04 6.026 13.383 8.965 10.686 5.877 24.947 11.954 41.178 18.041 20.082 7.531 43.024 14.894 65.33 21.42l-54.914 9.152H96.263l-54.533-9.133c22.327-6.53 45.294-13.9 65.397-21.439 16.23-6.087 30.492-12.164 41.178-18.041 5.343-2.939 9.79-5.781 13.382-8.965 1.477-1.309 2.91-2.772 4.157-4.422zm28.877 80v30h-238v-30zm3.123 48c1.246 1.65 2.68 3.113 4.156 4.422 3.592 3.184 8.04 6.026 13.383 8.965 10.686 5.877 24.947 11.954 41.178 18.041 20.102 7.539 43.07 14.909 65.396 21.44l-54.533 9.132H64.71l-54.913-9.152c22.305-6.526 45.247-13.889 65.33-21.42 16.23-6.087 30.492-12.164 41.178-18.041 5.343-2.939 9.79-5.781 13.382-8.965 1.477-1.309 2.91-2.772 4.157-4.422zm60.877 80v46h-142v-46zm-160 0v46h-46v-46zm-64 0v46h-142v-46z"/>
        </symbol>
        <symbol id="random" viewBox="0 0 512 512">
            <path fill="currentColor" d="M255.76 44.764c-6.176 0-12.353 1.384-17.137 4.152L85.87 137.276c-9.57 5.536-9.57 14.29 0 19.826l152.753 88.36c9.57 5.536 24.703 5.536 34.272 0l152.753-88.36c9.57-5.535 9.57-14.29 0-19.825l-152.753-88.36c-4.785-2.77-10.96-4.153-17.135-4.153zm1.86 12.423a31.953 18.96 0 0 1 21.194 5.536 31.953 18.96 0 0 1-45.187 26.812 31.953 18.96 0 0 1 23.992-32.347zm-119.173 70.188a31.953 18.96 0 0 1 .002 0 31.953 18.96 0 0 1 21.195 5.535 31.953 18.96 0 0 1-45.19 26.813 31.953 18.96 0 0 1 23.992-32.348zm237.903.26a31.953 18.96 0 0 1 .002 0 31.953 18.96 0 0 1 21.195 5.535 31.953 18.96 0 0 1-45.19 26.812 31.953 18.96 0 0 1 23.993-32.347zM75.67 173.84c-5.753-.155-9.664 4.336-9.664 12.28v157.696c0 11.052 7.57 24.163 17.14 29.69l146.93 84.848c9.57 5.526 17.14 1.156 17.14-9.895V290.76c0-11.052-7.57-24.16-17.14-29.688l-146.93-84.847c-2.69-1.555-5.225-2.327-7.476-2.387zm360.773.002c-2.25.06-4.783.83-7.474 2.385l-146.935 84.847c-9.57 5.527-17.14 18.638-17.14 29.69v157.7c0 11.05 7.57 15.418 17.14 9.89L428.97 373.51c9.57-5.527 17.137-18.636 17.137-29.688v-157.7c0-7.942-3.91-12.432-9.664-12.278zM89.297 195.77a31.236 18.008 58.094 0 1 33.818 41.183 31.236 18.008 58.094 1 1-45-25.98 31.236 18.008 58.094 0 1 11.182-15.203zm333.52 0A18.008 31.236 31.906 0 1 434 210.973a18.008 31.236 31.906 0 1-45 25.98 18.008 31.236 31.906 0 1 33.818-41.183zm-165.198 2.314a31.953 18.96 0 0 1 21.194 5.535 31.953 18.96 0 0 1-45.187 26.812 31.953 18.96 0 0 1 23.992-32.348zM89.296 256.77a31.236 18.008 58.094 0 1 33.818 41.183 31.236 18.008 58.094 1 1-45-25.98 31.236 18.008 58.094 0 1 11.182-15.202zm112 3.664a31.236 18.008 58.094 0 1 33.818 41.183 31.236 18.008 58.094 1 1-45-25.98 31.236 18.008 58.094 0 1 11.182-15.203zm109.52 0A18.008 31.236 31.906 0 1 322 275.637a18.008 31.236 31.906 0 1-45 25.98 18.008 31.236 31.906 0 1 33.818-41.183zM366.82 289.1a18.008 31.236 31.906 0 1 .002 0 18.008 31.236 31.906 0 1 11.18 15.203 18.008 31.236 31.906 0 1-45 25.98A18.008 31.236 31.906 0 1 366.82 289.1zM89.297 318.48a31.236 18.008 58.094 0 1 33.818 41.184 31.236 18.008 58.094 1 1-45-25.98 31.236 18.008 58.094 0 1 11.182-15.204zm333.52 0A18.008 31.236 31.906 0 1 434 333.684a18.008 31.236 31.906 0 1-45 25.98 18.008 31.236 31.906 0 1 33.818-41.184zm-221.52 2.954a31.236 18.008 58.094 0 1 33.818 41.183 31.236 18.008 58.094 1 1-45-25.98 31.236 18.008 58.094 0 1 11.182-15.203zm0 61.71a31.236 18.008 58.094 0 1 33.818 41.182 31.236 18.008 58.094 1 1-45-25.98 31.236 18.008 58.094 0 1 11.182-15.203zm109.52 0A18.008 31.236 31.906 0 1 322 398.345a18.008 31.236 31.906 0 1-45 25.98 18.008 31.236 31.906 0 1 33.818-41.183z"/>
        </symbol>
        <symbol id="deleteScroll" viewBox="0 0 512 512">
            <path fill="currentColor" d="M 103.432 17.844 c -1.118 0.005 -2.234 0.032 -3.348 0.08 c -2.547 0.11 -5.083 0.334 -7.604 0.678 c -20.167 2.747 -39.158 13.667 -52.324 33.67 c -24.613 37.4 2.194 98.025 56.625 98.025 c 0.536 0 1.058 -0.012 1.583 -0.022 v 0.704 h 60.565 c -10.758 31.994 -30.298 66.596 -52.448 101.43 c -2.162 3.4 -4.254 6.878 -6.29 10.406 l 34.878 35.733 l -56.263 9.423 c -32.728 85.966 -27.42 182.074 48.277 182.074 v -0.002 l 9.31 0.066 c 23.83 -0.57 46.732 -4.298 61.325 -12.887 c 4.174 -2.458 7.63 -5.237 10.467 -8.42 h -32.446 c -20.33 5.95 -40.8 -6.94 -47.396 -25.922 c -8.956 -25.77 7.52 -52.36 31.867 -60.452 c 5.803 -1.93 11.723 -2.834 17.565 -2.834 v -0.406 h 178.33 c -0.57 -44.403 16.35 -90.125 49.184 -126 l 30.711 -47.188 c -9.3333 8 -9 9 -49 25 c -14 5 -22 6 -71 0 c -20 -6 -38 -9 -57 -47 c -7 -14 -8 -14 -5 -68 C 272 37 222.11 35.29 149.34 28.496 c -14.888 -6.763 -30.547 -10.723 -45.908 -10.652 z m 0.464 18.703 c 13.137 0.043 27.407 3.804 41.247 10.63 l 0.033 -0.07 c 4.667 4.735 8.542 9.737 11.68 14.985 H 82.92 l 10.574 14.78 c 10.608 14.83 19.803 31.99 21.09 42.024 c 0.643 5.017 -0.11 7.167 -1.814 8.836 c -1.705 1.67 -6.228 3.875 -15.99 3.875 c -40.587 0 -56.878 -44.952 -41.012 -69.06 C 66.238 46.64 79.582 39.22 95.002 37.12 c 2.89 -0.395 5.863 -0.583 8.894 -0.573 z M 118.5 80.78 h 46.28 c 4.275 15.734 3.656 33.07 -0.544 51.51 H 131.52 c 1.9 -5.027 2.268 -10.574 1.6 -15.77 c -1.527 -11.913 -7.405 -24.065 -14.62 -35.74 z m 101.553 317.095 c 6.44 6.84 11.192 15.31 13.37 24.914 c 3.797 16.736 3.092 31.208 -1.767 43.204 c -4.526 11.175 -12.576 19.79 -22.29 26 h 237.19 c 14.448 0 24.887 -5.678 32.2 -14.318 c 7.312 -8.64 11.2 -20.514 10.705 -32.352 c -0.186 -4.473 -0.978 -8.913 -2.407 -13.18 l -69.91 -8.205 l 42.017 -20.528 c -8.32 -3.442 -18.64 -5.537 -31.375 -5.537 H 220.053 z m -42.668 0.506 c -1.152 -0.003 -2.306 0.048 -3.457 0.153 c -2.633 0.242 -5.256 0.775 -7.824 1.63 c -15.11 5.02 -25.338 21.54 -20.11 36.583 c 3.673 10.57 15.347 17.71 25.654 13.938 l 1.555 -0.57 h 43.354 c 0.946 -6.36 0.754 -13.882 -1.358 -23.192 c -3.71 -16.358 -20.543 -28.483 -37.815 -28.54 z"/>
            <path stroke="currentColor" stroke-width="2.5" stroke-linecap="round" stroke-linejoin="round" transform="scale(10 10) translate(24 0)" d="M7 7.00006L17 17.0001M7 17.0001L17 7.00006" />        
        </symbol>
        <symbol id="delete" viewBox="0 0 24 24">
            <path fill="currentColor" d="M22,5H17V2a1,1,0,0,0-1-1H8A1,1,0,0,0,7,2V5H2A1,1,0,0,0,2,7H3.117L5.008,22.124A1,1,0,0,0,6,23H18a1,1,0,0,0,.992-.876L20.883,7H22a1,1,0,0,0,0-2ZM9,3h6V5H9Zm8.117,18H6.883L5.133,7H18.867Z"/>
        </symbol>
        <symbol id="logs" viewBox="0 0 512 512">
            <path fill="currentColor" d="M353.86 48.45c-10.626-.16-20.45 3.456-29.14 13.253l-.193.217-50.586 50.098.628.703c3.395 3.7 3.106 9.463-.642 12.804-3.748 3.342-9.505 2.97-12.793-.825l-5.985-6.712c-.784 1.096-1.627 2.16-2.544 3.178-5.116 5.68-11.746 9.448-18.688 11.023l5.438 20.302c2.54 8.98-8.582 15.417-15.102 8.738l-41.2 40.803c1.41-.082 2.83-.135 4.26-.135 40.63 0 73.616 33.616 73.616 74.672 0 .803-.036 1.598-.06 2.395l141.94-153.74c8.252-10.316 9.687-20.888 6.985-31.832C407.08 82.4 399.6 71.29 389.653 62.967c-3.085-2.583-6.396-4.885-9.835-6.854L258.56 182.725c-3.418 3.685-9.193 3.856-12.824.38-3.63-3.478-3.71-9.255-.175-12.83l115.932-121.05c-1.843-.34-3.68-.584-5.494-.694-.715-.042-1.428-.07-2.137-.08zM232.31 85.597c-4.224-.048-8.876 1.842-12.583 5.96-6.327 7.024-5.918 16.11-.913 20.62 5.006 4.508 14.088 3.968 20.415-3.057 6.325-7.024 5.917-16.112.91-20.62-1.877-1.69-4.328-2.672-6.992-2.867-.277-.02-.556-.032-.837-.035zm-27.95 63.94c-7.19-.12-13.63 2.222-19.577 8.925l-.19.217-99.734 98.77c10.89.53 20.967 4.222 29.386 10.167 1.406-11.834 5.547-22.84 11.785-32.332l.44-.67 6.39-8.21c1.915-2.138 3.963-4.148 6.11-6.05l70.907-70.224c-1.372-.268-2.734-.453-4.07-.534-.486-.03-.968-.05-1.448-.057zm193.3 14.415c-2.226.018-4.423.188-6.588.52L245.744 321.88c-2.968 3.93-6.313 7.544-9.976 10.806l-5.715 6.19c9.9 2.162 19.137 6.16 27.34 11.628-.004-.254-.02-.505-.02-.76 0-12.38 4.545-23.756 12.03-32.496l-.087-.086 1.358-1.344c1.008-1.09 2.06-2.135 3.16-3.13L381.01 206.545c8.52-9.363 20.055-13.314 30.816-12.662 10.908.66 21.093 5.423 29.33 12.316 8.238 6.892 14.684 16.035 17.278 26.538.788 3.194 1.158 6.54 1.078 9.922 4.62-9.422 4.9-19.095 2.242-28.918-3.484-12.87-12.614-25.674-24.47-34.967v.002c-11.194-8.77-24.658-14.314-37.27-14.79-.79-.028-1.573-.04-2.354-.034zm11.926 47.852c-5.712-.106-10.696 1.69-15.463 7.064l-.193.216-82.07 81.28c22.277 2.517 40.072 20.28 43.12 42.585l82.31-89.153c4.454-5.58 5.124-10.833 3.665-16.742-1.468-5.945-5.675-12.3-11.35-17.05-5.678-4.75-12.668-7.778-18.867-8.153-.387-.024-.77-.04-1.152-.047zm-222.274 8.097c-4.898 0-9.644.647-14.167 1.85 1.964-.262 3.962-.41 5.994-.41 24.715 0 45.067 19.99 45.067 44.566 0 24.576-20.355 44.567-45.068 44.567-24.718 0-45.07-19.992-45.07-44.567 0-2.83.282-5.593.797-8.277-2.044 5.915-3.166 12.284-3.166 18.94 0 31.482 24.873 56.668 55.613 56.668s55.61-25.185 55.61-56.668c0-31.482-24.87-56.668-55.61-56.668zm-8.173 19.44c-15.12 0-27.07 11.857-27.07 26.566 0 14.71 11.945 26.567 27.07 26.567 15.117 0 27.067-11.858 27.067-26.567 0-14.71-11.944-26.566-27.068-26.566zm-3.388 7.357c8.742 0 16.023 7.276 16.023 16.02s-7.285 16.02-16.023 16.02c-8.742 0-16.025-7.275-16.025-16.02 0-8.743 7.287-16.02 16.025-16.02zm-93.61 28.68c-21.25 0-38.427 17.364-38.427 39.2 0 21.835 17.177 39.2 38.426 39.2 21.25 0 38.426-17.364 38.426-39.2 0-3.01-.338-5.933-.957-8.74-1.208-2.858-2.23-5.813-3.08-8.838-6.297-12.877-19.314-21.623-34.39-21.623zm-.36 11.016c15.59 0 27.085 14.1 27.085 29.823 0 15.724-11.498 29.82-27.086 29.82-15.59 0-27.087-14.098-27.087-29.82 0-15.727 11.5-29.824 27.088-29.824zm372.58.325c-6.907-.118-13.068 2.118-18.79 8.567l-.193.22-96.345 95.415c27.285 1.628 49.25 23.576 51.547 50.926l96.64-104.672c5.384-6.735 6.24-13.283 4.48-20.42-.234-.944-.527-1.893-.868-2.844l-63.383 66.342c-3.41 3.703-9.196 3.888-12.837.41-3.64-3.48-3.72-9.267-.175-12.844l65.103-68.144c.345-.37.72-.71 1.122-1.018-.786-.76-1.604-1.497-2.447-2.203-6.715-5.62-14.988-9.227-22.463-9.68-.467-.028-.93-.046-1.39-.054zm-372.9 14.73c-7.59 0-13.74 7.046-13.74 15.738 0 8.69 6.15 15.736 13.74 15.736s13.743-7.045 13.743-15.736c0-8.69-6.152-15.737-13.742-15.737zm224.952 16.6c-17.17 0-31.04 14.004-31.04 31.694 0 17.69 13.87 31.695 31.04 31.695s31.04-14.006 31.04-31.696-13.87-31.693-31.04-31.693zm-2.285 11.155c11.398 0 19.28 10.28 19.28 21.092 0 10.814-7.884 21.09-19.28 21.09-11.4 0-19.282-10.277-19.282-21.09 0-10.814 7.883-21.092 19.28-21.092zm-163.378 5.13l-14.027 15.192c-2.17 2.835-4.59 5.46-7.235 7.838l-3.986 4.317c9.624 5.793 17.842 13.746 24.006 23.185 6.715-14.72 17.602-27.106 31.113-35.588-11.134-2.634-21.307-7.826-29.87-14.946zm72.31 20.704c-34.83 0-63.015 28.553-63.015 64.192 0 35.64 28.186 64.194 63.016 64.194s63.017-28.554 63.017-64.194c0-35.638-28.188-64.193-63.017-64.193zM68.68 370.114C42.442 374.65 22.5 397.775 22.5 425.96c0 14.03 4.95 26.802 13.146 36.66-5.09-7.662-8.066-16.868-8.064-26.725v-.004c-.005-26.31 21.188-47.994 47.29-47.994 26.105 0 47.298 21.684 47.292 47.996.005 20.913-13.386 38.89-31.986 45.393 22.622-5.065 40.05-24.075 43.076-47.908-.792-4.6-1.207-9.324-1.207-14.145 0-2.07.077-4.125.226-6.16-4.7-20.763-20.513-37.028-40.71-42.11-3.065.528-6.21.817-9.422.817-4.64 0-9.146-.586-13.462-1.665zm140.48.643c27.187 0 49.2 22.702 49.2 50.203 0 27.503-22.016 50.204-49.2 50.204-27.187 0-49.2-22.702-49.2-50.203 0-27.5 22.017-50.202 49.2-50.202zm0 17.998c-17.21 0-31.2 14.195-31.2 32.205 0 18.012 13.983 32.206 31.2 32.206 17.212 0 31.2-14.195 31.2-32.205 0-18.01-13.982-32.204-31.2-32.204zm81.856 8.148c1.256 4.498 2.16 9.143 2.642 13.912 3.67-4.432 8.01-8.273 12.852-11.38-.032.002-.062.003-.094.003-5.38 0-10.554-.9-15.4-2.536zm-216.14 8.992c-16.2 0-29.295 13.238-29.29 29.995v.005c-.005 16.756 13.09 29.994 29.29 29.994 16.197 0 29.295-13.24 29.29-29.995v-.004c.005-16.756-13.093-29.994-29.29-29.994zm133.706.256c8.967 0 14.96 7.945 14.96 15.953 0 8.01-5.993 15.952-14.96 15.952-8.966 0-14.96-7.943-14.96-15.952 0-8.008 5.994-15.953 14.96-15.953zm127.203 2.664c-20.47 0-37.013 16.723-37.013 37.766 0 21.042 16.544 37.766 37.013 37.766 20.47 0 37.012-16.723 37.012-37.766 0-21.042-16.543-37.766-37.012-37.766zM71.833 422.39c8.965 0 14.958 7.943 14.958 15.952 0 8.01-5.992 15.953-14.958 15.953-8.966 0-14.96-7.944-14.96-15.953 0-8.01 5.994-15.953 14.96-15.953zm267.923 1.423c14.727 0 26.683 12.307 26.683 27.037 0 14.73-11.958 27.037-26.684 27.037-14.728 0-26.682-12.308-26.682-27.037 0-14.73 11.955-27.038 26.682-27.038zm0 18c-4.802 0-8.682 3.845-8.682 9.037s3.877 9.037 8.682 9.037c4.8 0 8.683-3.846 8.683-9.037 0-5.193-3.88-9.038-8.684-9.038z"/>
        </symbol>
        <symbol id="caulduron" viewBox="0 0 234.06 234.061">
            <path fill="currentColor" d="M176.197,211.82l-48.682-9.195c0.996-0.641,1.562-1.84,1.33-3.071c-0.307-1.624-1.869-2.689-3.494-2.385l-10.346,1.954    l-0.028-0.215c-0.171-1.328-1.216-2.428-2.605-2.605c-1.65-0.212-3.159,0.955-3.368,2.605l-0.029,0.215l-10.346-1.954    c-1.504-0.279-3.009,0.625-3.433,2.122c-0.371,1.301,0.181,2.644,1.263,3.335l-48.678,9.194c-0.187,0.036-0.386,0.082-0.57,0.135    c-3.476,0.986-5.493,4.603-4.507,8.077c0.986,3.474,4.601,5.492,8.076,4.507l57.013-16.181l-2.337,18.279    c-0.063,0.532-0.071,1.115,0,1.671c0.463,3.608,3.761,6.16,7.37,5.698c3.606-0.461,6.159-3.761,5.696-7.369l-2.336-18.279    l57.012,16.181c0.183,0.049,0.382,0.098,0.571,0.134c3.552,0.671,6.971-1.663,7.64-5.213    C182.082,215.911,179.748,212.49,176.197,211.82z"/>
            <path fill="currentColor" d="M114.46,113.124c43.977,0,79.625-16.413,79.625-36.658c0-12.245-13.039-23.085-33.074-29.743    c-1.994,1.932-4.023,3.938-6.101,6.027c14.058,4.05,23.015,10.168,23.015,17.016c0,12.193-28.414,22.078-63.465,22.078    c-35.05,0-63.463-9.885-63.463-22.078c0-12.196,28.413-22.081,63.463-22.081c3.271,0,6.481,0.087,9.617,0.252    c2.446-2.406,4.938-4.854,7.431-7.285c-5.492-0.552-11.194-0.845-17.047-0.845c-43.974,0-79.624,16.412-79.624,36.659    C34.836,96.711,70.486,113.124,114.46,113.124z"/>
            <path fill="currentColor" d="M174.06,109.549c-16.051,7.39-37.217,11.458-59.601,11.458c-22.381,0-43.549-4.067-59.6-11.458    C45.757,105.358,38.729,100.281,34,94.6c-2.273,7.616-3.5,15.688-3.5,24.044c0,23.01,9.259,43.854,24.25,59.021    c0.497-2.662,0.793-4.286,0.793-4.286c1.351-9.33,6.278-18.678,19.335-23c0,0-2.052,43.151,25.641,42.125    c0,0,50.792-5.514,13.333-56.41c0,0,38.052,4.401,35.162,52.686c0.904-6.582,4.623-19.984,19.881-24.309l-5.915,16.031    c0,0-1.696,4.501-1.188,7.495c22.116-15.122,36.631-40.541,36.631-69.353c0-8.356-1.227-16.428-3.5-24.044    C190.191,100.281,183.162,105.357,174.06,109.549z"/>
        </symbol>
        <symbol id="rip" viewBox="0 0 233.486 233.486"> 
            <path fill="currentColor" d="M164.162,111.2c9.404-10.027-1.942-22.521-13.491-19.779v22.155C155.476,114.484,160.418,115.194,164.162,111.2z"/>
            <path fill="currentColor" d="M70.258,91.224v22.155c0.734,0.009,1.467,0.021,2.199,0.04C93.322,113.42,91.199,87.207,70.258,91.224z"/>
            <path fill="currentColor" d="M217.414,203.661h-8.696V91.973c0-21.121-7.125-40.575-19.097-56.102l-11.907,3.744l5.088,14.317l0.422,1.181    l-0.801,0.813l-11.968,12.163c-0.547,0.557-1.442,0.563-2,0.017c-0.532-0.527-0.56-1.379-0.071-1.938l10.407-11.899l-6.481-15.328    l-0.855-2.021l2.205-1.118l11.172-5.662C168.005,11.624,143.731,0,116.743,0C91.993,0,69.53,9.778,52.999,25.678l13.02,6.601    l1.314,0.666l0.164,1.164l4.152,29.249c0.111,0.773-0.428,1.488-1.201,1.599c-0.738,0.104-1.424-0.387-1.58-1.105l-5.854-27.43    l-15.586-4.9c-14.109,16.166-22.66,37.31-22.66,60.452v111.688h-8.697c-5.523,0-10,4.477-10,10v9.824c0,5.521,4.477,10,10,10    h201.344c5.523,0,10-4.479,10-10v-9.824C227.414,208.139,222.937,203.661,217.414,203.661z M142.632,88.181    c2.903-0.146,5.907-0.297,8.946-0.297c7.238,0,16.158,0.752,20.929,6.612c0.002,0.002,0.004,0.004,0.006,0.006l0.004,0.008    c0.002,0.003,0.006,0.006,0.008,0.009c0.004,0.004,0.008,0.008,0.01,0.013c0.002,0.003,0.004,0.006,0.008,0.01    c3.508,4.343,4.441,8.315,2.773,11.806c-2.795,5.856-12.252,9.017-19.727,9.017c-1.703,0-4.722-0.464-4.722-0.464    s-2.362,19.296,1.162,23.085c0.793,0.85,1.75,1.464,2.862,1.839h-17.125c5.631-2.34,8.179-14.006,8.179-25.578    c0-11.74-2.55-23.575-8.187-25.852C139.298,88.347,140.933,88.265,142.632,88.181z M111.773,88.431h18.113    c-1.951,0.81-4.106,2.958-5.76,7.951c-1.51,4.558-1.613,10.73-1.613,17.383c0,11.422,1.799,23.625,7.293,26.059h-18.117    c1.943-0.809,4.096-2.956,5.74-7.951c1.501-4.554,1.625-10.727,1.625-17.376C119.056,103.071,117.244,90.866,111.773,88.431z     M57.385,88.404c1.904-0.04,3.873-0.123,5.926-0.209c2.979-0.124,6.055-0.253,9.086-0.253c6.043,0,10.6,0.535,14.34,1.685    c5.75,1.768,8.932,5.687,8.73,10.754c-0.248,6.235-5.465,12.055-12.133,13.538c-0.309,0.068-0.563,0.286-0.674,0.581    c-0.111,0.294-0.07,0.626,0.115,0.882l10.996,15.279c3.27,4.562,6.615,7.905,11.801,9.162H94.345l-17.752-24.519    c-0.182-0.253-0.479-0.396-0.795-0.387c-0.902,0.035-1.971,0.071-3.061,0.071c-0.873,0-1.666-0.022-2.422-0.07    c-0.254-0.015-0.512,0.075-0.701,0.252c-0.188,0.178-0.295,0.425-0.295,0.684c0,1.298-0.119,2.928-0.24,4.654    c-0.439,6.103-0.986,13.695,2.537,17.479c0.791,0.849,1.746,1.462,2.857,1.836H57.365c5.654-2.34,8.211-14.007,8.211-25.58    C65.576,102.522,63.025,90.707,57.385,88.404z"/>
        </symbol>
        <symbol id="bats" viewBox="0 0 236.844 236.844">
            <path fill="currentColor" d="M236.062,70.277c-11.115-5.777-23.436-7.583-36.618-5.369c-15.044,2.527-29.146,9.812-40.501,15.676    c-3.835,1.979-7.455,3.851-10.721,5.336c-1.468,0.67-2.826,1.112-4.044,1.317c-2.854,0.479-4.845-0.327-6.083-2.462    c-3.323-5.721-3.104-19.211,4.01-26.125c0.508-0.493,0.508-1.304-0.003-1.846c-0.499-0.527-1.356-0.626-1.928-0.197    c-1.915,1.441-4.288,2.432-6.863,2.865c-4.495,0.754-9.191-0.227-12.559-2.626c-2.737-1.952-4.427-4.716-4.884-7.995    c-0.101-0.732-0.804-1.284-1.563-1.23c-0.775,0.054-1.314,0.692-1.232,1.424c0.65,5.78-2.178,25.02-11.104,29.953    c-2.06,1.138-4.07-0.201-4.07-0.201c-3.197-2.016-7.639-10.04-8.135-10.948c-4.787-8.768-11.342-20.771-21.944-31.571    c-12.515-12.75-28.166-21.05-46.514-24.67c-0.714-0.141-1.404,0.272-1.583,0.916c-0.184,0.666,0.193,1.372,0.875,1.645    c4.573,1.825,13.094,7.328,16.022,16.37c2.313,7.139,0.471,14.763-5.474,22.658c-0.327,0.436-0.338,1.024-0.026,1.499    c0.311,0.477,0.875,0.735,1.439,0.661c11.13-1.461,15.726,2.577,17.298,6.364c4.879,11.759-2.65,15.871-2.65,15.871    c-0.643,0.356-0.858,0.923-0.669,1.536c0.195,0.629,0.826,1.059,1.498,1.021c10.236-0.571,30.378,9.618,43.107,21.803    c8.75,8.379,13.327,16.995,12.888,24.263c-0.039,0.63,0.378,1.213,1.015,1.418c0.621,0.201,1.313-0.046,1.621-0.566    c3.495-5.875,11.885-10.196,23.628-12.169c9.821-1.649,21.245-1.552,31.339,0.266c9.852,1.774,17.163,5.054,19.565,8.771    c0.363,0.565,1.104,0.827,1.741,0.596c0.637-0.229,0.979-0.868,0.813-1.521c-1.035-4.088-0.159-8.504,2.465-12.433    c2.859-4.277,7.401-7.307,12.154-8.105c3.127-0.525,6.163-0.091,9.021,1.288c0.488,0.236,1.09,0.185,1.501-0.134    c0.416-0.321,0.587-0.858,0.438-1.368c-1.408-4.818-0.403-10.246,2.828-15.289c4.567-7.125,12.757-12.45,21.37-13.897    c0.701-0.119,1.41-0.209,2.107-0.275c0.604-0.055,1.091-0.495,1.188-1.065C236.924,71.15,236.616,70.566,236.062,70.277z"/>
            <path fill="currentColor" d="M140.965,127.705c-8.191,0.52-15.716,3.676-22.363,9.38c-7.586,6.509-13.035,15.37-17.421,22.502    c-1.482,2.408-2.88,4.684-4.209,6.622c-0.597,0.873-1.21,1.581-1.823,2.106c-1.44,1.235-2.829,1.457-4.247,0.678    c-3.801-2.085-8.243-9.729-6.592-16.016c0.118-0.449-0.156-0.904-0.626-1.035c-0.458-0.127-0.973,0.107-1.148,0.541    c-0.587,1.458-1.583,2.816-2.882,3.932c-2.267,1.943-5.234,2.982-7.935,2.775c-2.196-0.169-4.08-1.147-5.446-2.833    c-0.304-0.377-0.886-0.448-1.293-0.162c-0.417,0.293-0.503,0.833-0.21,1.217c2.321,3.022,7.245,14.775,3.906,20.564    c-0.771,1.335-2.352,1.265-2.352,1.265c-2.477-0.049-7.684-3.048-8.27-3.39c-5.653-3.299-13.394-7.816-22.997-10.288    c-11.338-2.919-22.929-2.279-34.449,1.899c-0.448,0.162-0.696,0.628-0.578,1.05c0.122,0.436,0.572,0.704,1.047,0.626    c3.184-0.523,9.827-0.319,14.531,3.763c3.713,3.225,5.26,8.125,4.597,14.566c-0.036,0.354,0.157,0.688,0.492,0.85    c0.336,0.163,0.74,0.117,1.032-0.116c5.75-4.587,9.696-3.876,11.86-2.282c6.717,4.946,3.884,9.802,3.884,9.802    c-0.24,0.417-0.169,0.809,0.145,1.088c0.322,0.287,0.822,0.315,1.186,0.066c5.551-3.785,20.301-4.885,31.567-2.355    c7.746,1.741,13.23,5.026,15.443,9.253c0.191,0.367,0.623,0.553,1.049,0.452c0.417-0.097,0.721-0.47,0.718-0.866    c-0.027-4.479,3.218-9.744,9.14-14.825c4.953-4.25,11.396-8.061,17.675-10.457c6.127-2.338,11.341-2.973,13.946-1.698    c0.396,0.193,0.9,0.09,1.18-0.255c0.278-0.346,0.255-0.819-0.059-1.13c-1.964-1.942-2.967-4.718-2.824-7.81    c0.157-3.368,1.681-6.604,4.077-8.662c1.577-1.353,3.428-2.137,5.497-2.33c0.354-0.033,0.674-0.266,0.797-0.583    c0.125-0.32,0.039-0.68-0.218-0.916c-2.42-2.227-3.693-5.612-3.587-9.536c0.151-5.543,2.944-11.303,7.288-15.029    c0.353-0.304,0.72-0.596,1.09-0.868c0.32-0.236,0.444-0.646,0.305-1C141.745,127.901,141.375,127.678,140.965,127.705z"/>
            <path fill="currentColor" d="M220.366,205.274c-6.166-1.559-12.771-1.144-18.087-0.811c-1.795,0.111-3.491,0.219-4.986,0.239    c-0.673,0.01-1.266-0.05-1.764-0.177c-1.17-0.295-1.794-0.937-1.909-1.959c-0.309-2.741,2.038-7.853,5.912-9.298    c0.277-0.104,0.413-0.413,0.309-0.705c-0.102-0.285-0.413-0.467-0.702-0.397c-0.973,0.229-2.044,0.209-3.101-0.059    c-1.842-0.466-3.47-1.628-4.352-3.107c-0.718-1.204-0.899-2.543-0.523-3.871c0.084-0.296-0.092-0.625-0.39-0.732    c-0.307-0.108-0.618,0.044-0.71,0.336c-0.722,2.315-5.027,9.185-9.263,9.57c-0.977,0.089-1.52-0.76-1.52-0.76    c-0.882-1.307-1.232-5.113-1.27-5.542c-0.355-4.149-0.845-9.83-3.08-15.729c-2.638-6.966-7.22-12.758-13.614-17.218    c-0.249-0.173-0.582-0.131-0.758,0.084c-0.183,0.223-0.156,0.556,0.058,0.774c1.438,1.464,3.769,4.992,3.37,8.935    c-0.315,3.113-2.296,5.714-5.89,7.729c-0.197,0.112-0.301,0.335-0.261,0.568c0.039,0.234,0.21,0.427,0.438,0.494    c4.493,1.309,5.569,3.621,5.534,5.33c-0.11,5.307-3.674,5.613-3.674,5.613c-0.305,0.027-0.481,0.208-0.513,0.475    c-0.031,0.272,0.137,0.542,0.4,0.641c4.002,1.499,9.98,8.767,12.796,15.552c1.934,4.666,2.234,8.722,0.849,11.422    c-0.121,0.233-0.06,0.526,0.149,0.711c0.203,0.181,0.509,0.203,0.714,0.056c2.319-1.656,6.246-1.897,11.06-0.682    c4.025,1.018,8.368,2.971,11.916,5.356c3.462,2.329,5.703,4.809,5.996,6.63c0.044,0.277,0.283,0.502,0.564,0.521    s0.52-0.167,0.565-0.444c0.29-1.733,1.365-3.271,3.026-4.332c1.808-1.152,4.05-1.547,5.998-1.055    c1.282,0.324,2.368,0.999,3.226,2.004c0.147,0.172,0.387,0.253,0.597,0.201c0.213-0.053,0.367-0.229,0.396-0.449    c0.271-2.075,1.564-3.978,3.645-5.359c2.938-1.954,6.957-2.612,10.486-1.721c0.287,0.072,0.573,0.156,0.851,0.249    c0.239,0.08,0.5-0.006,0.632-0.208c0.135-0.206,0.115-0.479-0.048-0.683C230.169,209.396,225.771,206.64,220.366,205.274z"/>
        </symbol>
        <symbol id="rabbit" viewBox="0 0 1024 1024">
            <path fill="currentColor" d="M889.8 685.1c39 5.4 69.1 38.9 69.1 79.4 0 44.2-36 80.2-80.2 80.2-8 0-15.8-1.2-23.3-3.5-8.9 14-19.5 27.1-31.5 39.1-43.9 43.8-102.1 68-164.1 68h-528c-36.2 0-65.7-29.5-65.7-65.7s29.5-65.7 65.7-65.7h40.9c-15.1-31.2-23-65.5-23-100.7 0-29.6 5.4-58.2 16.1-85.2-43.3-18.7-73.9-62.5-73.9-109.4 0-11 1.7-21.9 5.2-32.3 32.5-98.3 116.8-165.2 220-177.6 4.5-24.3 11.6-50.1 20.8-75.4C371.3 144.3 431.4 60.8 482 79c23.7 8.6 36.2 36 36.5 78.5 5.5-3.1 10.9-5.9 16.2-8.4 51.1-24.3 77-14.3 89.6-1.7 12.7 12.7 22.7 38.5-1.7 89.6-16.3 34.2-44.6 72.3-79.7 107.5-23 23-47.5 43.2-71.4 59 2 8.3 3 16.7 3 25 0 11-1.7 21.9-5.2 32.3-2.6 8-5.6 15.7-8.9 23.3h199.4c117.5 0 214.8 87.7 230 201z"/>
        </symbol>
        <symbol id="mouse" viewBox="0 0 50 50">
            <path fill="currentColor" d="M35.819,14.07c-0.5-0.5-1.19-0.77-1.94-0.77h-6.74v-2.83c0-0.18,0.15-0.33,0.33-0.33h7.21     c1.01,0,1.83-0.82,1.83-1.83V4.24c0-1-0.82-1.82-1.83-1.82h-3.17V1.63c0-0.76-0.62-1.38-1.38-1.38h-5.53     c-0.41,0-0.75,0.33-0.75,0.75v0.15h-2.93c-0.6,0-1.09,0.49-1.09,1.09v1.8c0,0.6,0.49,1.09,1.09,1.09h2.93v0.15     c0,0.42,0.34,0.75,0.75,0.75h5.53c0.76,0,1.38-0.62,1.38-1.38V3.92h3.17c0.18,0,0.33,0.14,0.33,0.32v4.07     c0,0.18-0.15,0.33-0.33,0.33h-7.21c-1.01,0-1.83,0.82-1.83,1.83v2.83h-6.73c-0.75,0-1.44,0.27-1.95,0.77     c-3.744,3.606-6.89,10.425-6.89,17.45c0,10.56,6.86,18.23,16.32,18.23c9.46,0,16.32-7.67,16.32-18.23     C42.709,24.706,39.745,17.852,35.819,14.07z M21.329,3.63V2.65h2.52v0.98H21.329z M30.009,4.53h-4.66c0-0.781,0-1.909,0-2.78     h4.66V4.53z M33.879,14.8c0.34,0,0.67,0.12,0.89,0.34c2.656,2.655,4.473,6.166,5.47,9.68h-13.1v-1.2h0.75     c0.64,0,1.16-0.52,1.16-1.15v-5.1c0-0.64-0.52-1.16-1.16-1.16h-0.75V14.8H33.879z M25.239,22.12v-4.41c0.351,0,2.426,0,2.31,0     v4.41C27.404,22.12,25.136,22.12,25.239,22.12z M18.019,15.14c0.22-0.22,0.54-0.34,0.89-0.34h6.73v1.41h-0.74     c-0.64,0-1.16,0.52-1.16,1.16v5.1c0,0.63,0.52,1.15,1.16,1.15h0.74v1.2h-13.1C13.539,21.292,15.328,17.831,18.019,15.14z      M26.389,48.25c-8.59,0-14.82-7.04-14.82-16.73c0-1.74,0.2-3.49,0.58-5.2h28.48c0.38,1.71,0.58,3.46,0.58,5.2     C41.209,41.21,34.979,48.25,26.389,48.25z"/>
        </symbol>
    </defs>
    <view id="castle-view" viewBox="0 0 50 50"/>
    <view id="feather-view" viewBox="150 50 50 50"/>
    <view id="heartSettings-view" viewBox="150 100 50 50"/>
    <view id="mushroom-view" viewBox="100 0 50 50"/>
    <view id="book-view" viewBox="0 50 50 50"/>
    <view id="crown-view" viewBox="0 100 50 50"/>
    <view id="logs-view" viewBox="200 150 50 50"/>
    <view id="stars-view" viewBox="100 100 50 50"/>
    <view id="caulduron-view" viewBox="250 0 50 50"/>
    <view id="rip-view" viewBox="250 50 50 50"/>
    <view id="bats-view" viewBox="250 100 50 50"/>
    <view id="rabbit-view" viewBox="250 150 50 50"/>
    <view id="mouse-view" viewBox="300 0 50 50"/>
    <use width="50" height="50" transform="translate(0 0)" href="#castle"/>
    <use width="50" height="50" transform="translate(0 50)" href="#book"/>
    <use width="50" height="50" transform="translate(0 100)" href="#crown"/>
    <use width="50" height="50" transform="translate(0 150)" href="#flag"/>
    <use width="50" height="50" transform="translate(50 0)" href="#click"/>
    <use width="50" height="50" transform="translate(50 50)" href="#closeCross"/>
    <use width="50" height="50" transform="translate(50 100)" href="#fairy"/>
    <use width="50" height="50" transform="translate(50 150)" href="#feathersCross"/>
    <use width="50" height="50" transform="translate(100 0)" href="#mushroom"/>
    <use width="50" height="50" transform="translate(100 50)" href="#sparkles"/>
    <use width="50" height="50" transform="translate(100 100)" href="#stars"/>
    <use width="50" height="50" transform="translate(100 150)" href="#hat"/>
    <use width="50" height="50" transform="translate(150 0)" href="#broom"/>
    <use width="50" height="50" transform="translate(150 50)" href="#feather"/>
    <use width="50" height="50" transform="translate(150 100)" href="#heartSettings"/>
    <use width="50" height="50" transform="translate(150 150)" href="#pagoda"/>
    <use width="50" height="50" transform="translate(200 0)" href="#random"/>
    <use width="50" height="50" transform="translate(200 50)" href="#delete"/>
    <use width="50" height="50" transform="translate(200 100)" href="#deleteScroll"/>
    <use width="50" height="50" transform="translate(200 150)" href="#logs"/>
    <use width="50" height="50" transform="translate(250 0)" href="#caulduron"/>
    <use width="50" height="50" transform="translate(250 50)" href="#rip"/>
    <use width="50" height="50" transform="translate(250 100)" href="#bats"/>
    <use width="50" height="50" transform="translate(250 150)" href="#rabbit"/>
    <use width="50" height="50" transform="translate(300 0)" href="#mouse"/>
</svg>